<svg width="13" height="11" viewBox="0 0 13 11" fill="none" xmlns="http://www.w3.org/2000/svg">
<path d="M0.221119 5.27991L3.12025 6.36094L4.25041 9.99712C4.29955 10.2428 4.59438 10.292 4.79093 10.1445L6.41246 8.81782C6.55988 8.67041 6.80557 8.67041 7.00212 8.81782L9.90124 10.9307C10.0978 11.0782 10.3926 10.9799 10.4418 10.7342L12.6038 0.415287C12.6529 0.169599 12.4073 -0.0760874 12.1616 0.0221879L0.221119 4.64113C-0.0737064 4.7394 -0.0737064 5.18164 0.221119 5.27991ZM4.103 5.82043L9.80296 2.33165C9.90123 2.28252 9.99951 2.42993 9.90124 2.47907L5.23316 6.85232C5.08575 6.99973 4.93833 7.19628 4.93833 7.44197L4.79093 8.62127C4.79093 8.76869 4.54524 8.81782 4.4961 8.62127L3.90644 6.45922C3.75903 6.21353 3.85732 5.9187 4.103 5.82043Z" fill="white"/>
</svg>
