<svg width="12" height="12" viewBox="0 0 12 12" fill="none" xmlns="http://www.w3.org/2000/svg">
<path d="M10.2439 1.75C9.11498 0.625 7.60975 0 6.0209 0C2.71777 0 0.0418112 2.66667 0.0418112 5.95833C0.0418112 7 0.334495 8.04167 0.836237 8.91667L0 12L3.1777 11.1667C4.05575 11.625 5.01742 11.875 6.0209 11.875C9.32404 11.875 12 9.20833 12 5.91667C11.9582 4.375 11.3728 2.875 10.2439 1.75ZM8.90592 8.08333C8.78049 8.41667 8.19512 8.75 7.90244 8.79167C7.65157 8.83333 7.31707 8.83333 6.98258 8.75C6.77352 8.66667 6.48084 8.58333 6.14634 8.41667C4.64112 7.79167 3.67944 6.29167 3.59582 6.16667C3.5122 6.08333 2.96864 5.375 2.96864 4.625C2.96864 3.875 3.34495 3.54167 3.47038 3.375C3.59582 3.20833 3.76307 3.20833 3.8885 3.20833C3.97212 3.20833 4.09756 3.20833 4.18118 3.20833C4.26481 3.20833 4.39024 3.16667 4.51568 3.45833C4.64111 3.75 4.9338 4.5 4.97561 4.54167C5.01742 4.625 5.01742 4.70833 4.97561 4.79167C4.9338 4.875 4.89198 4.95833 4.80836 5.04167C4.72474 5.125 4.64111 5.25 4.5993 5.29167C4.51568 5.375 4.43205 5.45833 4.51568 5.58333C4.5993 5.75 4.89199 6.20833 5.35192 6.625C5.93728 7.125 6.39721 7.29167 6.56446 7.375C6.73171 7.45833 6.81533 7.41667 6.89895 7.33333C6.98258 7.25 7.27526 6.91667 7.35889 6.75C7.44251 6.58333 7.56794 6.625 7.69338 6.66667C7.81881 6.70833 8.57143 7.08333 8.69686 7.16667C8.86411 7.25 8.94773 7.29167 8.98954 7.33333C9.03136 7.45833 9.03136 7.75 8.90592 8.08333Z" fill="white"/>
</svg>
