<svg width="192" height="55" viewBox="0 0 192 55" fill="none" xmlns="http://www.w3.org/2000/svg">
<path d="M26.27 3H27.27V2H26.27V3ZM26.27 52V53H27.27V52H26.27ZM9.75 52H8.75V53H9.75V52ZM9.75 15.46H10.75V14.46H9.75V15.46ZM1.35 15.46H0.35V16.46H1.35V15.46ZM1.35 3V2H0.35V3H1.35ZM25.27 3V52H27.27V3H25.27ZM26.27 51H9.75V53H26.27V51ZM10.75 52V15.46H8.75V52H10.75ZM9.75 14.46H1.35V16.46H9.75V14.46ZM2.35 15.46V3H0.35V15.46H2.35ZM1.35 4H26.27V2H1.35V4ZM42.9278 50.11L42.401 50.96L42.408 50.9643L42.4151 50.9685L42.9278 50.11ZM35.0878 41.29L34.187 41.7241L34.1901 41.7307L34.1934 41.7372L35.0878 41.29ZM35.0878 13.78L34.1912 13.3371L34.189 13.3416L35.0878 13.78ZM42.9278 4.96L43.4459 5.81536L43.4493 5.81328L42.9278 4.96ZM65.9578 4.96L65.4311 5.81001L65.438 5.81433L65.4451 5.81854L65.9578 4.96ZM73.7978 13.78L72.897 14.2141L72.9001 14.2207L72.9034 14.2272L73.7978 13.78ZM73.7978 41.29L72.9012 40.8471L72.899 40.8516L73.7978 41.29ZM65.9578 50.11L66.4759 50.9654L66.4793 50.9633L65.9578 50.11ZM54.4778 52.12C50.2981 52.12 46.6291 51.1557 43.4406 49.2515L42.4151 50.9685C45.9466 53.0776 49.9775 54.12 54.4778 54.12V52.12ZM43.4546 49.26C40.3139 47.3137 37.8211 44.5204 35.9822 40.8428L34.1934 41.7372C36.1812 45.7129 38.915 48.7997 42.401 50.96L43.4546 49.26ZM35.9887 40.8559C34.2009 37.1462 33.2878 32.7046 33.2878 27.5H31.2878C31.2878 32.9354 32.2414 37.6871 34.187 41.7241L35.9887 40.8559ZM33.2878 27.5C33.2878 22.295 34.201 17.8788 35.9866 14.2184L34.189 13.3416C32.2413 17.3345 31.2878 22.065 31.2878 27.5H33.2878ZM35.9844 14.2229C37.8234 10.5 40.3138 7.71226 43.4458 5.81536L42.4098 4.10464C38.9152 6.22107 36.1789 9.31337 34.1912 13.3371L35.9844 14.2229ZM43.4493 5.81328C46.6365 3.86553 50.3024 2.88 54.4778 2.88V0.879999C49.9732 0.879999 45.9391 1.9478 42.4064 4.10671L43.4493 5.81328ZM54.4778 2.88C58.6534 2.88 62.2934 3.86558 65.4311 5.81001L66.4846 4.10999C62.9955 1.94775 58.9822 0.879999 54.4778 0.879999V2.88ZM65.4451 5.81854C68.6205 7.71496 71.1066 10.4991 72.897 14.2141L74.6987 13.3459C72.7557 9.31422 70.0152 6.21837 66.4706 4.10145L65.4451 5.81854ZM72.9034 14.2272C74.7325 17.8853 75.6678 22.2983 75.6678 27.5H77.6678C77.6678 22.0617 76.6898 17.328 74.6922 13.3328L72.9034 14.2272ZM75.6678 27.5C75.6678 32.7013 74.7326 37.1397 72.9012 40.8471L74.6944 41.7329C76.6897 37.6936 77.6678 32.9387 77.6678 27.5H75.6678ZM72.899 40.8516C71.1089 44.5213 68.6203 47.311 65.4364 49.2567L66.4793 50.9633C70.0153 48.8024 72.7534 45.712 74.6966 41.7284L72.899 40.8516ZM65.4398 49.2546C62.3009 51.1556 58.6577 52.12 54.4778 52.12V54.12C58.9779 54.12 62.988 53.0777 66.4759 50.9654L65.4398 49.2546ZM54.4778 40.89C55.6082 40.89 56.6366 40.573 57.5214 39.9204C58.3947 39.2763 59.0726 38.347 59.5891 37.2044C60.611 34.9434 61.0778 31.6741 61.0778 27.5H59.0778C59.0778 31.5859 58.6113 34.5116 57.7666 36.3806C57.3497 37.303 56.8609 37.9224 56.3343 38.3108C55.8191 38.6908 55.2141 38.89 54.4778 38.89V40.89ZM61.0778 27.5C61.0778 23.3259 60.611 20.0566 59.5891 17.7956C59.0726 16.653 58.3947 15.7237 57.5214 15.0796C56.6366 14.427 55.6082 14.11 54.4778 14.11V16.11C55.2141 16.11 55.8191 16.3092 56.3343 16.6892C56.8609 17.0776 57.3497 17.697 57.7666 18.6194C58.6113 20.4884 59.0778 23.4141 59.0778 27.5H61.0778ZM54.4778 14.11C53.3474 14.11 52.3191 14.427 51.4343 15.0796C50.5609 15.7237 49.883 16.653 49.3666 17.7956C48.3447 20.0566 47.8778 23.3259 47.8778 27.5H49.8778C49.8778 23.4141 50.3443 20.4884 51.1891 18.6194C51.606 17.697 52.0947 17.0776 52.6214 16.6892C53.1366 16.3092 53.7415 16.11 54.4778 16.11V14.11ZM47.8778 27.5C47.8778 31.6741 48.3447 34.9434 49.3666 37.2044C49.883 38.347 50.5609 39.2763 51.4343 39.9204C52.3191 40.573 53.3474 40.89 54.4778 40.89V38.89C53.7415 38.89 53.1366 38.6908 52.6214 38.3108C52.0947 37.9224 51.606 37.303 51.1891 36.3806C50.3443 34.5116 49.8778 31.5859 49.8778 27.5H47.8778ZM91.3946 50.11L90.8678 50.96L90.8748 50.9643L90.8819 50.9685L91.3946 50.11ZM83.5546 41.29L82.6538 41.7241L82.6569 41.7307L82.6602 41.7372L83.5546 41.29ZM83.5546 13.78L82.658 13.3371L82.6558 13.3416L83.5546 13.78ZM91.3946 4.96L91.9127 5.81536L91.9161 5.81328L91.3946 4.96ZM114.425 4.96L113.898 5.81001L113.905 5.81433L113.912 5.81854L114.425 4.96ZM122.265 13.78L121.364 14.2141L121.367 14.2207L121.37 14.2272L122.265 13.78ZM122.265 41.29L121.368 40.8471L121.366 40.8516L122.265 41.29ZM114.425 50.11L114.943 50.9654L114.946 50.9633L114.425 50.11ZM102.945 52.12C98.7649 52.12 95.0959 51.1557 91.9073 49.2515L90.8819 50.9685C94.4134 53.0776 98.4443 54.12 102.945 54.12V52.12ZM91.9214 49.26C88.7807 47.3137 86.2879 44.5204 84.449 40.8428L82.6602 41.7372C84.648 45.7129 87.3818 48.7997 90.8678 50.96L91.9214 49.26ZM84.4555 40.8559C82.6677 37.1462 81.7546 32.7046 81.7546 27.5H79.7546C79.7546 32.9354 80.7082 37.6871 82.6538 41.7241L84.4555 40.8559ZM81.7546 27.5C81.7546 22.295 82.6678 17.8788 84.4534 14.2184L82.6558 13.3416C80.7081 17.3345 79.7546 22.065 79.7546 27.5H81.7546ZM84.4512 14.2229C86.2902 10.5 88.7805 7.71226 91.9126 5.81536L90.8766 4.10464C87.382 6.22107 84.6457 9.31337 82.658 13.3371L84.4512 14.2229ZM91.9161 5.81328C95.1033 3.86553 98.7692 2.88 102.945 2.88V0.879999C98.44 0.879999 94.4059 1.9478 90.8732 4.10671L91.9161 5.81328ZM102.945 2.88C107.12 2.88 110.76 3.86558 113.898 5.81001L114.951 4.10999C111.462 1.94775 107.449 0.879999 102.945 0.879999V2.88ZM113.912 5.81854C117.087 7.71496 119.573 10.4991 121.364 14.2141L123.165 13.3459C121.222 9.31422 118.482 6.21837 114.937 4.10145L113.912 5.81854ZM121.37 14.2272C123.199 17.8853 124.135 22.2983 124.135 27.5H126.135C126.135 22.0617 125.157 17.328 123.159 13.3328L121.37 14.2272ZM124.135 27.5C124.135 32.7013 123.199 37.1397 121.368 40.8471L123.161 41.7329C125.156 37.6936 126.135 32.9387 126.135 27.5H124.135ZM121.366 40.8516C119.576 44.5213 117.087 47.311 113.903 49.2567L114.946 50.9633C118.482 48.8024 121.22 45.712 123.163 41.7284L121.366 40.8516ZM113.907 49.2546C110.768 51.1556 107.125 52.12 102.945 52.12V54.12C107.445 54.12 111.455 53.0777 114.943 50.9654L113.907 49.2546ZM102.945 40.89C104.075 40.89 105.103 40.573 105.988 39.9204C106.861 39.2763 107.539 38.347 108.056 37.2044C109.078 34.9434 109.545 31.6741 109.545 27.5H107.545C107.545 31.5859 107.078 34.5116 106.233 36.3806C105.816 37.303 105.328 37.9224 104.801 38.3108C104.286 38.6908 103.681 38.89 102.945 38.89V40.89ZM109.545 27.5C109.545 23.3259 109.078 20.0566 108.056 17.7956C107.539 16.653 106.861 15.7237 105.988 15.0796C105.103 14.427 104.075 14.11 102.945 14.11V16.11C103.681 16.11 104.286 16.3092 104.801 16.6892C105.328 17.0776 105.816 17.697 106.233 18.6194C107.078 20.4884 107.545 23.4141 107.545 27.5H109.545ZM102.945 14.11C101.814 14.11 100.786 14.427 99.9011 15.0796C99.0277 15.7237 98.3498 16.653 97.8334 17.7956C96.8114 20.0566 96.3446 23.3259 96.3446 27.5H98.3446C98.3446 23.4141 98.8111 20.4884 99.6559 18.6194C100.073 17.697 100.561 17.0776 101.088 16.6892C101.603 16.3092 102.208 16.11 102.945 16.11V14.11ZM96.3446 27.5C96.3446 31.6741 96.8114 34.9434 97.8334 37.2044C98.3498 38.347 99.0277 39.2763 99.9011 39.9204C100.786 40.573 101.814 40.89 102.945 40.89V38.89C102.208 38.89 101.603 38.6908 101.088 38.3108C100.561 37.9224 100.073 37.303 99.6559 36.3806C98.8111 34.5116 98.3446 31.5859 98.3446 27.5H96.3446ZM131.951 25.96L131.244 26.6671L131.951 25.96ZM129.991 8.6L130.869 9.07885L129.991 8.6ZM134.611 3.91L134.14 3.02817L134.131 3.0329L134.611 3.91ZM147.981 3.91L147.501 4.78714L147.51 4.79178L147.981 3.91ZM152.671 8.6L151.794 9.07885L152.671 8.6ZM150.711 25.96L151.419 26.6671L150.711 25.96ZM170.101 3V2H169.573L169.276 2.43608L170.101 3ZM181.931 3L182.757 3.56392L183.825 2H181.931V3ZM148.471 52V53H148.999L149.297 52.5639L148.471 52ZM136.641 52L135.816 51.4361L134.748 53H136.641V52ZM143.501 20.64L142.651 20.1136L142.644 20.1255L143.501 20.64ZM143.501 11.33L142.633 11.8261L142.647 11.851L142.663 11.875L143.501 11.33ZM139.091 11.33L138.241 10.8036L138.234 10.8155L139.091 11.33ZM139.091 20.64L138.223 21.1361L138.237 21.161L138.253 21.185L139.091 20.64ZM167.861 49.06L168.569 48.3529L167.861 49.06ZM165.901 31.7L165.024 31.2211L165.901 31.7ZM170.521 27.01L170.05 26.1282L170.041 26.1329L170.521 27.01ZM183.891 27.01L183.411 27.8871L183.42 27.8918L183.891 27.01ZM188.581 31.7L189.459 31.2211L188.581 31.7ZM186.621 49.06L185.914 48.3529L186.621 49.06ZM179.411 43.74L178.561 43.2136L178.554 43.2255L179.411 43.74ZM179.411 34.43L178.543 34.9261L178.557 34.951L178.573 34.975L179.411 34.43ZM175.001 34.43L174.151 33.9036L174.144 33.9155L175.001 34.43ZM175.001 43.74L174.133 44.2361L174.147 44.261L174.163 44.285L175.001 43.74ZM141.331 28.6C137.737 28.6 134.875 27.4697 132.659 25.2529L131.244 26.6671C133.881 29.3037 137.273 30.6 141.331 30.6V28.6ZM132.659 25.2529C130.462 23.0562 129.311 19.9982 129.311 15.95H127.311C127.311 20.3951 128.588 24.0105 131.244 26.6671L132.659 25.2529ZM129.311 15.95C129.311 13.2346 129.845 10.9566 130.869 9.07885L129.114 8.12115C127.898 10.35 127.311 12.972 127.311 15.95H129.311ZM130.869 9.07885C131.902 7.18534 133.308 5.76406 135.092 4.78709L134.131 3.0329C131.995 4.2026 130.321 5.90799 129.114 8.12115L130.869 9.07885ZM135.083 4.79178C136.932 3.80268 139.008 3.3 141.331 3.3V1.3C138.708 1.3 136.304 1.87065 134.14 3.02821L135.083 4.79178ZM141.331 3.3C143.655 3.3 145.704 3.80276 147.501 4.78709L148.462 3.0329C146.339 1.87057 143.954 1.3 141.331 1.3V3.3ZM147.51 4.79178C149.34 5.77057 150.764 7.1915 151.794 9.07885L153.549 8.12115C152.339 5.90183 150.636 4.19609 148.453 3.02821L147.51 4.79178ZM151.794 9.07885C152.818 10.9566 153.351 13.2346 153.351 15.95H155.351C155.351 12.972 154.765 10.35 153.549 8.12115L151.794 9.07885ZM153.351 15.95C153.351 19.9982 152.201 23.0562 150.004 25.2529L151.419 26.6671C154.075 24.0105 155.351 20.3951 155.351 15.95H153.351ZM150.004 25.2529C147.788 27.4697 144.926 28.6 141.331 28.6V30.6C145.39 30.6 148.782 29.3037 151.419 26.6671L150.004 25.2529ZM170.101 4H181.931V2H170.101V4ZM181.106 2.43607L147.646 51.4361L149.297 52.5639L182.757 3.56392L181.106 2.43607ZM148.471 51H136.641V53H148.471V51ZM137.467 52.5639L170.927 3.56392L169.276 2.43608L135.816 51.4361L137.467 52.5639ZM141.331 23.04C142.653 23.04 143.666 22.3093 144.359 21.1545L142.644 20.1255C142.217 20.8374 141.783 21.04 141.331 21.04V23.04ZM144.352 21.1664C145.109 19.9427 145.411 18.1464 145.411 15.95H143.411C143.411 18.0469 143.107 19.3773 142.651 20.1136L144.352 21.1664ZM145.411 15.95C145.411 13.7606 145.112 11.9724 144.34 10.785L142.663 11.875C143.104 12.5543 143.411 13.8461 143.411 15.95H145.411ZM144.37 10.8339C143.688 9.64093 142.678 8.86 141.331 8.86V10.86C141.758 10.86 142.195 11.0591 142.633 11.8261L144.37 10.8339ZM141.331 8.86C139.995 8.86 138.968 9.62932 138.241 10.8036L139.942 11.8564C140.428 11.0707 140.894 10.86 141.331 10.86V8.86ZM138.234 10.8155C137.527 11.9938 137.251 13.7673 137.251 15.95H139.251C139.251 13.8394 139.536 12.5328 139.949 11.8445L138.234 10.8155ZM137.251 15.95C137.251 18.1396 137.529 19.9218 138.223 21.1361L139.96 20.1439C139.534 19.3982 139.251 18.0537 139.251 15.95H137.251ZM138.253 21.185C138.991 22.3197 140.018 23.04 141.331 23.04V21.04C140.871 21.04 140.406 20.827 139.93 20.095L138.253 21.185ZM177.241 51.7C173.647 51.7 170.785 50.5697 168.569 48.3529L167.154 49.7671C169.791 52.4037 173.183 53.7 177.241 53.7V51.7ZM168.569 48.3529C166.372 46.1562 165.221 43.0982 165.221 39.05H163.221C163.221 43.4951 164.498 47.1105 167.154 49.7671L168.569 48.3529ZM165.221 39.05C165.221 36.3346 165.755 34.0566 166.779 32.1789L165.024 31.2211C163.808 33.45 163.221 36.072 163.221 39.05H165.221ZM166.779 32.1789C167.812 30.2853 169.218 28.8641 171.002 27.8871L170.041 26.1329C167.905 27.3026 166.231 29.008 165.024 31.2211L166.779 32.1789ZM170.993 27.8918C172.842 26.9027 174.918 26.4 177.241 26.4V24.4C174.618 24.4 172.214 24.9706 170.05 26.1282L170.993 27.8918ZM177.241 26.4C179.565 26.4 181.614 26.9028 183.411 27.8871L184.372 26.1329C182.249 24.9706 179.864 24.4 177.241 24.4V26.4ZM183.42 27.8918C185.25 28.8706 186.674 30.2915 187.704 32.1789L189.459 31.2211C188.249 29.0018 186.546 27.2961 184.363 26.1282L183.42 27.8918ZM187.704 32.1789C188.728 34.0566 189.261 36.3346 189.261 39.05H191.261C191.261 36.072 190.675 33.45 189.459 31.2211L187.704 32.1789ZM189.261 39.05C189.261 43.0982 188.111 46.1562 185.914 48.3529L187.329 49.7671C189.985 47.1105 191.261 43.4951 191.261 39.05H189.261ZM185.914 48.3529C183.698 50.5697 180.836 51.7 177.241 51.7V53.7C181.3 53.7 184.692 52.4037 187.329 49.7671L185.914 48.3529ZM177.241 46.14C178.563 46.14 179.576 45.4093 180.269 44.2545L178.554 43.2255C178.127 43.9374 177.693 44.14 177.241 44.14V46.14ZM180.262 44.2664C181.019 43.0427 181.321 41.2464 181.321 39.05H179.321C179.321 41.1469 179.017 42.4773 178.561 43.2136L180.262 44.2664ZM181.321 39.05C181.321 36.8606 181.022 35.0724 180.25 33.885L178.573 34.975C179.014 35.6543 179.321 36.9461 179.321 39.05H181.321ZM180.28 33.9339C179.598 32.7409 178.588 31.96 177.241 31.96V33.96C177.668 33.96 178.105 34.1591 178.543 34.9261L180.28 33.9339ZM177.241 31.96C175.905 31.96 174.878 32.7293 174.151 33.9036L175.852 34.9564C176.338 34.1707 176.804 33.96 177.241 33.96V31.96ZM174.144 33.9155C173.437 35.0938 173.161 36.8673 173.161 39.05H175.161C175.161 36.9394 175.446 35.6328 175.859 34.9445L174.144 33.9155ZM173.161 39.05C173.161 41.2396 173.439 43.0218 174.133 44.2361L175.87 43.2439C175.444 42.4982 175.161 41.1537 175.161 39.05H173.161ZM174.163 44.285C174.901 45.4197 175.928 46.14 177.241 46.14V44.14C176.781 44.14 176.316 43.927 175.84 43.195L174.163 44.285Z" fill="#CF1616"/>
</svg>
