<svg width="120" height="120" viewBox="0 0 120 120" fill="none" xmlns="http://www.w3.org/2000/svg">
<path d="M116.647 60.3011C116.699 60.3041 116.741 60.3239 116.774 60.3605C116.806 60.3971 116.821 60.4414 116.818 60.4933L116.599 64.283C116.595 64.3349 116.576 64.3771 116.539 64.4097C116.502 64.4423 116.458 64.4571 116.406 64.4541L107.685 63.9488C107.633 63.9458 107.591 63.926 107.558 63.8894C107.526 63.8527 107.511 63.8085 107.514 63.7566L107.654 61.3296C107.657 61.2777 107.677 61.2355 107.714 61.2029C107.75 61.1703 107.795 61.1555 107.847 61.1585L113.778 61.5021C113.821 61.5046 113.861 61.4896 113.897 61.457C113.943 61.4249 113.967 61.3829 113.97 61.331L114.028 60.3316C114.031 60.2797 114.051 60.2375 114.087 60.2049C114.124 60.1723 114.168 60.1575 114.22 60.1605L116.647 60.3011Z" fill="white"/>
<path d="M107.235 67.6268C107.35 67.1821 107.57 66.8003 107.894 66.4814C108.227 66.1646 108.615 65.9429 109.06 65.8162C109.511 65.7002 109.967 65.7018 110.428 65.8213L114.116 66.7756C114.586 66.8972 114.985 67.117 115.315 67.4351C115.651 67.7637 115.883 68.1461 116.012 68.5822C116.149 69.0206 116.16 69.4621 116.045 69.9068L114.654 75.2807C114.537 75.7338 114.312 76.1187 113.979 76.4355C113.655 76.7544 113.267 76.9719 112.817 77.088C112.374 77.2063 111.918 77.2046 111.448 77.083L107.761 76.1287C107.299 76.0092 106.9 75.7894 106.562 75.4692C106.232 75.1512 105.999 74.773 105.862 74.3346C105.733 73.8984 105.727 73.4538 105.844 73.0007L107.235 67.6268ZM109.043 72.8348C109.012 72.9523 109.028 73.0638 109.091 73.1695C109.161 73.2773 109.264 73.3485 109.398 73.3833L111.399 73.9012C111.533 73.9359 111.657 73.9233 111.771 73.8632C111.885 73.8032 111.957 73.7145 111.988 73.597L112.89 70.1109C112.92 69.9934 112.901 69.8766 112.833 69.7604C112.762 69.6526 112.66 69.5814 112.526 69.5466L110.525 69.0287C110.39 68.994 110.266 69.0066 110.152 69.0666C110.045 69.1372 109.975 69.2312 109.945 69.3487L109.043 72.8348Z" fill="white"/>
<path d="M103.47 79.9129C103.7 79.5149 104.013 79.2053 104.41 78.9841C104.815 78.7672 105.249 78.6569 105.711 78.6531C106.177 78.6611 106.616 78.7841 107.029 79.022L110.33 80.923C110.75 81.1652 111.077 81.4834 111.31 81.8776C111.546 82.2837 111.668 82.7141 111.676 83.1689C111.692 83.6279 111.585 84.0565 111.356 84.4545L108.586 89.2648C108.352 89.6703 108.033 89.9815 107.628 90.1984C107.23 90.4195 106.799 90.5261 106.334 90.5181C105.876 90.5144 105.436 90.3914 105.016 90.1492L101.715 88.2482C101.302 88.0103 100.975 87.6921 100.735 87.2935C100.502 86.8993 100.377 86.4727 100.362 86.0136C100.354 85.5588 100.466 85.1287 100.7 84.7232L103.47 79.9129ZM103.827 85.4142C103.767 85.5194 103.752 85.6311 103.784 85.7495C103.824 85.8721 103.903 85.9681 104.024 86.0373L105.815 87.0689C105.935 87.1381 106.058 87.1589 106.184 87.1314C106.31 87.1039 106.403 87.0376 106.463 86.9324L108.261 83.8119C108.321 83.7068 108.334 83.5891 108.299 83.4589C108.26 83.3363 108.18 83.2403 108.06 83.1711L106.268 82.1395C106.148 82.0703 106.025 82.0495 105.899 82.077C105.777 82.1163 105.685 82.1886 105.625 82.2937L103.827 85.4142Z" fill="white"/>
<path d="M101.652 96.8202C101.295 96.4786 101.105 96.0751 101.083 95.6097C101.067 95.1504 101.236 94.736 101.589 94.3666C101.943 93.9973 102.349 93.8106 102.809 93.8068C103.275 93.8089 103.686 93.9807 104.043 94.3223C104.4 94.6639 104.586 95.0644 104.603 95.5238C104.619 95.9832 104.45 96.3976 104.096 96.7669C103.743 97.1363 103.336 97.3229 102.877 97.3268C102.417 97.3307 102.009 97.1618 101.652 96.8202ZM101.193 99.8001C101.145 99.8502 101.087 99.8729 101.02 99.8682C100.952 99.8636 100.899 99.831 100.861 99.7705L95.5488 91.0136C95.5295 90.9711 95.5224 90.9284 95.5276 90.8853C95.5328 90.8423 95.5504 90.8052 95.5803 90.7738L95.7961 90.5485C95.844 90.4984 95.9018 90.4757 95.9693 90.4803C96.0308 90.4913 96.0807 90.5269 96.1187 90.5874L101.422 99.3354C101.479 99.4261 101.471 99.509 101.4 99.5841L101.193 99.8001ZM102.021 94.7802C101.817 94.993 101.719 95.2526 101.725 95.559C101.732 95.8776 101.852 96.1477 102.083 96.3695C102.321 96.5972 102.587 96.7079 102.881 96.7015C103.182 96.701 103.443 96.585 103.664 96.3534C103.886 96.1218 103.991 95.8559 103.978 95.5558C103.972 95.2617 103.85 95.0008 103.612 94.7731C103.374 94.5453 103.105 94.4317 102.804 94.4321C102.504 94.4325 102.243 94.5485 102.021 94.7802ZM95.3625 95.9643C95.0089 96.3337 94.6023 96.5203 94.1426 96.5242C93.683 96.5281 93.2747 96.3593 92.9179 96.0176C92.5611 95.676 92.3746 95.2755 92.3584 94.8162C92.336 94.3508 92.5016 93.9334 92.8552 93.5641C93.2088 93.1947 93.6186 93.0111 94.0845 93.0132C94.5441 93.0093 94.9524 93.1781 95.3092 93.5197C95.666 93.8614 95.8525 94.2619 95.8687 94.7212C95.8848 95.1806 95.7161 95.595 95.3625 95.9643ZM93.2872 93.9776C93.0834 94.1904 92.9849 94.45 92.9915 94.7564C92.9985 95.075 93.1178 95.3451 93.3494 95.5669C93.5873 95.7946 93.8533 95.9053 94.1474 95.8989C94.4477 95.8985 94.7088 95.7824 94.9305 95.5508C95.1523 95.3192 95.2568 95.0533 95.2441 94.7532C95.2377 94.4591 95.1156 94.1982 94.8777 93.9705C94.6398 93.7427 94.3707 93.6291 94.0703 93.6295C93.77 93.6299 93.5089 93.746 93.2872 93.9776Z" fill="white"/>
<path d="M92.5457 106.263C92.5734 106.307 92.5819 106.353 92.5711 106.401C92.5603 106.449 92.5329 106.487 92.4889 106.514L89.2788 108.54C89.2348 108.568 89.1889 108.577 89.1411 108.566C89.0933 108.555 89.0555 108.528 89.0277 108.484L84.3652 101.096C84.3374 101.052 84.329 101.006 84.3398 100.958C84.3506 100.91 84.378 100.873 84.422 100.845L86.4778 99.5475C86.5217 99.5197 86.5676 99.5112 86.6155 99.522C86.6633 99.5329 86.7011 99.5603 86.7288 99.6042L89.8996 104.628C89.9228 104.665 89.9582 104.689 90.006 104.7C90.0585 104.718 90.1067 104.713 90.1507 104.685L90.9972 104.151C91.0412 104.123 91.0871 104.115 91.1349 104.125C91.1827 104.136 91.2205 104.164 91.2482 104.208L92.5457 106.263Z" fill="#CF1616"/>
<path d="M81.1251 102.856C81.5539 102.692 81.9923 102.649 82.4403 102.727C82.8913 102.814 83.2975 103.002 83.6588 103.29C84.0152 103.59 84.2787 103.962 84.4495 104.407L85.8144 107.963C85.9883 108.416 86.0415 108.869 85.9739 109.322C85.9014 109.786 85.7251 110.198 85.4448 110.556C85.1676 110.922 84.8147 111.187 84.3858 111.352L79.2034 113.341C78.7665 113.509 78.3225 113.549 77.8714 113.462C77.4235 113.384 77.0214 113.195 76.665 112.895C76.3118 112.604 76.0482 112.231 75.8743 111.778L74.5095 108.222C74.3387 107.777 74.2855 107.324 74.3499 106.863C74.4174 106.41 74.5898 106 74.8669 105.634C75.1472 105.276 75.5058 105.013 75.9427 104.845L81.1251 102.856ZM77.9355 107.353C77.8222 107.396 77.7406 107.474 77.6908 107.586C77.644 107.706 77.6455 107.831 77.6952 107.96L78.4358 109.89C78.4855 110.019 78.5679 110.113 78.683 110.171C78.798 110.229 78.9122 110.236 79.0255 110.193L82.3874 108.902C82.5007 108.859 82.5847 108.776 82.6396 108.653C82.6863 108.532 82.6849 108.408 82.6352 108.278L81.8945 106.348C81.8448 106.219 81.7624 106.125 81.6474 106.067C81.5273 106.021 81.4107 106.019 81.2974 106.062L77.9355 107.353Z" fill="#CF1616"/>
<path d="M68.894 106.934C69.3512 106.89 69.7852 106.966 70.1959 107.161C70.6075 107.365 70.9489 107.654 71.2202 108.029C71.4836 108.412 71.6383 108.841 71.6842 109.316L72.0508 113.107C72.0975 113.59 72.0279 114.041 71.842 114.46C71.6483 114.888 71.3686 115.237 71.003 115.507C70.6381 115.786 70.2271 115.948 69.7699 115.992L64.2447 116.526C63.7789 116.571 63.3402 116.492 62.9286 116.288C62.5179 116.093 62.1808 115.803 61.9173 115.419C61.6547 115.044 61.5 114.615 61.4533 114.132L61.0866 110.341C61.0408 109.866 61.1104 109.415 61.2954 108.988C61.4814 108.57 61.7567 108.221 62.1216 107.942C62.4872 107.671 62.903 107.514 63.3688 107.469L68.894 106.934ZM64.6204 110.417C64.4996 110.429 64.4003 110.482 64.3223 110.576C64.2453 110.68 64.2134 110.8 64.2267 110.938L64.4257 112.996C64.439 113.134 64.4934 113.246 64.5889 113.332C64.6843 113.419 64.7924 113.456 64.9132 113.445L68.4975 113.098C68.6182 113.087 68.7215 113.029 68.8072 112.925C68.8843 112.821 68.9161 112.701 68.9028 112.563L68.7038 110.505C68.6905 110.367 68.6361 110.255 68.5407 110.168C68.4374 110.091 68.3254 110.059 68.2047 110.07L64.6204 110.417Z" fill="#CF1616"/>
<path d="M53.9183 115.261C53.9903 114.772 54.2096 114.384 54.5761 114.096C54.9414 113.817 55.377 113.715 55.8828 113.79C56.3887 113.864 56.7762 114.088 57.0454 114.46C57.3134 114.842 57.4113 115.277 57.3393 115.765C57.2673 116.254 57.0486 116.638 56.6833 116.917C56.3181 117.196 55.8825 117.298 55.3766 117.224C54.8708 117.149 54.4832 116.926 54.214 116.553C53.9448 116.18 53.8462 115.75 53.9183 115.261ZM51.2225 116.611C51.1539 116.601 51.102 116.567 51.0667 116.509C51.0314 116.452 51.0274 116.39 51.0547 116.324L55.121 106.923C55.1445 106.883 55.1753 106.852 55.2133 106.832C55.2514 106.811 55.2919 106.804 55.3348 106.81L55.6434 106.856C55.712 106.866 55.764 106.9 55.7993 106.958C55.826 107.014 55.8257 107.075 55.7984 107.141L51.734 116.529C51.6931 116.628 51.6212 116.67 51.5183 116.655L51.2225 116.611ZM55.7956 114.381C55.5041 114.338 55.2354 114.408 54.9894 114.591C54.7336 114.781 54.5824 115.035 54.5356 115.352C54.4876 115.678 54.5513 115.959 54.7267 116.195C54.9009 116.44 55.1466 116.585 55.4639 116.632C55.7811 116.679 56.0584 116.61 56.2958 116.426C56.5319 116.251 56.6739 116 56.722 115.674C56.77 115.348 56.7069 115.063 56.5327 114.819C56.3586 114.574 56.1129 114.428 55.7956 114.381ZM50.976 109.637C50.4701 109.562 50.0826 109.339 49.8134 108.966C49.5442 108.594 49.4456 108.163 49.5176 107.674C49.5896 107.185 49.8083 106.802 50.1736 106.522C50.5401 106.235 50.9763 106.128 51.4822 106.203C51.988 106.277 52.3749 106.505 52.6429 106.886C52.9121 107.259 53.0107 107.69 52.9386 108.178C52.8666 108.667 52.6479 109.051 52.2827 109.33C51.9174 109.609 51.4819 109.711 50.976 109.637ZM51.395 106.795C51.1034 106.752 50.8347 106.821 50.5888 107.004C50.333 107.194 50.1817 107.448 50.1349 107.765C50.0869 108.091 50.1506 108.372 50.3261 108.608C50.5002 108.853 50.746 108.998 51.0632 109.045C51.3804 109.092 51.6577 109.023 51.8951 108.839C52.1312 108.664 52.2733 108.413 52.3213 108.087C52.3693 107.762 52.3063 107.476 52.1321 107.232C51.9579 106.987 51.7122 106.841 51.395 106.795Z" fill="#CF1616"/>
<path d="M40.9572 113.302C40.9373 113.35 40.9047 113.383 40.8594 113.402C40.8141 113.421 40.7675 113.42 40.7194 113.401L37.2123 111.948C37.1643 111.928 37.1309 111.895 37.1121 111.85C37.0934 111.805 37.0939 111.758 37.1138 111.71L40.4567 103.639C40.4766 103.591 40.5092 103.558 40.5545 103.539C40.5998 103.52 40.6465 103.521 40.6945 103.541L42.9405 104.471C42.9886 104.491 43.022 104.523 43.0407 104.569C43.0595 104.614 43.0589 104.661 43.039 104.709L40.7656 110.197C40.7491 110.237 40.7501 110.28 40.7689 110.325C40.7844 110.379 40.8161 110.415 40.8641 110.435L41.789 110.818C41.837 110.838 41.8704 110.871 41.8892 110.916C41.9079 110.961 41.9074 111.008 41.8875 111.056L40.9572 113.302Z" fill="white"/>
<path d="M37.1527 102.011C37.5347 102.266 37.8229 102.599 38.0174 103.01C38.207 103.428 38.2884 103.868 38.2617 104.33C38.2229 104.794 38.0712 105.224 37.8065 105.62L35.6916 108.788C35.4221 109.192 35.083 109.497 34.6742 109.703C34.2534 109.912 33.8159 110.006 33.3616 109.984C32.9025 109.969 32.482 109.834 32.0999 109.579L27.4832 106.497C27.094 106.237 26.8046 105.898 26.615 105.479C26.4205 105.068 26.3427 104.631 26.3815 104.167C26.4154 103.71 26.5671 103.28 26.8366 102.876L28.9516 99.7085C29.2162 99.312 29.5553 99.007 29.9689 98.7933C30.3777 98.5869 30.8116 98.491 31.2707 98.5058C31.725 98.5277 32.1468 98.6686 32.536 98.9284L37.1527 102.011ZM31.6398 102.003C31.5389 101.936 31.4283 101.914 31.3081 101.938C31.1831 101.969 31.0821 102.043 31.0051 102.158L29.8574 103.877C29.7804 103.992 29.7515 104.114 29.7706 104.241C29.7898 104.369 29.8498 104.466 29.9507 104.533L32.9456 106.533C33.0465 106.6 33.1631 106.621 33.2953 106.594C33.4203 106.563 33.5213 106.49 33.5983 106.375L34.746 104.656C34.823 104.54 34.852 104.419 34.8328 104.291C34.8016 104.166 34.7356 104.07 34.6347 104.003L31.6398 102.003Z" fill="white"/>
<path d="M26.775 94.4079C27.0766 94.7544 27.2672 95.1515 27.3468 95.5993C27.4199 96.0528 27.3829 96.4986 27.2359 96.9369C27.0766 97.3743 26.8172 97.7495 26.4577 98.0625L23.5849 100.564C23.2189 100.882 22.8116 101.088 22.3629 101.179C21.902 101.27 21.4553 101.246 21.0228 101.105C20.5836 100.97 20.2133 100.73 19.9117 100.383L16.2667 96.1966C15.9594 95.8437 15.7692 95.4404 15.6962 94.9869C15.6166 94.5392 15.6564 94.0965 15.8156 93.6591C15.9684 93.2274 16.2277 92.8522 16.5938 92.5335L19.4666 90.0324C19.8261 89.7194 20.2334 89.5142 20.6886 89.4166C21.1373 89.3248 21.5811 89.3463 22.0202 89.4811C22.4528 89.6216 22.8227 89.8683 23.13 90.2213L26.775 94.4079ZM21.4576 92.9529C21.3779 92.8613 21.277 92.8114 21.1547 92.8029C21.0259 92.8001 20.9092 92.8443 20.8046 92.9353L19.2456 94.2926C19.1411 94.3836 19.0813 94.4931 19.0663 94.6211C19.0513 94.7491 19.0836 94.8588 19.1633 94.9503L21.5278 97.6662C21.6075 97.7578 21.7146 97.8082 21.8491 97.8175C21.9779 97.8202 22.0946 97.7761 22.1992 97.685L23.7581 96.3278C23.8627 96.2367 23.9225 96.1272 23.9375 95.9993C23.9403 95.8704 23.9018 95.7603 23.8221 95.6688L21.4576 92.9529Z" fill="white"/>
<path d="M11.3969 87.2058C11.8363 86.9801 12.2796 86.9326 12.7268 87.0634C13.1662 87.1982 13.5028 87.493 13.7364 87.9478C13.97 88.4027 14.0136 88.8479 13.8672 89.2837C13.7131 89.7233 13.4163 90.056 12.9769 90.2817C12.5374 90.5074 12.098 90.5529 11.6585 90.4182C11.2191 90.2834 10.8825 89.9886 10.6489 89.5338C10.4153 89.0789 10.3717 88.6336 10.5181 88.1979C10.6645 87.7622 10.9575 87.4315 11.3969 87.2058ZM8.73034 85.7987C8.69866 85.737 8.69605 85.675 8.72251 85.6127C8.74896 85.5504 8.79699 85.5111 8.86658 85.4949L18.8783 83.3337C18.9247 83.3293 18.9674 83.3366 19.0064 83.3555C19.0454 83.3745 19.0748 83.4032 19.0946 83.4418L19.2371 83.7193C19.2688 83.781 19.2714 83.843 19.2449 83.9053C19.2145 83.9599 19.1645 83.9953 19.0949 84.0116L9.09482 86.1668C8.99043 86.1912 8.91448 86.1572 8.86696 86.0647L8.73034 85.7987ZM13.2045 88.2211C13.0698 87.959 12.8567 87.781 12.5649 87.6873C12.2615 87.5898 11.9672 87.6143 11.682 87.7609C11.389 87.9113 11.1976 88.1266 11.1076 88.4067C11.0099 88.6907 11.0343 88.9753 11.1808 89.2605C11.3273 89.5458 11.5445 89.7314 11.8323 89.8174C12.1123 89.9074 12.3988 89.8772 12.6918 89.7267C12.9847 89.5762 13.18 89.359 13.2777 89.0749C13.3754 88.7909 13.351 88.5063 13.2045 88.2211ZM14.2598 81.5408C14.0262 81.086 13.9826 80.6407 14.129 80.205C14.2754 79.7693 14.5684 79.4385 15.0078 79.2128C15.4472 78.9871 15.8866 78.9416 16.3261 79.0764C16.7733 79.2072 17.1137 79.5 17.3473 79.9549C17.5809 80.4097 17.6207 80.857 17.4665 81.2966C17.3201 81.7323 17.0272 82.0631 16.5878 82.2888C16.1483 82.5145 15.7089 82.56 15.2694 82.4252C14.83 82.2904 14.4934 81.9956 14.2598 81.5408ZM16.8154 80.2281C16.6807 79.966 16.4676 79.7881 16.1758 79.6943C15.8724 79.5969 15.5781 79.6214 15.2929 79.7679C14.9999 79.9184 14.8085 80.1336 14.7185 80.4137C14.6208 80.6977 14.6452 80.9823 14.7917 81.2676C14.9382 81.5528 15.1554 81.7384 15.4432 81.8245C15.7232 81.9144 16.0097 81.8842 16.3027 81.7337C16.5956 81.5832 16.7909 81.366 16.8886 81.082C16.9863 80.798 16.9619 80.5133 16.8154 80.2281Z" fill="white"/>
<path d="M5.4838 75.637C5.43317 75.6489 5.38703 75.6419 5.34536 75.6161C5.30369 75.5902 5.27692 75.552 5.26504 75.5014L4.39802 71.8057C4.38615 71.7551 4.39313 71.709 4.41896 71.6673C4.44479 71.6256 4.48302 71.5988 4.53364 71.587L13.0387 69.5916C13.0894 69.5798 13.1355 69.5867 13.1772 69.6126C13.2188 69.6384 13.2456 69.6766 13.2575 69.7273L13.8127 72.094C13.8246 72.1446 13.8176 72.1908 13.7918 72.2324C13.766 72.2741 13.7277 72.3009 13.6771 72.3128L7.89315 73.6697C7.85096 73.6796 7.81695 73.7054 7.79112 73.7471C7.75685 73.7907 7.74565 73.8378 7.75753 73.8885L7.98616 74.863C7.99804 74.9136 7.99106 74.9598 7.96523 75.0014C7.93939 75.0431 7.90116 75.0699 7.85054 75.0818L5.4838 75.637Z" fill="#CF1616"/>
<path d="M12.4341 65.942C12.4501 66.401 12.3479 66.8295 12.1276 67.2274C11.8986 67.6256 11.589 67.9485 11.1987 68.1962C10.7994 68.4356 10.3616 68.5635 9.8852 68.5801L6.0785 68.7124C5.59346 68.7292 5.14781 68.632 4.74156 68.4206C4.32635 68.2009 3.99504 67.9002 3.74764 67.5186C3.49157 67.1373 3.35557 66.7171 3.33961 66.258L3.14684 60.7104C3.13058 60.2426 3.23695 59.8097 3.46592 59.4115C3.68624 59.0136 3.99603 58.695 4.39529 58.4556C4.78589 58.2166 5.22371 58.0886 5.70875 58.0718L9.51545 57.9395C9.99183 57.923 10.4375 58.0202 10.8524 58.2313C11.2586 58.4426 11.5898 58.739 11.8459 59.1203C12.0933 59.5019 12.2251 59.9266 12.2413 60.3943L12.4341 65.942ZM9.2216 61.4618C9.21739 61.3406 9.17047 61.2381 9.08084 61.1545C8.98256 61.0712 8.86412 61.032 8.72554 61.0368L6.65979 61.1086C6.5212 61.1134 6.40578 61.1608 6.31351 61.2507C6.22125 61.3406 6.17722 61.4462 6.18143 61.5675L6.30649 65.1663C6.3107 65.2876 6.3621 65.3942 6.46069 65.4861C6.55898 65.5695 6.67741 65.6087 6.81599 65.6039L8.88175 65.5321C9.02033 65.5273 9.13576 65.4799 9.22802 65.39C9.31133 65.2917 9.35087 65.1819 9.34666 65.0607L9.2216 61.4618Z" fill="#CF1616"/>
<path d="M12.555 52.8654C12.4467 53.3118 12.2329 53.6969 11.9135 54.0207C11.5857 54.3425 11.2005 54.5701 10.7579 54.7035C10.3089 54.8264 9.85283 54.8317 9.3896 54.7193L5.68801 53.8211C5.21637 53.7067 4.8134 53.493 4.47911 53.18C4.13844 52.8565 3.90039 52.4777 3.76495 52.0435C3.62109 51.6073 3.60332 51.166 3.71163 50.7196L5.02059 45.3251C5.13094 44.8703 5.35001 44.4821 5.6778 44.1603C5.99717 43.8364 6.38134 43.6131 6.83032 43.4901C7.27088 43.3652 7.72698 43.3599 8.19863 43.4744L11.9002 44.3725C12.3634 44.4849 12.7664 44.6987 13.1091 45.0137C13.4434 45.3267 13.6825 45.7013 13.8263 46.1375C13.9618 46.5717 13.9743 47.0162 13.864 47.471L12.555 52.8654ZM10.6683 47.6855C10.6969 47.5676 10.6793 47.4563 10.6155 47.3516C10.5433 47.2449 10.4398 47.1752 10.3051 47.1425L8.29635 46.6551C8.1616 46.6224 8.03768 46.6369 7.9246 46.6987C7.81151 46.7604 7.74067 46.8502 7.71206 46.9681L6.86292 50.4676C6.83431 50.5855 6.85509 50.702 6.92525 50.8172C6.99746 50.9239 7.10094 50.9936 7.2357 51.0263L9.24441 51.5137C9.37917 51.5464 9.50309 51.5318 9.61617 51.4701C9.72287 51.3979 9.79053 51.3028 9.81914 51.1849L10.6683 47.6855Z" fill="#CF1616"/>
<path d="M9.45201 36.3028C9.89059 36.5302 10.1861 36.8639 10.3387 37.3042C10.4835 37.7404 10.4382 38.1855 10.2029 38.6395C9.96759 39.0935 9.62995 39.387 9.19 39.5202C8.74234 39.6493 8.29923 39.6002 7.86065 39.3729C7.42207 39.1455 7.13037 38.8138 6.98555 38.3775C6.84073 37.9412 6.88598 37.4961 7.1213 37.0422C7.35661 36.5882 7.69425 36.2946 8.13421 36.1615C8.57416 36.0284 9.01343 36.0755 9.45201 36.3028ZM9.05367 33.3142C9.08558 33.2527 9.13459 33.2146 9.20069 33.2001C9.2668 33.1855 9.32665 33.2019 9.38022 33.2492L16.9429 40.1564C16.9734 40.1918 16.9922 40.2308 16.9994 40.2736C17.0065 40.3163 17.0001 40.3569 16.9802 40.3954L16.8366 40.6724C16.8047 40.7339 16.7557 40.772 16.6896 40.7865C16.6274 40.7934 16.5696 40.7731 16.516 40.7259L8.96483 33.8246C8.88446 33.7537 8.86821 33.672 8.91607 33.5797L9.05367 33.3142ZM9.67199 38.3643C9.8076 38.1027 9.82907 37.8259 9.73642 37.5338C9.64007 37.23 9.44954 37.0044 9.16485 36.8568C8.87246 36.7053 8.58607 36.6739 8.30569 36.7629C8.01761 36.8478 7.79978 37.0327 7.65221 37.3174C7.50464 37.6021 7.47917 37.8866 7.57581 38.171C7.66476 38.4514 7.85542 38.6673 8.14781 38.8189C8.4402 38.9704 8.73043 39.0037 9.01851 38.9188C9.30659 38.8338 9.52442 38.649 9.67199 38.3643ZM15.728 35.3535C15.9633 34.8995 16.3009 34.606 16.7409 34.4728C17.1808 34.3397 17.6201 34.3868 18.0587 34.6141C18.4972 34.8415 18.7889 35.1733 18.9338 35.6095C19.0863 36.0498 19.0449 36.4969 18.8096 36.9508C18.5742 37.4048 18.2328 37.6964 17.7851 37.8255C17.3452 37.9587 16.9059 37.9116 16.4673 37.6842C16.0287 37.4569 15.737 37.1251 15.5922 36.6888C15.4474 36.2526 15.4926 35.8075 15.728 35.3535ZM18.2786 36.6756C18.4143 36.414 18.4357 36.1372 18.3431 35.8451C18.2467 35.5414 18.0562 35.3157 17.7715 35.1681C17.4791 35.0166 17.1927 34.9853 16.9123 35.0742C16.6243 35.1592 16.4064 35.344 16.2589 35.6287C16.1113 35.9134 16.0858 36.1979 16.1825 36.4823C16.2714 36.7627 16.4621 36.9787 16.7545 37.1302C17.0469 37.2818 17.3371 37.3151 17.6252 37.2301C17.9132 37.1452 18.1311 36.9603 18.2786 36.6756Z" fill="#CF1616"/>
<path d="M15.5278 24.6382C15.4888 24.6038 15.4678 24.5621 15.4648 24.5132C15.4618 24.4642 15.4775 24.4203 15.5119 24.3813L18.0252 21.5365C18.0597 21.4976 18.1014 21.4766 18.1503 21.4735C18.1992 21.4705 18.2432 21.4862 18.2821 21.5206L24.829 27.3047C24.868 27.3392 24.889 27.3809 24.892 27.4298C24.8951 27.4787 24.8794 27.5227 24.8449 27.5616L23.2354 29.3835C23.2009 29.4224 23.1593 29.4434 23.1103 29.4465C23.0614 29.4495 23.0174 29.4338 22.9785 29.3994L18.5262 25.4658C18.4937 25.4371 18.453 25.4243 18.4041 25.4273C18.3487 25.4246 18.3037 25.4428 18.2693 25.4817L17.6065 26.2319C17.5721 26.2709 17.5304 26.2919 17.4815 26.2949C17.4326 26.2979 17.3886 26.2822 17.3496 26.2478L15.5278 24.6382Z" fill="white"/>
<path d="M27.3414 24.7635C26.977 25.0431 26.5688 25.2088 26.117 25.2606C25.6599 25.3054 25.2171 25.2409 24.7888 25.0671C24.3621 24.8811 24.0036 24.599 23.7135 24.2208L21.3949 21.1988C21.0994 20.8137 20.9198 20.3944 20.8559 19.941C20.7936 19.4754 20.8459 19.031 21.0129 18.608C21.1746 18.1781 21.4377 17.8233 21.8021 17.5437L26.2062 14.1647C26.5775 13.8798 26.9918 13.715 27.4489 13.6701C27.9008 13.6184 28.3401 13.6855 28.7668 13.8715C29.1882 14.0506 29.5467 14.3327 29.8421 14.7178L32.1607 17.7398C32.4508 18.118 32.6305 18.5372 32.6997 18.9976C32.7636 19.451 32.7147 19.8927 32.553 20.3227C32.386 20.7457 32.1168 21.0997 31.7455 21.3846L27.3414 24.7635ZM29.1227 19.5463C29.2189 19.4725 29.2751 19.3748 29.2911 19.2533C29.3018 19.1249 29.265 19.0057 29.1806 18.8957L27.9223 17.2557C27.8379 17.1457 27.7323 17.0793 27.6055 17.0564C27.4788 17.0335 27.3672 17.059 27.271 17.1329L24.414 19.3248C24.3177 19.3987 24.2608 19.5025 24.2432 19.6361C24.2324 19.7645 24.2693 19.8837 24.3537 19.9937L25.6119 21.6337C25.6963 21.7437 25.8019 21.8101 25.9287 21.833C26.0571 21.8437 26.1694 21.8122 26.2657 21.7383L29.1227 19.5463Z" fill="white"/>
<path d="M38.0864 17.2295C37.66 17.4005 37.2223 17.45 36.7733 17.378C36.321 17.2979 35.912 17.1165 35.5464 16.8336C35.1856 16.5394 34.9165 16.1711 34.7391 15.7287L33.3211 12.1935C33.1404 11.743 33.0805 11.2908 33.1412 10.8369C33.2067 10.3718 33.3769 9.95801 33.6518 9.59564C33.9234 9.22523 34.2724 8.95453 34.6987 8.78353L39.8507 6.71707C40.2851 6.54285 40.7284 6.49576 41.1807 6.5758C41.6298 6.64779 42.0348 6.83088 42.3955 7.12505C42.7531 7.41118 43.0222 7.77947 43.2029 8.22992L44.6208 11.7651C44.7983 12.2076 44.8583 12.6597 44.8008 13.1217C44.74 13.5756 44.5739 13.9877 44.3022 14.3581C44.0274 14.7205 43.6728 14.9888 43.2384 15.163L38.0864 17.2295ZM41.2082 12.6857C41.3209 12.6405 41.4013 12.5616 41.4494 12.4489C41.4944 12.3282 41.491 12.2034 41.4394 12.0747L40.6699 10.1563C40.6183 10.0276 40.5345 9.93514 40.4186 9.87892C40.3027 9.82271 40.1884 9.81718 40.0758 9.86235L36.7336 11.2029C36.621 11.2481 36.5382 11.3326 36.4852 11.4566C36.4403 11.5773 36.4436 11.7021 36.4952 11.8308L37.2647 13.7492C37.3163 13.8779 37.4001 13.9704 37.516 14.0266C37.6368 14.0715 37.7535 14.0714 37.8661 14.0262L41.2082 12.6857Z" fill="white"/>
<path d="M49.6219 5.10323C49.6921 5.59222 49.5925 6.02678 49.3231 6.4069C49.0524 6.77844 48.664 7.00052 48.1579 7.07315C47.6517 7.14577 47.2166 7.04186 46.8524 6.76141C46.487 6.47238 46.2692 6.08337 46.199 5.59438C46.1288 5.10539 46.2291 4.67512 46.4997 4.30358C46.7704 3.93204 47.1587 3.70996 47.6649 3.63734C48.171 3.56471 48.6062 3.66862 48.9704 3.94907C49.3346 4.22952 49.5518 4.61424 49.6219 5.10323ZM51.8213 3.04094C51.89 3.03109 51.9494 3.04883 51.9997 3.09415C52.05 3.13946 52.0715 3.19767 52.0641 3.26876L50.8442 13.4381C50.8332 13.4835 50.8123 13.5215 50.7817 13.5522C50.7511 13.5828 50.7143 13.6012 50.6714 13.6074L50.3626 13.6517C50.294 13.6615 50.2345 13.6438 50.1842 13.5985C50.1425 13.5519 50.1253 13.4931 50.1327 13.422L51.3545 3.26552C51.3655 3.15888 51.4224 3.09818 51.5254 3.08341L51.8213 3.04094ZM48.073 6.48121C48.3646 6.43936 48.6023 6.29581 48.786 6.05057C48.9771 5.79551 49.0498 5.50928 49.0043 5.19186C48.9575 4.86587 48.8164 4.6147 48.581 4.43835C48.3443 4.25342 48.0672 4.18373 47.7498 4.22927C47.4324 4.27482 47.1861 4.4196 47.011 4.66361C46.8347 4.89904 46.7699 5.17976 46.8167 5.50575C46.8634 5.83175 47.0052 6.08721 47.2418 6.27214C47.4785 6.45706 47.7555 6.52675 48.073 6.48121ZM54.0445 9.65625C54.5506 9.58362 54.9858 9.68754 55.35 9.96799C55.7142 10.2484 55.9313 10.6332 56.0015 11.1221C56.0717 11.6111 55.9714 12.0414 55.7008 12.4129C55.4314 12.7931 55.0436 13.0194 54.5374 13.0921C54.0313 13.1647 53.5955 13.0565 53.2301 12.7675C52.8659 12.487 52.6487 12.1023 52.5786 11.6133C52.5084 11.1243 52.6086 10.694 52.8793 10.3225C53.1499 9.95096 53.5383 9.72888 54.0445 9.65625ZM54.4525 12.5001C54.7442 12.4583 54.9819 12.3147 55.1656 12.0695C55.3566 11.8144 55.4294 11.5282 55.3838 11.2108C55.337 10.8848 55.1959 10.6336 54.9605 10.4573C54.7238 10.2723 54.4468 10.2026 54.1294 10.2482C53.812 10.2937 53.5657 10.4385 53.3906 10.6825C53.2142 10.918 53.1495 11.1987 53.1962 11.5247C53.243 11.8507 53.3847 12.1061 53.6214 12.2911C53.8581 12.476 54.1351 12.5457 54.4525 12.5001Z" fill="white"/>
<path d="M62.8327 3.23764C62.8381 3.18592 62.8599 3.14462 62.8979 3.11374C62.936 3.08287 62.9809 3.07013 63.0326 3.07553L66.8081 3.46996C66.8598 3.47536 66.9011 3.4971 66.932 3.53519C66.9629 3.57327 66.9756 3.61817 66.9702 3.66989L66.0625 12.3586C66.0571 12.4103 66.0353 12.4516 65.9972 12.4825C65.9592 12.5134 65.9143 12.5261 65.8625 12.5207L63.4447 12.2681C63.393 12.2627 63.3517 12.241 63.3208 12.2029C63.2899 12.1648 63.2772 12.1199 63.2826 12.0682L63.8999 6.15934C63.9044 6.11624 63.8912 6.07565 63.8603 6.03757C63.8304 5.99087 63.7895 5.96482 63.7378 5.95941L62.7422 5.8554C62.6905 5.85 62.6492 5.82826 62.6183 5.79018C62.5875 5.7521 62.5747 5.7072 62.5801 5.65548L62.8327 3.23764Z" fill="#CF1616"/>
<path d="M70.3356 13.0029C69.8971 12.8661 69.5266 12.6279 69.224 12.2883C68.924 11.9405 68.7217 11.5415 68.6171 11.0912C68.5233 10.6352 68.5475 10.1797 68.6895 9.7247L69.8242 6.08864C69.9687 5.62534 70.208 5.23697 70.5418 4.92353C70.8865 4.6044 71.2799 4.39124 71.7219 4.28404C72.1665 4.16857 72.608 4.17926 73.0465 4.31609L78.3455 5.96973C78.7922 6.10915 79.1656 6.35277 79.4656 6.7006C79.7682 7.04016 79.9664 7.43792 80.0601 7.89389C80.1565 8.34158 80.1323 8.79707 79.9877 9.26037L78.8531 12.8964C78.7111 13.3515 78.4718 13.7398 78.1354 14.0615C77.8015 14.375 77.4123 14.5894 76.9677 14.7049C76.5257 14.8121 76.0813 14.796 75.6346 14.6566L70.3356 13.0029ZM75.6263 11.4537C75.7422 11.4898 75.8544 11.4795 75.9629 11.4225C76.074 11.3574 76.1503 11.2586 76.1916 11.1262L76.8073 9.15305C76.8486 9.02068 76.8421 8.89608 76.7878 8.77926C76.7335 8.66244 76.6484 8.58595 76.5326 8.54981L73.095 7.47707C72.9792 7.44093 72.8616 7.45416 72.7422 7.51676C72.6311 7.58195 72.5549 7.68073 72.5135 7.8131L71.8978 9.78625C71.8565 9.91862 71.863 10.0432 71.9173 10.16C71.9825 10.2712 72.073 10.3448 72.1888 10.381L75.6263 11.4537Z" fill="#CF1616"/>
<path d="M82.1097 17.3816C81.7239 17.1322 81.4309 16.8034 81.2304 16.3951C81.0347 15.9795 80.9468 15.5409 80.9668 15.079C80.9987 14.6146 81.1441 14.1823 81.403 13.782L83.4712 10.5834C83.7348 10.1759 84.0694 9.8659 84.4751 9.65348C84.8927 9.43849 85.3289 9.33863 85.7834 9.3539C86.2427 9.36189 86.6652 9.49059 87.0509 9.74001L91.7123 12.7542C92.1053 13.0083 92.3996 13.3431 92.5954 13.7587C92.7958 14.1669 92.88 14.6033 92.8481 15.0677C92.8208 15.5248 92.6754 15.9571 92.4119 16.3647L90.3436 19.5633C90.0848 19.9635 89.7502 20.2735 89.3398 20.4932C88.9341 20.7056 88.5016 20.8078 88.0424 20.7999C87.5878 20.7846 87.164 20.6499 86.771 20.3958L82.1097 17.3816ZM87.622 17.308C87.7239 17.3739 87.8348 17.394 87.9546 17.3683C88.0792 17.3353 88.1791 17.2605 88.2544 17.1441L89.3768 15.4084C89.4521 15.2919 89.4792 15.1701 89.4582 15.043C89.4372 14.9159 89.3757 14.8194 89.2738 14.7535L86.2499 12.7982C86.1481 12.7323 86.0312 12.7135 85.8994 12.7418C85.7748 12.7748 85.6749 12.8495 85.5996 12.966L84.4773 14.7017C84.402 14.8182 84.3748 14.9399 84.3958 15.0671C84.4288 15.1916 84.4963 15.2868 84.5982 15.3527L87.622 17.308Z" fill="#CF1616"/>
<path d="M98.7381 19.8652C98.38 20.2055 97.968 20.3758 97.5021 20.3763C97.0425 20.3707 96.6366 20.1826 96.2843 19.8119C95.9321 19.4413 95.7648 19.0263 95.7827 18.567C95.8067 18.1017 95.9978 17.6989 96.3559 17.3586C96.714 17.0183 97.1229 16.8509 97.5825 16.8565C98.0421 16.862 98.448 17.0501 98.8003 17.4208C99.1526 17.7914 99.3198 18.2064 99.302 18.6657C99.2841 19.125 99.0962 19.5249 98.7381 19.8652ZM101.693 20.4645C101.741 20.5147 101.761 20.5735 101.753 20.6407C101.745 20.7079 101.71 20.7592 101.648 20.7944L92.6498 25.6873C92.6065 25.7046 92.5634 25.7096 92.5207 25.7024C92.478 25.6952 92.4417 25.6759 92.4118 25.6444L92.1969 25.4183C92.1491 25.368 92.1292 25.3093 92.137 25.242C92.1508 25.1811 92.1888 25.133 92.251 25.0978L101.24 20.2139C101.333 20.1611 101.415 20.1724 101.487 20.2477L101.693 20.4645ZM96.7178 19.4C96.9208 19.6136 97.1754 19.7243 97.4817 19.7321C97.8003 19.7402 98.0758 19.6338 98.3083 19.4129C98.547 19.186 98.6701 18.9255 98.6776 18.6315C98.6913 18.3314 98.5877 18.0652 98.3668 17.8327C98.1459 17.6003 97.8853 17.4833 97.585 17.4818C97.2909 17.4743 97.0245 17.584 96.7858 17.8109C96.5471 18.0378 96.4208 18.3012 96.4071 18.6013C96.3933 18.9013 96.4969 19.1675 96.7178 19.4ZM97.5862 26.1071C97.9385 26.4778 98.1057 26.8927 98.0879 27.352C98.0701 27.8114 97.8821 28.2112 97.524 28.5515C97.166 28.8918 96.7571 29.0592 96.2975 29.0536C95.8316 29.054 95.4225 28.8689 95.0702 28.4983C94.718 28.1276 94.5539 27.7097 94.578 27.2444C94.5958 26.7851 94.7838 26.3852 95.1418 26.0449C95.4999 25.7046 95.9088 25.5372 96.3684 25.5428C96.828 25.5484 97.234 25.7365 97.5862 26.1071ZM95.5037 28.0863C95.7067 28.2999 95.9614 28.4106 96.2677 28.4184C96.5862 28.4265 96.8617 28.3201 97.0942 28.0992C97.3329 27.8723 97.456 27.6118 97.4635 27.3178C97.4772 27.0177 97.3737 26.7515 97.1528 26.5191C96.9319 26.2866 96.6712 26.1697 96.3709 26.1681C96.0768 26.1607 95.8104 26.2704 95.5717 26.4972C95.333 26.7241 95.2068 26.9876 95.193 27.2876C95.1792 27.5876 95.2828 27.8539 95.5037 28.0863Z" fill="#CF1616"/>
</svg>
