<svg width="90" height="93" viewBox="0 0 90 93" fill="none" xmlns="http://www.w3.org/2000/svg">
<path d="M86.5374 60.1667C86.5858 60.1857 86.6198 60.2176 86.6394 60.2626C86.659 60.3075 86.6593 60.3542 86.6403 60.4026L85.2536 63.9362C85.2346 63.9846 85.2027 64.0186 85.1577 64.0382C85.1128 64.0579 85.0661 64.0582 85.0177 64.0392L76.8855 60.8478C76.8371 60.8288 76.8031 60.7969 76.7835 60.7519C76.7639 60.707 76.7635 60.6603 76.7825 60.6119L77.6706 58.3489C77.6896 58.3005 77.7216 58.2665 77.7665 58.2469C77.8114 58.2273 77.8581 58.227 77.9065 58.246L83.4369 60.4163C83.4773 60.4321 83.5199 60.4302 83.5648 60.4106C83.6178 60.3942 83.6538 60.3618 83.6728 60.3134L84.0385 59.3815C84.0575 59.3331 84.0895 59.2991 84.1344 59.2795C84.1793 59.2599 84.226 59.2596 84.2744 59.2786L86.5374 60.1667Z" fill="#1A1A1A"/>
<path d="M84.3973 65.4376C84.4428 65.4627 84.4724 65.4988 84.486 65.5459C84.4996 65.593 84.4939 65.6393 84.4688 65.6849L82.6352 69.0087C82.6101 69.0542 82.574 69.0838 82.5269 69.0974C82.4798 69.111 82.4335 69.1053 82.388 69.0802L74.7386 64.8605C74.6931 64.8354 74.6635 64.7993 74.6499 64.7522C74.6363 64.7051 74.6421 64.6588 74.6672 64.6133L75.8414 62.4847C75.8665 62.4391 75.9026 62.4095 75.9497 62.3959C75.9968 62.3823 76.0431 62.3881 76.0887 62.4132L81.2907 65.2828C81.3286 65.3037 81.3711 65.3074 81.4182 65.2938C81.4729 65.2844 81.5128 65.2569 81.5379 65.2113L82.0214 64.3349C82.0466 64.2893 82.0827 64.2598 82.1298 64.2461C82.1769 64.2325 82.2232 64.2383 82.2687 64.2634L84.3973 65.4376Z" fill="#1A1A1A"/>
<path d="M78.1683 70.7407C78.6446 70.2132 79.201 69.9333 79.8375 69.9009C80.4741 69.8685 81.085 70.1166 81.6703 70.6452C82.0626 70.9995 82.3306 71.3817 82.4742 71.7916C82.6178 72.2016 82.6416 72.6084 82.5456 73.0121C82.4437 73.4223 82.2389 73.7979 81.931 74.1388C81.6231 74.4796 81.2733 74.7184 80.8814 74.8549C80.4837 74.9979 80.0736 75.0188 79.6512 74.9175C79.2288 74.8163 78.8214 74.5886 78.429 74.2342C77.8437 73.7056 77.5349 73.1231 77.5025 72.4866C77.47 71.8501 77.692 71.2681 78.1683 70.7407ZM78.2535 78.0169L76.781 79.6474L74.1922 68.9366L75.6647 67.3061L78.2535 78.0169ZM79.2103 71.6817C79.0999 71.8039 79.0742 71.9617 79.1331 72.155C79.1927 72.3606 79.3704 72.597 79.6663 72.8642C79.9622 73.1314 80.2122 73.2813 80.4163 73.3139C80.6211 73.3587 80.7787 73.32 80.889 73.1977C80.9994 73.0755 81.0248 72.9116 80.9652 72.706C80.9063 72.5127 80.7289 72.2824 80.433 72.0152C80.1372 71.748 79.8868 71.592 79.6821 71.5472C79.4779 71.5146 79.3207 71.5595 79.2103 71.6817ZM70.5147 72.8148C70.991 72.2873 71.5474 72.0074 72.1839 71.975C72.8205 71.9426 73.4314 72.1907 74.0167 72.7193C74.409 73.0736 74.677 73.4558 74.8206 73.8657C74.9642 74.2757 74.988 74.6825 74.8919 75.0862C74.7901 75.4964 74.5853 75.872 74.2774 76.2129C73.9695 76.5537 73.6197 76.7925 73.2278 76.929C72.83 77.072 72.42 77.0929 71.9976 76.9916C71.5752 76.8904 71.1678 76.6627 70.7754 76.3083C70.1901 75.7797 69.8813 75.1972 69.8488 74.5607C69.8164 73.9242 70.0384 73.3422 70.5147 72.8148ZM71.5567 73.7558C71.4463 73.878 71.4206 74.0358 71.4795 74.2291C71.5391 74.4347 71.7168 74.6711 72.0127 74.9383C72.3085 75.2055 72.5586 75.3554 72.7627 75.388C72.9675 75.4328 73.1251 75.394 73.2354 75.2718C73.3458 75.1496 73.3712 74.9857 73.3116 74.7801C73.2527 74.5868 73.0753 74.3565 72.7794 74.0893C72.4835 73.8221 72.2332 73.6661 72.0285 73.6213C71.8243 73.5887 71.667 73.6336 71.5567 73.7558Z" fill="#1A1A1A"/>
<path d="M60.7337 83.551L62.6417 82.5709L61.6913 80.7207L63.7728 79.6515L64.7232 81.5017L66.6312 80.5217L67.6409 82.4875L65.7329 83.4676L66.6833 85.3177L64.6018 86.3869L63.6515 84.5367L61.7435 85.5168L60.7337 83.551Z" fill="#CF1616"/>
<path d="M52.3202 91.7468L50.5469 82.8212L53.5561 82.2234L54.8785 88.8793L56.4085 88.5754L56.8595 90.845L52.3202 91.7468Z" fill="#CF1616"/>
<path d="M45.4563 92.3344L45.0351 83.2441L48.0998 83.1021L48.4139 89.8808L49.9723 89.8086L50.0794 92.1201L45.4563 92.3344Z" fill="#CF1616"/>
<path d="M40.9829 87.393C41.6799 87.5315 42.2056 87.8657 42.5598 88.3955C42.914 88.9254 43.0143 89.5771 42.8606 90.3506C42.7576 90.8692 42.5669 91.2952 42.2886 91.6287C42.0103 91.9622 41.6732 92.1912 41.2773 92.3158C40.8729 92.4387 40.4455 92.4554 39.995 92.3659C39.5444 92.2764 39.1601 92.0984 38.8419 91.8319C38.5152 91.5638 38.287 91.2225 38.1573 90.8079C38.0276 90.3934 38.0143 89.9268 38.1173 89.4083C38.271 88.6347 38.6127 88.0709 39.1426 87.7166C39.6724 87.3624 40.2859 87.2546 40.9829 87.393ZM34.7797 91.1972L32.6248 90.7691L40.4929 83.0544L42.6478 83.4825L34.7797 91.1972ZM40.7093 88.7701C40.5478 88.738 40.3992 88.7969 40.2634 88.9466C40.1174 89.1032 40.0056 89.377 39.9279 89.768C39.8502 90.159 39.8497 90.4505 39.9265 90.6425C39.993 90.8413 40.107 90.9567 40.2685 90.9888C40.4301 91.0209 40.5838 90.9586 40.7298 90.8021C40.8656 90.6523 40.9723 90.3819 41.05 89.9909C41.1277 89.5999 41.1332 89.305 41.0667 89.1062C40.99 88.9142 40.8708 88.8022 40.7093 88.7701ZM35.2777 81.8858C35.9747 82.0242 36.5004 82.3584 36.8546 82.8882C37.2088 83.4181 37.3091 84.0698 37.1554 84.8433C37.0524 85.3619 36.8617 85.7879 36.5834 86.1214C36.305 86.4549 35.968 86.6839 35.5721 86.8085C35.1677 86.9314 34.7403 86.9481 34.2898 86.8586C33.8392 86.7691 33.4549 86.5911 33.1367 86.3247C32.81 86.0565 32.5818 85.7152 32.4521 85.3006C32.3224 84.8861 32.3091 84.4195 32.4121 83.901C32.5658 83.1274 32.9075 82.5636 33.4374 82.2094C33.9672 81.8551 34.5806 81.7473 35.2777 81.8858ZM35.0041 83.2628C34.8426 83.2308 34.694 83.2896 34.5582 83.4393C34.4122 83.5959 34.3004 83.8697 34.2227 84.2607C34.145 84.6517 34.1445 84.9432 34.2213 85.1352C34.2878 85.334 34.4018 85.4494 34.5633 85.4815C34.7248 85.5136 34.8786 85.4513 35.0246 85.2948C35.1603 85.145 35.2671 84.8747 35.3448 84.4836C35.4224 84.0926 35.428 83.7977 35.3615 83.5989C35.2847 83.407 35.1656 83.2949 35.0041 83.2628Z" fill="#CF1616"/>
<path d="M21.0726 78.9528L22.8865 80.0977L23.9967 78.3387L25.9755 79.5876L24.8654 81.3465L26.6793 82.4914L25.4998 84.3603L23.6859 83.2155L22.5757 84.9744L20.5969 83.7255L21.707 81.9666L19.8931 80.8217L21.0726 78.9528Z" fill="#1A1A1A"/>
<path d="M9.73903 75.9416L16.4926 69.8425L18.5489 72.1194L13.5126 76.6676L14.5582 77.8254L12.8409 79.3763L9.73903 75.9416Z" fill="#1A1A1A"/>
<path d="M5.71387 70.3578L13.3007 65.3328L14.9948 67.8906L9.33722 71.6378L10.1986 72.9384L8.26943 74.2162L5.71387 70.3578Z" fill="#1A1A1A"/>
<path d="M7.73315 64.1321C7.97279 64.8012 7.95645 65.4238 7.68415 66C7.41184 66.5763 6.90445 66.9974 6.16197 67.2633C5.66427 67.4416 5.20085 67.4971 4.77171 67.4299C4.34257 67.3626 3.9728 67.1913 3.6624 66.9158C3.34908 66.6322 3.11497 66.2742 2.96009 65.8417C2.8052 65.4093 2.76021 64.9881 2.82513 64.5782C2.88713 64.1602 3.06255 63.7889 3.35142 63.4645C3.64028 63.1401 4.03356 62.8888 4.53126 62.7105C5.27374 62.4446 5.9331 62.4478 6.50934 62.7201C7.08557 62.9924 7.49351 63.4631 7.73315 64.1321ZM1.2808 60.7678L0.539971 58.6995L11.2024 61.481L11.9432 63.5493L1.2808 60.7678ZM6.41138 64.6055C6.35585 64.4505 6.22896 64.3533 6.03071 64.3138C5.82138 64.2691 5.52906 64.314 5.15374 64.4484C4.77842 64.5829 4.52817 64.7323 4.40298 64.8968C4.2667 65.0561 4.22633 65.2133 4.28186 65.3683C4.33738 65.5233 4.46981 65.6232 4.67914 65.6679C4.87739 65.7073 5.16418 65.6599 5.5395 65.5254C5.91481 65.391 6.17061 65.2441 6.30688 65.0849C6.43207 64.9203 6.4669 64.7606 6.41138 64.6055ZM9.5231 56.4071C9.76273 57.0762 9.7464 57.6988 9.47409 58.275C9.20179 58.8513 8.69439 59.2724 7.95192 59.5383C7.45421 59.7166 6.99079 59.7721 6.56166 59.7048C6.13252 59.6376 5.76275 59.4663 5.45235 59.1908C5.13903 58.9072 4.90492 58.5491 4.75003 58.1167C4.59515 57.6843 4.55016 57.2631 4.61508 56.8532C4.67707 56.4352 4.8525 56.0639 5.14136 55.7395C5.43022 55.4151 5.82351 55.1638 6.32121 54.9855C7.06369 54.7196 7.72304 54.7228 8.29928 54.9951C8.87552 55.2674 9.28346 55.7381 9.5231 56.4071ZM8.20132 56.8805C8.1458 56.7255 8.01891 56.6283 7.82066 56.5888C7.61133 56.5441 7.319 56.589 6.94369 56.7234C6.56837 56.8578 6.31811 57.0073 6.19292 57.1718C6.05665 57.3311 6.01628 57.4883 6.0718 57.6433C6.12733 57.7983 6.25976 57.8982 6.46909 57.9429C6.66734 57.9823 6.95413 57.9348 7.32944 57.8004C7.70476 57.666 7.96056 57.5191 8.09683 57.3598C8.22202 57.1953 8.25685 57.0356 8.20132 56.8805Z" fill="#1A1A1A"/>
<path d="M4.72387 42.6207L4.67419 44.7652L6.75364 44.8133L6.69945 47.1527L4.62001 47.1045L4.57034 49.2489L2.36093 49.1978L2.4106 47.0533L0.331157 47.0052L0.385345 44.6658L2.46479 44.714L2.51446 42.5695L4.72387 42.6207Z" fill="#CF1616"/>
<path d="M1.48351 31.3299L10.1805 34.0079L9.27764 36.9401L2.79215 34.943L2.33305 36.4339L0.121527 35.753L1.48351 31.3299Z" fill="#CF1616"/>
<path d="M4.18464 25.0794L12.3844 29.0257L11.0539 31.7902L4.93924 28.8474L4.26272 30.2531L2.17763 29.2496L4.18464 25.0794Z" fill="#CF1616"/>
<path d="M10.6402 23.4997C10.1874 24.0474 9.6437 24.3513 9.0092 24.4115C8.37471 24.4717 7.75355 24.2505 7.14574 23.7479C6.7383 23.411 6.4539 23.041 6.29255 22.6377C6.1312 22.2344 6.08969 21.829 6.16801 21.4214C6.25185 21.0072 6.44012 20.6231 6.73281 20.2691C7.0255 19.9151 7.36463 19.6613 7.7502 19.5078C8.14129 19.3476 8.55005 19.3088 8.97648 19.3915C9.40291 19.4742 9.81985 19.684 10.2273 20.0209C10.8351 20.5234 11.1691 21.0919 11.2292 21.7264C11.2894 22.3609 11.0931 22.952 10.6402 23.4997ZM10.2376 16.2341L11.6376 14.5409L14.6912 25.1286L13.2913 26.8218L10.2376 16.2341ZM9.55816 22.6051C9.66309 22.4782 9.68189 22.3194 9.61458 22.1288C9.5461 21.926 9.35824 21.6976 9.05099 21.4436C8.74375 21.1895 8.48743 21.0507 8.28205 21.0271C8.07552 20.9913 7.91979 21.0368 7.81486 21.1637C7.70993 21.2906 7.69171 21.4555 7.76018 21.6583C7.8275 21.8489 8.01478 22.0712 8.32203 22.3252C8.62927 22.5793 8.88617 22.7242 9.0927 22.76C9.29808 22.7836 9.45323 22.732 9.55816 22.6051ZM18.196 21.0936C17.7432 21.6413 17.1995 21.9452 16.565 22.0054C15.9305 22.0656 15.3094 21.8444 14.7016 21.3418C14.2941 21.0049 14.0097 20.6349 13.8484 20.2316C13.687 19.8283 13.6455 19.4229 13.7238 19.0153C13.8077 18.6011 13.9959 18.217 14.2886 17.863C14.5813 17.509 14.9204 17.2552 15.306 17.1017C15.6971 16.9415 16.1059 16.9027 16.5323 16.9854C16.9587 17.0681 17.3757 17.2779 17.7831 17.6148C18.3909 18.1173 18.7249 18.6858 18.7851 19.3203C18.8452 19.9548 18.6489 20.5459 18.196 21.0936ZM17.114 20.199C17.2189 20.0721 17.2377 19.9133 17.1704 19.7227C17.1019 19.5199 16.9141 19.2915 16.6068 19.0374C16.2996 18.7834 16.0432 18.6446 15.8379 18.621C15.6313 18.5851 15.4756 18.6307 15.3707 18.7576C15.2657 18.8845 15.2475 19.0494 15.316 19.2522C15.3833 19.4428 15.5706 19.6651 15.8778 19.9191C16.1851 20.1732 16.442 20.3181 16.6485 20.3539C16.8539 20.3775 17.009 20.3259 17.114 20.199Z" fill="#CF1616"/>
<path d="M27.3279 10.0225L25.4652 11.0862L26.4966 12.8924L24.4646 14.0528L23.4331 12.2465L21.5704 13.3102L20.4745 11.391L22.3372 10.3274L21.3058 8.52113L23.3378 7.36076L24.3693 9.16701L26.232 8.10335L27.3279 10.0225Z" fill="#1A1A1A"/>
<path d="M35.347 1.40545L37.5265 10.2406L34.5478 10.9754L32.9225 4.38689L31.4079 4.76051L30.8537 2.51386L35.347 1.40545Z" fill="#1A1A1A"/>
<path d="M42.08 0.492354L42.921 9.55341L39.8662 9.83695L39.239 3.07999L37.6857 3.22416L37.4719 0.920062L42.08 0.492354Z" fill="#1A1A1A"/>
<path d="M46.8791 5.18968C46.1764 5.08335 45.636 4.77367 45.2578 4.26065C44.8797 3.74763 44.7496 3.10122 44.8676 2.32143C44.9467 1.79872 45.1176 1.3644 45.3803 1.01848C45.643 0.672559 45.9692 0.428286 46.359 0.285659C46.7573 0.144329 47.1835 0.108027 47.6377 0.176753C48.0918 0.24548 48.4839 0.405619 48.814 0.657171C49.1527 0.91002 49.3963 1.24053 49.5449 1.64869C49.6935 2.05685 49.7282 2.52229 49.6491 3.045C49.5311 3.82479 49.2156 4.40377 48.7026 4.78193C48.1896 5.1601 47.5817 5.29601 46.8791 5.18968ZM52.9011 1.10472L55.0733 1.43344L47.5677 9.50125L45.3954 9.17253L52.9011 1.10472ZM47.0891 3.80149C47.252 3.82612 47.3977 3.76053 47.5265 3.60471C47.6651 3.44162 47.7643 3.16298 47.8239 2.7688C47.8836 2.37462 47.8707 2.08341 47.7852 1.89517C47.7096 1.69966 47.5904 1.58959 47.4276 1.56495C47.2648 1.54031 47.114 1.60954 46.9754 1.77263C46.8467 1.92845 46.7524 2.20345 46.6928 2.59763C46.6332 2.99181 46.6411 3.28666 46.7167 3.48217C46.8022 3.67041 46.9263 3.77685 47.0891 3.80149ZM52.8311 10.4292C52.1285 10.3229 51.588 10.0132 51.2099 9.50019C50.8317 8.98717 50.7016 8.34076 50.8196 7.56097C50.8987 7.03825 51.0696 6.60394 51.3324 6.25802C51.5951 5.9121 51.9213 5.66783 52.311 5.5252C52.7093 5.38387 53.1355 5.34757 53.5897 5.41629C54.0439 5.48502 54.436 5.64516 54.7661 5.89671C55.1047 6.14956 55.3483 6.48006 55.4969 6.88823C55.6455 7.29639 55.6803 7.76183 55.6012 8.28454C55.4832 9.06433 55.1677 9.64331 54.6547 10.0215C54.1416 10.3996 53.5338 10.5356 52.8311 10.4292ZM53.0412 9.04103C53.204 9.06566 53.3498 9.00007 53.4786 8.84425C53.6172 8.68116 53.7163 8.40252 53.776 8.00834C53.8356 7.61416 53.8227 7.32295 53.7372 7.13471C53.6617 6.9392 53.5424 6.82913 53.3796 6.80449C53.2168 6.77985 53.0661 6.84908 52.9275 7.01217C52.7987 7.16799 52.7045 7.44299 52.6448 7.83717C52.5852 8.23135 52.5932 8.5262 52.6688 8.72171C52.7542 8.90995 52.8784 9.01639 53.0412 9.04103Z" fill="#1A1A1A"/>
<path d="M67.2871 12.7341L65.4244 11.6705L64.3929 13.4767L62.3609 12.3163L63.3923 10.5101L61.5296 9.44642L62.6255 7.52728L64.4882 8.59095L65.5197 6.7847L67.5517 7.94506L66.5203 9.75131L68.383 10.815L67.2871 12.7341Z" fill="#CF1616"/>
<path d="M78.7536 15.2368L72.2723 21.6246L70.1188 19.4395L74.9519 14.676L73.8569 13.565L75.505 11.9407L78.7536 15.2368Z" fill="#CF1616"/>
<path d="M83.0305 20.6396L75.6715 25.9927L73.8667 23.5117L79.3544 19.5198L78.4367 18.2583L80.308 16.8971L83.0305 20.6396Z" fill="#CF1616"/>
<path d="M81.289 26.9307C81.0195 26.2731 81.0078 25.6504 81.254 25.0625C81.5001 24.4746 81.988 24.0311 82.7178 23.732C83.207 23.5315 83.6674 23.4552 84.0991 23.5031C84.5309 23.551 84.908 23.7055 85.2304 23.9667C85.5562 24.236 85.8062 24.5831 85.9804 25.0081C86.1545 25.4332 86.2184 25.8519 86.172 26.2643C86.1289 26.6847 85.9703 27.0634 85.6963 27.4005C85.4224 27.7376 85.0408 28.0063 84.5516 28.2068C83.8218 28.5059 83.163 28.5324 82.5751 28.2862C81.9872 28.0401 81.5585 27.5883 81.289 26.9307ZM87.8861 30.0014L88.7193 32.0343L77.9425 29.7351L77.1094 27.7022L87.8861 30.0014ZM82.5882 26.3983C82.6506 26.5507 82.7817 26.6421 82.9816 26.6726C83.1927 26.7078 83.4827 26.6499 83.8516 26.4987C84.2205 26.3475 84.4638 26.1869 84.5814 26.017C84.7104 25.8517 84.7437 25.6929 84.6812 25.5405C84.6188 25.3882 84.482 25.2944 84.2709 25.2591C84.071 25.2286 83.7867 25.289 83.4178 25.4401C83.0489 25.5913 82.8 25.7495 82.671 25.9148C82.5533 26.0847 82.5257 26.2459 82.5882 26.3983ZM79.8483 34.7284C79.5788 34.0708 79.5672 33.4481 79.8133 32.8601C80.0594 32.2722 80.5473 31.8288 81.2771 31.5297C81.7663 31.3292 82.2267 31.2529 82.6584 31.3008C83.0902 31.3486 83.4673 31.5032 83.7898 31.7644C84.1155 32.0337 84.3655 32.3808 84.5397 32.8058C84.7138 33.2309 84.7777 33.6496 84.7313 34.062C84.6882 34.4824 84.5296 34.8611 84.2556 35.1982C83.9817 35.5353 83.6001 35.804 83.1109 36.0045C82.3811 36.3036 81.7223 36.3301 81.1344 36.0839C80.5465 35.8378 80.1178 35.386 79.8483 34.7284ZM81.1475 34.196C81.2099 34.3484 81.341 34.4398 81.5409 34.4703C81.752 34.5055 82.042 34.4476 82.4109 34.2964C82.7798 34.1452 83.0231 33.9846 83.1407 33.8147C83.2697 33.6494 83.303 33.4906 83.2405 33.3382C83.1781 33.1859 83.0413 33.0921 82.8302 33.0568C82.6303 33.0263 82.346 33.0867 81.9771 33.2378C81.6082 33.389 81.3593 33.5472 81.2303 33.7125C81.1126 33.8824 81.085 34.0436 81.1475 34.196Z" fill="#CF1616"/>
<path d="M84.2724 50.2139L84.2228 48.0695L82.1433 48.1176L82.0891 45.7783L84.1686 45.7301L84.1189 43.5857L86.3283 43.5345L86.378 45.6789L88.4574 45.6308L88.5116 47.9701L86.4322 48.0183L86.4818 50.1627L84.2724 50.2139Z" fill="#1A1A1A"/>
</svg>
