<svg width="163" height="53" viewBox="0 0 163 53" fill="none" xmlns="http://www.w3.org/2000/svg">
<path d="M37.55 32.45V33.45H38.55V32.45H37.55ZM26 32.45V31.45H25V32.45H26ZM26 43.65V44.65H27V43.65H26ZM13.4 43.65H12.4V44.65H13.4V43.65ZM13.4 32.45H14.4V31.45H13.4V32.45ZM1.85 32.45H0.85V33.45H1.85V32.45ZM1.85 20.55V19.55H0.85V20.55H1.85ZM13.4 20.55V21.55H14.4V20.55H13.4ZM13.4 9.35V8.35H12.4V9.35H13.4ZM26 9.35H27V8.35H26V9.35ZM26 20.55H25V21.55H26V20.55ZM37.55 20.55H38.55V19.55H37.55V20.55ZM37.55 31.45H26V33.45H37.55V31.45ZM25 32.45V43.65H27V32.45H25ZM26 42.65H13.4V44.65H26V42.65ZM14.4 43.65V32.45H12.4V43.65H14.4ZM13.4 31.45H1.85V33.45H13.4V31.45ZM2.85 32.45V20.55H0.85V32.45H2.85ZM1.85 21.55H13.4V19.55H1.85V21.55ZM14.4 20.55V9.35H12.4V20.55H14.4ZM13.4 10.35H26V8.35H13.4V10.35ZM25 9.35V20.55H27V9.35H25ZM26 21.55H37.55V19.55H26V21.55ZM36.55 20.55V32.45H38.55V20.55H36.55ZM64.9009 2H65.9009V0.999996H64.9009V2ZM64.9009 51V52H65.9009V51H64.9009ZM48.3809 51H47.3809V52H48.3809V51ZM48.3809 14.46H49.3809V13.46H48.3809V14.46ZM39.9809 14.46H38.9809V15.46H39.9809V14.46ZM39.9809 2V0.999996H38.9809V2H39.9809ZM63.9009 2V51H65.9009V2H63.9009ZM64.9009 50H48.3809V52H64.9009V50ZM49.3809 51V14.46H47.3809V51H49.3809ZM48.3809 13.46H39.9809V15.46H48.3809V13.46ZM40.9809 14.46V2H38.9809V14.46H40.9809ZM39.9809 3H64.9009V0.999996H39.9809V3ZM94.1587 2H95.1587V0.999996H94.1587V2ZM94.1587 51V52H95.1587V51H94.1587ZM77.6387 51H76.6387V52H77.6387V51ZM77.6387 14.46H78.6387V13.46H77.6387V14.46ZM69.2387 14.46H68.2387V15.46H69.2387V14.46ZM69.2387 2V0.999996H68.2387V2H69.2387ZM93.1587 2V51H95.1587V2H93.1587ZM94.1587 50H77.6387V52H94.1587V50ZM78.6387 51V14.46H76.6387V51H78.6387ZM77.6387 13.46H69.2387V15.46H77.6387V13.46ZM70.2387 14.46V2H68.2387V14.46H70.2387ZM69.2387 3H94.1587V0.999996H69.2387V3ZM102.906 24.96L102.199 25.6671L102.906 24.96ZM100.946 7.6L101.824 8.07885L100.946 7.6ZM105.566 2.91L105.095 2.02817L105.086 2.0329L105.566 2.91ZM118.936 2.91L118.456 3.78714L118.465 3.79178L118.936 2.91ZM123.626 7.6L122.749 8.07885L123.626 7.6ZM121.666 24.96L122.374 25.6671L121.666 24.96ZM141.056 2V0.999996H140.528L140.231 1.43608L141.056 2ZM152.886 2L153.712 2.56392L154.78 0.999996H152.886V2ZM119.426 51V52H119.955L120.252 51.5639L119.426 51ZM107.596 51L106.771 50.4361L105.703 52H107.596V51ZM114.456 19.64L113.606 19.1136L113.599 19.1255L114.456 19.64ZM114.456 10.33L113.588 10.8261L113.602 10.851L113.618 10.875L114.456 10.33ZM110.046 10.33L109.196 9.80359L109.189 9.8155L110.046 10.33ZM110.046 19.64L109.178 20.1361L109.192 20.161L109.208 20.185L110.046 19.64ZM138.816 48.06L139.524 47.3529L138.816 48.06ZM136.856 30.7L135.979 30.2211L136.856 30.7ZM141.476 26.01L141.005 25.1282L140.996 25.1329L141.476 26.01ZM154.846 26.01L154.366 26.8871L154.375 26.8918L154.846 26.01ZM159.536 30.7L160.414 30.2211L159.536 30.7ZM157.576 48.06L156.869 47.3529L157.576 48.06ZM150.366 42.74L149.516 42.2136L149.509 42.2255L150.366 42.74ZM150.366 33.43L149.498 33.9261L149.512 33.951L149.528 33.975L150.366 33.43ZM145.956 33.43L145.106 32.9036L145.099 32.9155L145.956 33.43ZM145.956 42.74L145.088 43.2361L145.102 43.261L145.118 43.285L145.956 42.74ZM112.286 27.6C108.692 27.6 105.83 26.4697 103.614 24.2529L102.199 25.6671C104.836 28.3037 108.228 29.6 112.286 29.6V27.6ZM103.614 24.2529C101.417 22.0562 100.266 18.9982 100.266 14.95H98.2665C98.2665 19.3951 99.5427 23.0105 102.199 25.6671L103.614 24.2529ZM100.266 14.95C100.266 12.2346 100.8 9.95662 101.824 8.07885L100.069 7.12115C98.8528 9.35004 98.2665 11.972 98.2665 14.95H100.266ZM101.824 8.07885C102.857 6.18534 104.263 4.76406 106.047 3.78709L105.086 2.0329C102.95 3.2026 101.276 4.90799 100.069 7.12115L101.824 8.07885ZM106.038 3.79178C107.887 2.80268 109.963 2.3 112.286 2.3V0.299997C109.663 0.299997 107.259 0.870647 105.095 2.02821L106.038 3.79178ZM112.286 2.3C114.61 2.3 116.659 2.80276 118.456 3.78709L119.417 2.0329C117.294 0.870573 114.909 0.299997 112.286 0.299997V2.3ZM118.465 3.79178C120.295 4.77057 121.719 6.1915 122.749 8.07885L124.504 7.12115C123.294 4.90183 121.592 3.19609 119.408 2.02821L118.465 3.79178ZM122.749 8.07885C123.773 9.95662 124.306 12.2346 124.306 14.95H126.306C126.306 11.972 125.72 9.35004 124.504 7.12115L122.749 8.07885ZM124.306 14.95C124.306 18.9982 123.156 22.0562 120.959 24.2529L122.374 25.6671C125.03 23.0105 126.306 19.3951 126.306 14.95H124.306ZM120.959 24.2529C118.743 26.4697 115.881 27.6 112.286 27.6V29.6C116.345 29.6 119.737 28.3037 122.374 25.6671L120.959 24.2529ZM141.056 3H152.886V0.999996H141.056V3ZM152.061 1.43607L118.601 50.4361L120.252 51.5639L153.712 2.56392L152.061 1.43607ZM119.426 50H107.596V52H119.426V50ZM108.422 51.5639L141.882 2.56392L140.231 1.43608L106.771 50.4361L108.422 51.5639ZM112.286 22.04C113.608 22.04 114.621 21.3093 115.314 20.1545L113.599 19.1255C113.172 19.8374 112.738 20.04 112.286 20.04V22.04ZM115.307 20.1664C116.064 18.9427 116.366 17.1464 116.366 14.95H114.366C114.366 17.0469 114.062 18.3773 113.606 19.1136L115.307 20.1664ZM116.366 14.95C116.366 12.7606 116.067 10.9724 115.295 9.78501L113.618 10.875C114.06 11.5543 114.366 12.8461 114.366 14.95H116.366ZM115.325 9.83386C114.643 8.64093 113.633 7.86 112.286 7.86V9.86C112.714 9.86 113.15 10.0591 113.588 10.8261L115.325 9.83386ZM112.286 7.86C110.95 7.86 109.923 8.62932 109.196 9.80364L110.897 10.8564C111.383 10.0707 111.85 9.86 112.286 9.86V7.86ZM109.189 9.8155C108.482 10.9938 108.206 12.7673 108.206 14.95H110.206C110.206 12.8394 110.491 11.5328 110.904 10.8445L109.189 9.8155ZM108.206 14.95C108.206 17.1396 108.484 18.9218 109.178 20.1361L110.915 19.1439C110.489 18.3982 110.206 17.0537 110.206 14.95H108.206ZM109.208 20.185C109.946 21.3197 110.974 22.04 112.286 22.04V20.04C111.826 20.04 111.361 19.827 110.885 19.095L109.208 20.185ZM148.196 50.7C144.602 50.7 141.74 49.5697 139.524 47.3529L138.109 48.7671C140.746 51.4037 144.138 52.7 148.196 52.7V50.7ZM139.524 47.3529C137.327 45.1562 136.176 42.0982 136.176 38.05H134.176C134.176 42.4951 135.453 46.1105 138.109 48.7671L139.524 47.3529ZM136.176 38.05C136.176 35.3346 136.71 33.0566 137.734 31.1789L135.979 30.2211C134.763 32.45 134.176 35.072 134.176 38.05H136.176ZM137.734 31.1789C138.767 29.2853 140.173 27.8641 141.957 26.8871L140.996 25.1329C138.86 26.3026 137.186 28.008 135.979 30.2211L137.734 31.1789ZM141.948 26.8918C143.797 25.9027 145.873 25.4 148.196 25.4V23.4C145.573 23.4 143.169 23.9706 141.005 25.1282L141.948 26.8918ZM148.196 25.4C150.52 25.4 152.569 25.9028 154.366 26.8871L155.327 25.1329C153.204 23.9706 150.819 23.4 148.196 23.4V25.4ZM154.375 26.8918C156.205 27.8706 157.629 29.2915 158.659 31.1789L160.414 30.2211C159.204 28.0018 157.502 26.2961 155.318 25.1282L154.375 26.8918ZM158.659 31.1789C159.683 33.0566 160.216 35.3346 160.216 38.05H162.216C162.216 35.072 161.63 32.45 160.414 30.2211L158.659 31.1789ZM160.216 38.05C160.216 42.0982 159.066 45.1562 156.869 47.3529L158.284 48.7671C160.94 46.1105 162.216 42.4951 162.216 38.05H160.216ZM156.869 47.3529C154.653 49.5697 151.791 50.7 148.196 50.7V52.7C152.255 52.7 155.647 51.4037 158.284 48.7671L156.869 47.3529ZM148.196 45.14C149.518 45.14 150.531 44.4093 151.224 43.2545L149.509 42.2255C149.082 42.9374 148.648 43.14 148.196 43.14V45.14ZM151.217 43.2664C151.974 42.0427 152.276 40.2464 152.276 38.05H150.276C150.276 40.1469 149.972 41.4773 149.516 42.2136L151.217 43.2664ZM152.276 38.05C152.276 35.8606 151.977 34.0724 151.205 32.885L149.528 33.975C149.97 34.6543 150.276 35.9461 150.276 38.05H152.276ZM151.235 32.9339C150.553 31.7409 149.543 30.96 148.196 30.96V32.96C148.624 32.96 149.06 33.1591 149.498 33.9261L151.235 32.9339ZM148.196 30.96C146.86 30.96 145.833 31.7293 145.106 32.9036L146.807 33.9564C147.293 33.1707 147.76 32.96 148.196 32.96V30.96ZM145.099 32.9155C144.392 34.0938 144.116 35.8673 144.116 38.05H146.116C146.116 35.9394 146.401 34.6328 146.814 33.9445L145.099 32.9155ZM144.116 38.05C144.116 40.2396 144.394 42.0218 145.088 43.2361L146.825 42.2439C146.399 41.4982 146.116 40.1537 146.116 38.05H144.116ZM145.118 43.285C145.856 44.4197 146.884 45.14 148.196 45.14V43.14C147.736 43.14 147.271 42.927 146.795 42.195L145.118 43.285Z" fill="white"/>
</svg>
