<svg width="92" height="90" viewBox="0 0 92 90" fill="none" xmlns="http://www.w3.org/2000/svg">
<path d="M86.6802 52.0152L86.9113 49.8826L84.8434 49.6586L85.0955 47.3322L87.1634 47.5563L87.3945 45.4237L89.5916 45.6618L89.3605 47.7943L91.4284 48.0184L91.1763 50.3448L89.1084 50.1207L88.8774 52.2532L86.6802 52.0152Z" fill="#CF1616"/>
<path d="M88.5459 58.5865C88.5943 58.6055 88.6283 58.6374 88.648 58.6824C88.6676 58.7273 88.6679 58.774 88.6489 58.8224L87.2622 62.356C87.2432 62.4044 87.2112 62.4384 87.1663 62.458C87.1213 62.4777 87.0747 62.478 87.0262 62.459L78.894 59.2676C78.8456 59.2486 78.8116 59.2167 78.792 59.1717C78.7724 59.1268 78.7721 59.0801 78.7911 59.0317L79.6792 56.7687C79.6981 56.7203 79.7301 56.6863 79.775 56.6667C79.82 56.6471 79.8667 56.6468 79.9151 56.6658L85.4455 58.8361C85.4858 58.8519 85.5284 58.85 85.5734 58.8304C85.6264 58.814 85.6624 58.7816 85.6814 58.7332L86.047 57.8013C86.066 57.7529 86.098 57.7189 86.1429 57.6993C86.1879 57.6797 86.2345 57.6794 86.2829 57.6984L88.5459 58.5865Z" fill="#CF1616"/>
<path d="M81.9521 61.0857C81.4475 60.7489 80.9008 60.561 80.3119 60.5222C79.7254 60.4953 79.1641 60.6104 78.6279 60.8672C78.0989 61.1289 77.6684 61.5084 77.3363 62.0057L74.9688 65.552C74.68 65.9845 74.5235 66.4531 74.4991 66.9579C74.4699 67.4698 74.5658 67.9506 74.7866 68.4003C75.0099 68.8619 75.3377 69.2371 75.7702 69.5259C76.2027 69.8146 76.6713 69.9711 77.1761 69.9955C77.6832 70.0319 78.164 69.9361 78.6185 69.708C79.0753 69.492 79.4481 69.1677 79.7368 68.7352L82.1188 65.1673C82.1429 65.1313 82.185 65.1073 82.2451 65.0953C82.286 65.0809 82.3316 65.0905 82.3821 65.1242L82.5118 65.2108C82.5551 65.2397 82.5815 65.2782 82.5911 65.3263C82.6006 65.3743 82.591 65.42 82.5621 65.4633L78.8014 71.0963C78.7726 71.1395 78.7629 71.1852 78.7725 71.2333C78.7893 71.2861 78.8157 71.3246 78.8518 71.3487L80.906 72.7201C80.9493 72.749 80.9949 72.7587 81.043 72.7491C81.0911 72.7395 81.1296 72.7131 81.1584 72.6698L84.9047 67.0584C85.2367 66.5611 85.4186 66.0156 85.4502 65.4219C85.489 64.833 85.38 64.2705 85.1232 63.7343C84.8688 63.2101 84.4893 62.7796 83.9847 62.4427L81.9521 61.0857ZM77.5781 67.2159C77.5204 67.1774 77.4844 67.1221 77.47 67.05C77.4557 66.9778 77.4677 66.9129 77.5062 66.8553L79.7078 63.5576C79.7367 63.5144 79.7751 63.488 79.8232 63.4784C79.8641 63.464 79.9097 63.4737 79.9602 63.5073L80.0899 63.594C80.1332 63.6228 80.1596 63.6613 80.1692 63.7094C80.1788 63.7575 80.1691 63.8031 80.1403 63.8464L77.9387 67.144C77.9002 67.2017 77.8449 67.2377 77.7728 67.2521C77.7007 67.2664 77.6358 67.2544 77.5781 67.2159Z" fill="#CF1616"/>
<path d="M75.613 74.3535C76.1705 73.9128 76.7657 73.7294 77.3988 73.8034C78.0318 73.8774 78.5929 74.2237 79.082 74.8424C79.4099 75.2571 79.6105 75.6785 79.6839 76.1066C79.7572 76.5348 79.7129 76.9399 79.551 77.322C79.3823 77.7095 79.1178 78.0457 78.7575 78.3306C78.3972 78.6155 78.0125 78.7926 77.6033 78.862C77.1873 78.9368 76.7795 78.8891 76.3799 78.719C75.9802 78.5489 75.6164 78.2565 75.2885 77.8418C74.7994 77.2231 74.5918 76.5973 74.6658 75.9642C74.7398 75.3312 75.0555 74.7943 75.613 74.3535ZM74.4857 81.5424L72.7623 82.9051L71.9928 71.9127L73.7161 70.5501L74.4857 81.5424ZM76.4838 75.4549C76.3546 75.557 76.303 75.7083 76.3289 75.9088C76.3534 76.1214 76.4893 76.3841 76.7366 76.6968C76.9838 77.0096 77.2054 77.199 77.4013 77.2651C77.5958 77.3433 77.7576 77.3314 77.8867 77.2293C78.0159 77.1271 78.0682 76.9697 78.0437 76.7571C78.0178 76.5566 77.8812 76.3 77.634 75.9873C77.3867 75.6746 77.1658 75.4791 76.9714 75.4008C76.7755 75.3347 76.613 75.3528 76.4838 75.4549ZM67.7209 75.1246C68.2784 74.6838 68.8736 74.5004 69.5067 74.5744C70.1397 74.6484 70.7008 74.9948 71.1899 75.6134C71.5178 76.0281 71.7184 76.4495 71.7918 76.8777C71.8651 77.3058 71.8209 77.7109 71.6589 78.0931C71.4902 78.4806 71.2257 78.8167 70.8654 79.1016C70.5051 79.3865 70.1204 79.5637 69.7112 79.6331C69.2952 79.7078 68.8874 79.6601 68.4878 79.49C68.0881 79.3199 67.7243 79.0275 67.3964 78.6128C66.9073 77.9941 66.6997 77.3683 66.7737 76.7353C66.8477 76.1022 67.1635 75.5653 67.7209 75.1246ZM68.5917 76.2259C68.4625 76.328 68.4109 76.4793 68.4368 76.6798C68.4613 76.8925 68.5972 77.1551 68.8445 77.4679C69.0917 77.7806 69.3133 77.97 69.5092 78.0361C69.7037 78.1144 69.8655 78.1024 69.9946 78.0003C70.1238 77.8982 70.1761 77.7408 70.1516 77.5281C70.1257 77.3277 69.9891 77.0711 69.7419 76.7583C69.4946 76.4456 69.2737 76.2501 69.0793 76.1719C68.8834 76.1058 68.7209 76.1238 68.5917 76.2259Z" fill="#CF1616"/>
<path d="M56.3103 84.0042L58.3579 83.3652L57.7382 81.3796L59.972 80.6825L60.5916 82.6681L62.6392 82.0291L63.2976 84.1388L61.25 84.7778L61.8696 86.7633L59.6359 87.4604L59.0162 85.4749L56.9686 86.1138L56.3103 84.0042Z" fill="#1A1A1A"/>
<path d="M51.0252 88.3132C51.0272 88.3651 51.0116 88.4091 50.9783 88.4451C50.945 88.4811 50.9023 88.5001 50.8504 88.5021L47.0572 88.6485C47.0052 88.6505 46.9613 88.6349 46.9253 88.6016C46.8893 88.5683 46.8703 88.5257 46.8683 88.4737L46.5312 79.7442C46.5292 79.6922 46.5449 79.6483 46.5782 79.6123C46.6115 79.5763 46.6541 79.5573 46.7061 79.5553L49.1353 79.4615C49.1872 79.4595 49.2312 79.4752 49.2672 79.5085C49.3032 79.5418 49.3222 79.5844 49.3242 79.6364L49.5534 85.5729C49.5551 85.6162 49.5739 85.6545 49.6099 85.6878C49.6462 85.7298 49.6903 85.7498 49.7423 85.7478L50.7425 85.7091C50.7945 85.7071 50.8385 85.7228 50.8744 85.7561C50.9104 85.7894 50.9294 85.832 50.9314 85.884L51.0252 88.3132Z" fill="#1A1A1A"/>
<path d="M45.9356 83.2665C46.0447 82.6697 46.0003 82.0934 45.8024 81.5374C45.5944 80.9883 45.2662 80.5187 44.8178 80.1283C44.3678 79.7465 43.8486 79.5018 43.2604 79.3943L39.0659 78.6274C38.5544 78.5339 38.0621 78.5761 37.5891 78.7539C37.1075 78.9302 36.7042 79.2088 36.379 79.5899C36.0438 79.9779 35.8294 80.4277 35.7359 80.9392C35.6423 81.4508 35.6845 81.943 35.8623 82.4161C36.0301 82.896 36.3087 83.2994 36.6983 83.6261C37.0778 83.9598 37.5234 84.1734 38.0349 84.2669L42.2549 85.0385C42.2976 85.0463 42.3363 85.0754 42.3711 85.1258C42.4006 85.1576 42.4098 85.2033 42.3989 85.263L42.3708 85.4165C42.3615 85.4676 42.3367 85.5071 42.2963 85.535C42.256 85.5629 42.2102 85.5721 42.1591 85.5628L35.4965 84.3447C35.4454 84.3354 35.3996 84.3446 35.3593 84.3725C35.3174 84.4089 35.2925 84.4484 35.2848 84.491L34.8405 86.9207C34.8312 86.9719 34.8404 87.0176 34.8683 87.058C34.8962 87.0983 34.9357 87.1232 34.9868 87.1325L41.6238 88.3459C42.2121 88.4534 42.785 88.404 43.3425 88.1976C43.8985 87.9997 44.3717 87.6765 44.762 87.228C45.1423 86.7866 45.387 86.2674 45.4961 85.6707L45.9356 83.2665ZM38.5734 81.6827C38.5859 81.6145 38.6224 81.5595 38.6829 81.5177C38.7434 81.4759 38.8077 81.4612 38.8759 81.4737L42.7763 82.1867C42.8275 82.1961 42.867 82.2209 42.8948 82.2613C42.9243 82.2931 42.9335 82.3388 42.9226 82.3985L42.8945 82.552C42.8852 82.6031 42.8604 82.6426 42.82 82.6705C42.7797 82.6984 42.7339 82.7076 42.6828 82.6983L38.7824 81.9852C38.7142 81.9727 38.6592 81.9362 38.6174 81.8757C38.5756 81.8152 38.561 81.7509 38.5734 81.6827Z" fill="#1A1A1A"/>
<path d="M31.2689 82.7149C31.8937 83.0536 32.2968 83.5284 32.4783 84.1394C32.6597 84.7503 32.5625 85.4025 32.1867 86.0959C31.9348 86.5606 31.6265 86.9111 31.2619 87.1472C30.8973 87.3834 30.5076 87.5023 30.0925 87.5041C29.6699 87.5018 29.2567 87.3912 28.8529 87.1723C28.4491 86.9534 28.1346 86.6696 27.9096 86.3209C27.677 85.968 27.5601 85.5744 27.5589 85.1401C27.5578 84.7057 27.6832 84.2561 27.9351 83.7913C28.3109 83.098 28.8043 82.6606 29.4153 82.4791C30.0262 82.2977 30.6441 82.3763 31.2689 82.7149ZM24.2175 84.5118L22.286 83.4649L32.0855 78.4258L34.017 79.4727L24.2175 84.5118ZM30.5999 83.9493C30.4551 83.8708 30.2957 83.883 30.1217 83.9858C29.9359 84.0921 29.748 84.3205 29.558 84.671C29.368 85.0215 29.2813 85.2998 29.2977 85.5059C29.3024 85.7154 29.3772 85.8595 29.5219 85.9379C29.6667 86.0164 29.832 86.0025 30.0178 85.8962C30.1918 85.7933 30.3738 85.5667 30.5638 85.2162C30.7538 84.8657 30.8464 84.5857 30.8417 84.3761C30.8252 84.17 30.7446 84.0278 30.5999 83.9493ZM27.4502 75.7654C28.0749 76.104 28.4781 76.5788 28.6595 77.1898C28.841 77.8008 28.7438 78.4529 28.3679 79.1463C28.116 79.6111 27.8078 79.9615 27.4432 80.1976C27.0786 80.4338 26.6888 80.5527 26.2738 80.5545C25.8512 80.5522 25.438 80.4416 25.0341 80.2227C24.6303 80.0038 24.3159 79.72 24.0909 79.3713C23.8582 79.0185 23.7413 78.6249 23.7402 78.1905C23.739 77.7561 23.8644 77.3065 24.1163 76.8418C24.4922 76.1484 24.9856 75.711 25.5965 75.5295C26.2075 75.3481 26.8254 75.4267 27.4502 75.7654ZM26.7811 76.9997C26.6363 76.9212 26.4769 76.9334 26.3029 77.0362C26.1171 77.1425 25.9292 77.3709 25.7393 77.7214C25.5493 78.0719 25.4625 78.3502 25.479 78.5563C25.4837 78.7659 25.5584 78.9099 25.7032 78.9883C25.8479 79.0668 26.0132 79.0529 26.199 78.9466C26.373 78.8437 26.555 78.6171 26.745 78.2666C26.935 77.9161 27.0276 77.6361 27.0229 77.4265C27.0065 77.2204 26.9259 77.0782 26.7811 76.9997Z" fill="#1A1A1A"/>
<path d="M14.7927 68.7984L16.1894 70.4263L17.7681 69.072L19.2917 70.848L17.713 72.2023L19.1097 73.8303L17.4324 75.2693L16.0357 73.6413L14.4571 74.9957L12.9334 73.2197L14.5121 71.8653L13.1154 70.2373L14.7927 68.7984Z" fill="#1A1A1A"/>
<path d="M8.73162 65.6805C8.68468 65.7029 8.63811 65.7059 8.5919 65.6895C8.54568 65.6731 8.51139 65.6415 8.48901 65.5945L6.85553 62.1679C6.83316 62.121 6.83016 62.0744 6.84653 62.0282C6.86291 61.982 6.89456 61.9477 6.9415 61.9253L14.8273 58.1661C14.8742 58.1437 14.9208 58.1407 14.967 58.1571C15.0132 58.1735 15.0475 58.2051 15.0699 58.2521L16.116 60.4465C16.1384 60.4934 16.1414 60.54 16.125 60.5862C16.1086 60.6324 16.077 60.6667 16.03 60.6891L10.6672 63.2456C10.6281 63.2642 10.6004 63.2967 10.584 63.3429C10.5598 63.3928 10.5589 63.4413 10.5813 63.4882L11.012 64.3918C11.0344 64.4387 11.0374 64.4853 11.021 64.5315C11.0046 64.5777 10.973 64.612 10.926 64.6344L8.73162 65.6805Z" fill="#CF1616"/>
<path d="M11.43 59.2227C12.0206 59.0841 12.5312 58.813 12.9617 58.4093C13.3818 57.9992 13.6811 57.5106 13.8596 56.9435C14.0297 56.3784 14.0464 55.8047 13.9099 55.2225L12.936 51.0712C12.8172 50.565 12.5818 50.1306 12.2296 49.7681C11.8756 49.3972 11.4589 49.1389 10.9796 48.9931C10.4899 48.841 9.99192 48.8243 9.48567 48.943C8.97941 49.0618 8.54504 49.2972 8.18254 49.6493C7.80963 49.995 7.55131 50.4117 7.40757 50.8994C7.25342 51.3807 7.23573 51.8744 7.3545 52.3807L8.33434 56.5573C8.34424 56.5995 8.33304 56.6466 8.30075 56.6987C8.28336 56.7384 8.24513 56.7651 8.18606 56.779L8.03419 56.8146C7.98356 56.8265 7.93742 56.8195 7.89575 56.7937C7.85408 56.7679 7.82731 56.7296 7.81543 56.679L6.26846 50.085C6.25659 50.0344 6.22981 49.9962 6.18814 49.9704C6.13804 49.9465 6.09189 49.9395 6.0497 49.9494L3.64499 50.5136C3.59437 50.5254 3.55614 50.5522 3.53031 50.5939C3.50447 50.6356 3.4975 50.6817 3.50937 50.7323L5.0504 57.301C5.18699 57.8832 5.46133 58.3885 5.87344 58.8171C6.2771 59.2476 6.76249 59.5521 7.32959 59.7306C7.88627 59.9027 8.45992 59.9195 9.05055 59.7809L11.43 59.2227ZM9.93859 51.8412C10.0061 51.8254 10.0711 51.8368 10.1336 51.8756C10.1961 51.9143 10.2353 51.9674 10.2511 52.0349L11.1567 55.8951C11.1686 55.9458 11.1616 55.9919 11.1358 56.0336C11.1184 56.0733 11.0802 56.1 11.0211 56.1139L10.8692 56.1495C10.8186 56.1614 10.7724 56.1544 10.7308 56.1286C10.6891 56.1028 10.6623 56.0645 10.6505 56.0139L9.74484 52.1537C9.72901 52.0862 9.74046 52.0212 9.77921 51.9587C9.81796 51.8962 9.87108 51.857 9.93859 51.8412Z" fill="#CF1616"/>
<path d="M6.05752 45.3297C5.99457 46.0376 5.71869 46.596 5.22987 47.005C4.74105 47.414 4.10386 47.5835 3.31829 47.5136C2.79171 47.4668 2.34771 47.3229 1.9863 47.082C1.62489 46.841 1.36103 46.5304 1.19473 46.1502C1.02919 45.7613 0.966766 45.3381 1.00746 44.8806C1.04815 44.4231 1.18389 44.0218 1.41468 43.6769C1.64624 43.3234 1.96115 43.0599 2.35941 42.8865C2.75767 42.7131 3.2201 42.6498 3.74669 42.6967C4.53225 42.7665 5.12952 43.0459 5.53849 43.5347C5.94747 44.0235 6.12048 44.6218 6.05752 45.3297ZM1.61025 39.5701L1.80487 37.3817L10.3186 44.3774L10.124 46.5658L1.61025 39.5701ZM4.65904 45.2053C4.67363 45.0413 4.5992 44.8998 4.43577 44.7809C4.26446 44.6525 3.98026 44.5707 3.58316 44.5354C3.18606 44.5001 2.89619 44.5309 2.71356 44.6277C2.52306 44.7152 2.42052 44.8409 2.40594 45.005C2.39135 45.169 2.46971 45.3152 2.64101 45.4435C2.80445 45.5625 3.08472 45.6396 3.48182 45.6749C3.87892 45.7102 4.17272 45.6841 4.36322 45.5967C4.54585 45.4998 4.64446 45.3694 4.65904 45.2053ZM10.9214 39.067C10.8585 39.7748 10.5826 40.3332 10.0938 40.7422C9.60495 41.1512 8.96776 41.3207 8.18219 41.2509C7.65561 41.2041 7.21161 41.0602 6.8502 40.8192C6.48879 40.5782 6.22493 40.2676 6.05863 39.8874C5.89309 39.4986 5.83067 39.0754 5.87136 38.6178C5.91204 38.1603 6.04779 37.7591 6.27858 37.4142C6.51014 37.0606 6.82505 36.7972 7.22331 36.6238C7.62157 36.4504 8.084 36.3871 8.61059 36.4339C9.39615 36.5038 9.99342 36.7831 10.4024 37.2719C10.8114 37.7607 10.9844 38.3591 10.9214 39.067ZM9.52294 38.9426C9.53753 38.7786 9.4631 38.6371 9.29967 38.5181C9.12836 38.3898 8.84416 38.308 8.44706 38.2726C8.04996 38.2373 7.76009 38.2681 7.57746 38.365C7.38696 38.4524 7.28442 38.5782 7.26984 38.7422C7.25525 38.9062 7.33361 39.0524 7.50491 39.1808C7.66835 39.2997 7.94862 39.3768 8.34572 39.4121C8.74282 39.4475 9.03662 39.4214 9.22711 39.3339C9.40975 39.237 9.50836 39.1066 9.52294 38.9426Z" fill="#CF1616"/>
<path d="M12.2927 24.6768L11.3482 26.6027L13.2156 27.5186L12.1852 29.6195L10.3177 28.7036L9.37321 30.6294L7.389 29.6563L8.33354 27.7304L6.46606 26.8145L7.49646 24.7136L9.36395 25.6295L10.3085 23.7037L12.2927 24.6768Z" fill="#1A1A1A"/>
<path d="M12.7432 17.899C12.7041 17.8647 12.683 17.8231 12.6798 17.7742C12.6766 17.7253 12.6921 17.6813 12.7264 17.6422L15.2294 14.7883C15.2636 14.7492 15.3052 14.728 15.3542 14.7248C15.4031 14.7216 15.4471 14.7372 15.4862 14.7715L22.0541 20.5317C22.0932 20.566 22.1143 20.6076 22.1175 20.6565C22.1207 20.7054 22.1052 20.7495 22.0709 20.7885L20.468 22.6162C20.4337 22.6553 20.3921 22.6765 20.3432 22.6797C20.2943 22.6829 20.2502 22.6673 20.2111 22.633L15.7446 18.7157C15.712 18.6872 15.6713 18.6745 15.6223 18.6777C15.5669 18.6752 15.522 18.6935 15.4878 18.7326L14.8277 19.4851C14.7934 19.5242 14.7518 19.5454 14.7029 19.5486C14.654 19.5518 14.61 19.5362 14.5709 19.502L12.7432 17.899Z" fill="#1A1A1A"/>
<path d="M19.8298 17.7329C20.1902 18.2209 20.6408 18.583 21.1817 18.8192C21.7243 19.0433 22.2914 19.1255 22.8829 19.0657C23.4693 18.9989 24.003 18.7878 24.484 18.4326L27.9138 15.8991C28.332 15.5902 28.6382 15.2024 28.8323 14.7358C29.0334 14.2641 29.1062 13.7793 29.0509 13.2814C28.9975 12.7714 28.8162 12.3072 28.5073 11.889C28.1983 11.4707 27.8106 11.1645 27.344 10.9704C26.8792 10.7642 26.3944 10.6914 25.8895 10.7518C25.3865 10.8001 24.9258 10.9788 24.5076 11.2877L21.0569 13.8366C21.022 13.8623 20.9743 13.8707 20.9137 13.8615C20.8703 13.8612 20.8307 13.8367 20.7946 13.7879L20.7019 13.6624C20.671 13.6206 20.6592 13.5754 20.6665 13.5269C20.6738 13.4785 20.6984 13.4388 20.7402 13.4079L26.1881 9.38376C26.23 9.35287 26.2545 9.31318 26.2618 9.2647C26.2639 9.20924 26.2521 9.16409 26.2264 9.12923L24.7589 7.14246C24.728 7.10063 24.6883 7.07608 24.6398 7.06879C24.5913 7.0615 24.5462 7.0733 24.5043 7.1042L19.0773 11.1129C18.5963 11.4682 18.2403 11.9197 18.0092 12.4675C17.773 13.0083 17.6848 13.5745 17.7446 14.166C17.8062 14.7454 18.0172 15.2791 18.3777 15.7671L19.8298 17.7329ZM26.0232 13.4491C26.0644 13.5048 26.0796 13.5691 26.0686 13.6418C26.0577 13.7145 26.0243 13.7715 25.9686 13.8127L22.7793 16.1684C22.7374 16.1993 22.6923 16.2111 22.6438 16.2039C22.6005 16.2035 22.5608 16.179 22.5247 16.1302L22.4321 16.0047C22.4012 15.9629 22.3894 15.9177 22.3966 15.8692C22.4039 15.8208 22.4285 15.7811 22.4703 15.7502L25.6596 13.3944C25.7154 13.3532 25.7796 13.3381 25.8524 13.349C25.9251 13.3599 25.982 13.3933 26.0232 13.4491Z" fill="#1A1A1A"/>
<path d="M30.1868 7.4197C29.5125 7.64417 28.8904 7.61377 28.3204 7.32852C27.7505 7.04327 27.3409 6.5265 27.0918 5.77821C26.9249 5.27661 26.8798 4.81205 26.9567 4.38454C27.0336 3.95703 27.2133 3.59122 27.4957 3.28712C27.7863 2.98029 28.1495 2.75433 28.5854 2.60924C29.0212 2.46416 29.4433 2.4287 29.8516 2.50286C30.2681 2.57428 30.6353 2.75804 30.9531 3.05416C31.2709 3.35027 31.5133 3.74913 31.6803 4.25073C31.9294 4.99903 31.9113 5.65814 31.6261 6.22808C31.3408 6.79803 30.861 7.19523 30.1868 7.4197ZM33.6959 1.04497L35.7804 0.351041L32.7588 10.9479L30.6743 11.6418L33.6959 1.04497ZM29.7433 6.08757C29.8995 6.03556 29.9996 5.9109 30.0435 5.71359C30.093 5.50532 30.0547 5.21206 29.9288 4.8338C29.8029 4.45554 29.6591 4.20198 29.4974 4.0731C29.3413 3.93327 29.1851 3.88936 29.0288 3.94137C28.8726 3.99338 28.7698 4.12352 28.7204 4.33179C28.6764 4.5291 28.7174 4.81688 28.8433 5.19514C28.9693 5.5734 29.1103 5.83244 29.2665 5.97228C29.4281 6.10115 29.5871 6.13958 29.7433 6.08757ZM37.8694 9.38364C37.1951 9.60811 36.573 9.57772 36.003 9.29247C35.4331 9.00722 35.0236 8.49045 34.7745 7.74215C34.6075 7.24055 34.5624 6.776 34.6393 6.34849C34.7162 5.92098 34.8959 5.55517 35.1783 5.25107C35.4689 4.94423 35.8322 4.71827 36.268 4.57319C36.7038 4.42811 37.1259 4.39264 37.5342 4.4668C37.9507 4.53822 38.3179 4.72199 38.6357 5.0181C38.9535 5.31422 39.1959 5.71308 39.3629 6.21468C39.612 6.96297 39.5939 7.62209 39.3087 8.19203C39.0234 8.76197 38.5437 9.15918 37.8694 9.38364ZM37.4259 8.05152C37.5821 7.99951 37.6822 7.87485 37.7262 7.67754C37.7756 7.46927 37.7373 7.17601 37.6114 6.79775C37.4855 6.41949 37.3417 6.16592 37.18 6.03705C37.0239 5.89722 36.8677 5.8533 36.7114 5.90532C36.5552 5.95733 36.4524 6.08747 36.403 6.29574C36.359 6.49304 36.4 6.78083 36.526 7.15909C36.6519 7.53734 36.7929 7.79639 36.9491 7.93622C37.1107 8.0651 37.2697 8.10353 37.4259 8.05152Z" fill="#1A1A1A"/>
<path d="M51.7325 4.89013L49.5898 4.79083L49.4935 6.8686L47.156 6.76028L47.2523 4.68251L45.1096 4.58322L45.2119 2.37558L47.3546 2.47488L47.4509 0.397109L49.7884 0.505431L49.6921 2.5832L51.8348 2.6825L51.7325 4.89013Z" fill="#1A1A1A"/>
<path d="M58.0441 2.55828C58.0599 2.50876 58.0897 2.47278 58.1333 2.45034C58.1769 2.4279 58.2234 2.42462 58.2729 2.44048L61.8879 3.59864C61.9375 3.61451 61.9734 3.64424 61.9959 3.68783C62.0183 3.73142 62.0216 3.77797 62.0057 3.82749L59.3404 12.147C59.3245 12.1965 59.2948 12.2325 59.2512 12.2549C59.2076 12.2773 59.1611 12.2806 59.1115 12.2648L56.7964 11.5231C56.7469 11.5072 56.7109 11.4775 56.6885 11.4339C56.6661 11.3903 56.6628 11.3437 56.6787 11.2942L58.4912 5.63648C58.5045 5.59521 58.4999 5.55278 58.4774 5.50919C58.4576 5.45734 58.423 5.42349 58.3735 5.40762L57.4202 5.10222C57.3707 5.08636 57.3347 5.05663 57.3122 5.01304C57.2898 4.96945 57.2865 4.92289 57.3024 4.87337L58.0441 2.55828Z" fill="#1A1A1A"/>
<path d="M60.9929 8.95261C60.6882 9.47721 60.5348 10.0346 60.5328 10.6247C60.5426 11.2118 60.6924 11.7648 60.9822 12.2839C61.2764 12.7956 61.682 13.2016 62.1991 13.5019L65.8862 15.6436C66.3359 15.9048 66.8134 16.0318 67.3187 16.0246C67.8314 16.0218 68.3053 15.8961 68.7403 15.6477C69.1871 15.396 69.5411 15.0454 69.8023 14.5958C70.0635 14.1461 70.1905 13.6686 70.1833 13.1633C70.188 12.6549 70.0624 12.181 69.8064 11.7417C69.5623 11.2992 69.2154 10.9474 68.7657 10.6862L65.0561 8.53147C65.0186 8.50971 64.9921 8.46921 64.9764 8.40997C64.9594 8.37008 64.9662 8.3239 64.9967 8.27144L65.075 8.13655C65.1012 8.09158 65.1379 8.06282 65.1853 8.05025C65.2327 8.03769 65.2789 8.04446 65.3238 8.07058L71.1805 11.4724C71.2255 11.4986 71.2717 11.5053 71.3191 11.4928C71.3708 11.4727 71.4075 11.4439 71.4293 11.4065L72.6699 9.27064C72.696 9.22568 72.7028 9.1795 72.6902 9.13211C72.6777 9.08472 72.6489 9.04797 72.604 9.02185L66.7697 5.63305C66.2526 5.33269 65.6968 5.18525 65.1023 5.19072C64.5122 5.18869 63.9575 5.33258 63.4384 5.62238C62.9311 5.90904 62.5251 6.31467 62.2204 6.83926L60.9929 8.95261ZM67.384 12.9355C67.3492 12.9955 67.2963 13.0349 67.2252 13.0537C67.1541 13.0726 67.0886 13.0646 67.0286 13.0298L63.6 11.0383C63.5551 11.0122 63.5263 10.9754 63.5137 10.928C63.4968 10.8881 63.5036 10.8419 63.5341 10.7895L63.6124 10.6546C63.6386 10.6096 63.6753 10.5809 63.7227 10.5683C63.7701 10.5557 63.8163 10.5625 63.8612 10.5886L67.2898 12.5801C67.3498 12.6149 67.3892 12.6679 67.408 12.739C67.4269 12.8101 67.4189 12.8756 67.384 12.9355Z" fill="#1A1A1A"/>
<path d="M74.669 14.4173C74.1946 13.8881 73.9748 13.3054 74.0095 12.669C74.0442 12.0326 74.3552 11.4511 74.9424 10.9247C75.3361 10.5718 75.7443 10.3455 76.1671 10.2458C76.5898 10.1461 76.9969 10.1653 77.3883 10.3032C77.7855 10.4477 78.1374 10.6909 78.444 11.0329C78.7507 11.3749 78.9513 11.748 79.0458 12.152C79.1462 12.5626 79.1238 12.9726 78.9787 13.382C78.8336 13.7914 78.5643 14.1726 78.1706 14.5255C77.5834 15.0519 76.9716 15.2978 76.3352 15.2631C75.6988 15.2284 75.1434 14.9464 74.669 14.4173ZM81.9139 15.098L83.3804 16.7338L72.4567 18.1815L70.9901 16.5457L81.9139 15.098ZM75.7144 13.4801C75.8243 13.6027 75.9785 13.6448 76.177 13.6066C76.3877 13.569 76.6415 13.4171 76.9384 13.151C77.2352 12.8849 77.4105 12.652 77.4644 12.4524C77.5305 12.2535 77.5086 12.0927 77.3986 11.9701C77.2887 11.8475 77.1284 11.805 76.9177 11.8426C76.7192 11.8809 76.4715 12.0331 76.1747 12.2992C75.8779 12.5653 75.6964 12.7978 75.6303 12.9968C75.5765 13.1964 75.6045 13.3575 75.7144 13.4801ZM75.9265 22.2466C75.4521 21.7174 75.2323 21.1347 75.267 20.4983C75.3017 19.8619 75.6127 19.2805 76.1999 18.754C76.5936 18.4011 77.0018 18.1748 77.4246 18.0751C77.8473 17.9755 78.2544 17.9946 78.6458 18.1326C79.043 18.277 79.3949 18.5202 79.7016 18.8622C80.0082 19.2042 80.2088 19.5773 80.3033 19.9814C80.4037 20.3919 80.3813 20.8019 80.2362 21.2113C80.0911 21.6207 79.8218 22.0019 79.4281 22.3548C78.8409 22.8813 78.2291 23.1271 77.5927 23.0924C76.9563 23.0577 76.4009 22.7757 75.9265 22.2466ZM76.9719 21.3094C77.0818 21.432 77.236 21.4742 77.4345 21.4359C77.6452 21.3983 77.899 21.2464 78.1959 20.9803C78.4927 20.7142 78.668 20.4813 78.7219 20.2817C78.788 20.0828 78.7661 19.922 78.6562 19.7994C78.5462 19.6768 78.3859 19.6343 78.1752 19.6719C77.9767 19.7102 77.729 19.8624 77.4322 20.1285C77.1354 20.3946 76.9539 20.6272 76.8878 20.8261C76.834 21.0257 76.862 21.1868 76.9719 21.3094Z" fill="#1A1A1A"/>
<path d="M85.6193 33.2348L84.8583 31.2293L82.9136 31.9673L82.0833 29.7796L84.028 29.0416L83.2669 27.0361L85.3331 26.252L86.0942 28.2574L88.0389 27.5194L88.8691 29.7072L86.9245 30.4452L87.6856 32.4506L85.6193 33.2348Z" fill="#CF1616"/>
</svg>
