<svg width="178" height="55" viewBox="0 0 178 55" fill="none" xmlns="http://www.w3.org/2000/svg">
<path d="M37.55 33.45V34.45H38.55V33.45H37.55ZM26 33.45V32.45H25V33.45H26ZM26 44.65V45.65H27V44.65H26ZM13.4 44.65H12.4V45.65H13.4V44.65ZM13.4 33.45H14.4V32.45H13.4V33.45ZM1.85 33.45H0.85V34.45H1.85V33.45ZM1.85 21.55V20.55H0.85V21.55H1.85ZM13.4 21.55V22.55H14.4V21.55H13.4ZM13.4 10.35V9.35H12.4V10.35H13.4ZM26 10.35H27V9.35H26V10.35ZM26 21.55H25V22.55H26V21.55ZM37.55 21.55H38.55V20.55H37.55V21.55ZM37.55 32.45H26V34.45H37.55V32.45ZM25 33.45V44.65H27V33.45H25ZM26 43.65H13.4V45.65H26V43.65ZM14.4 44.65V33.45H12.4V44.65H14.4ZM13.4 32.45H1.85V34.45H13.4V32.45ZM2.85 33.45V21.55H0.85V33.45H2.85ZM1.85 22.55H13.4V20.55H1.85V22.55ZM14.4 21.55V10.35H12.4V21.55H14.4ZM13.4 11.35H26V9.35H13.4V11.35ZM25 10.35V21.55H27V10.35H25ZM26 22.55H37.55V20.55H26V22.55ZM36.55 21.55V33.45H38.55V21.55H36.55ZM64.9009 3H65.9009V2H64.9009V3ZM64.9009 52V53H65.9009V52H64.9009ZM48.3809 52H47.3809V53H48.3809V52ZM48.3809 15.46H49.3809V14.46H48.3809V15.46ZM39.9809 15.46H38.9809V16.46H39.9809V15.46ZM39.9809 3V2H38.9809V3H39.9809ZM63.9009 3V52H65.9009V3H63.9009ZM64.9009 51H48.3809V53H64.9009V51ZM49.3809 52V15.46H47.3809V52H49.3809ZM48.3809 14.46H39.9809V16.46H48.3809V14.46ZM40.9809 15.46V3H38.9809V15.46H40.9809ZM39.9809 4H64.9009V2H39.9809V4ZM105.849 22.25L105.395 23.1412L105.849 22.25ZM112.009 27.78L112.848 27.2367L112.009 27.78ZM111.659 45L110.831 44.4385L110.824 44.4487L111.659 45ZM104.519 51.02L104.1 50.112L104.519 51.02ZM82.0487 50.39L81.5873 51.2772L81.5921 51.2797L82.0487 50.39ZM73.8587 42.27L74.7366 41.7911L73.8587 42.27ZM74.2787 14.48L73.405 13.9935L73.4008 14.0011L74.2787 14.48ZM83.7987 5.1L83.3354 4.21376L83.3313 4.21596L83.7987 5.1ZM106.479 2.93L106.224 3.89707L106.232 3.89917L106.24 3.90113L106.479 2.93ZM113.269 5.73L114.158 6.18796L114.572 5.38426L113.814 4.89156L113.269 5.73ZM107.319 17.28L106.739 18.0948L107.679 18.7638L108.208 17.738L107.319 17.28ZM91.3587 16.86L91.9684 17.6526L91.9712 17.6504L91.3587 16.86ZM87.7887 23.02L86.8094 22.8174L86.2947 25.3053L88.3671 23.8357L87.7887 23.02ZM96.9587 40.38L96.2699 39.655H96.2699L96.9587 40.38ZM96.9587 33.1L96.2516 33.8071L96.2606 33.8162L96.2699 33.825L96.9587 33.1ZM89.6787 33.1L90.3674 33.825L90.3767 33.8162L90.3858 33.8071L89.6787 33.1ZM89.6787 40.38L90.3674 39.655L89.6787 40.38ZM97.5187 21.29C100.354 21.29 102.974 21.9087 105.395 23.1412L106.302 21.3588C103.59 19.9779 100.657 19.29 97.5187 19.29V21.29ZM105.395 23.1412C107.807 24.3692 109.726 26.0937 111.169 28.3232L112.848 27.2367C111.211 24.7063 109.023 22.7441 106.302 21.3588L105.395 23.1412ZM111.169 28.3232C112.595 30.5274 113.319 33.0654 113.319 35.97H115.319C115.319 32.7146 114.502 29.7926 112.848 27.2367L111.169 28.3232ZM113.319 35.97C113.319 39.193 112.483 42.004 110.831 44.4385L112.486 45.5615C114.381 42.7693 115.319 39.5604 115.319 35.97H113.319ZM110.824 44.4487C109.207 46.8964 106.976 48.7846 104.1 50.112L104.938 51.928C108.128 50.4554 110.657 48.3302 112.493 45.5513L110.824 44.4487ZM104.1 50.112C101.211 51.4454 97.9958 52.12 94.4387 52.12V54.12C98.2549 54.12 101.76 53.3946 104.938 51.928L104.1 50.112ZM94.4387 52.12C89.8553 52.12 85.887 51.2357 82.5052 49.5003L81.5921 51.2797C85.3037 53.1843 89.5954 54.12 94.4387 54.12V52.12ZM82.51 49.5028C79.1933 47.7781 76.6052 45.2169 74.7366 41.7911L72.9808 42.7489C75.0322 46.5097 77.9041 49.3619 81.5873 51.2772L82.51 49.5028ZM74.7366 41.7911C72.8759 38.3799 71.9187 34.1446 71.9187 29.04H69.9187C69.9187 34.3887 70.9215 38.9735 72.9808 42.7489L74.7366 41.7911ZM71.9187 29.04C71.9187 23.5744 73.0111 18.8922 75.1566 14.9589L73.4008 14.0011C71.0663 18.2811 69.9187 23.3056 69.9187 29.04H71.9187ZM75.1524 14.9665C77.3473 11.0246 80.3813 8.03805 84.2661 5.98403L83.3313 4.21596C79.096 6.45528 75.7834 9.72202 73.405 13.9935L75.1524 14.9665ZM84.2619 5.98623C88.2033 3.92594 92.7995 2.88 98.0787 2.88V0.879999C92.5312 0.879999 87.6073 1.98072 83.3354 4.21377L84.2619 5.98623ZM98.0787 2.88C100.939 2.88 103.653 3.22038 106.224 3.89707L106.733 1.96292C103.985 1.23961 101.099 0.879999 98.0787 0.879999V2.88ZM106.24 3.90113C108.815 4.53366 110.97 5.42842 112.724 6.56844L113.814 4.89156C111.834 3.6049 109.462 2.633 106.717 1.95886L106.24 3.90113ZM112.38 5.27204L106.43 16.822L108.208 17.738L114.158 6.18796L112.38 5.27204ZM107.898 16.4652C105.274 14.598 102.099 13.69 98.4287 13.69V15.69C101.758 15.69 104.51 16.5086 106.739 18.0948L107.898 16.4652ZM98.4287 13.69C95.4072 13.69 92.8219 14.4608 90.7461 16.0696L91.9712 17.6504C93.6288 16.3658 95.7568 15.69 98.4287 15.69V13.69ZM90.749 16.0674C88.7022 17.6418 87.4076 19.9261 86.8094 22.8174L88.7679 23.2226C89.2897 20.7005 90.3752 18.8782 91.9684 17.6526L90.749 16.0674ZM88.3671 23.8357C90.7271 22.1623 93.7545 21.29 97.5187 21.29V19.29C93.4429 19.29 89.9836 20.2377 87.2102 22.2043L88.3671 23.8357ZM93.3187 42.71C95.0243 42.71 96.4986 42.1964 97.6474 41.105L96.2699 39.655C95.5521 40.337 94.5997 40.71 93.3187 40.71V42.71ZM97.6474 41.105C98.818 39.9929 99.3587 38.496 99.3587 36.74H97.3587C97.3587 38.064 96.966 38.9937 96.2699 39.655L97.6474 41.105ZM99.3587 36.74C99.3587 34.984 98.818 33.4871 97.6474 32.375L96.2699 33.825C96.966 34.4863 97.3587 35.416 97.3587 36.74H99.3587ZM97.6658 32.3929C96.5197 31.2468 95.0393 30.7 93.3187 30.7V32.7C94.5848 32.7 95.531 33.0866 96.2516 33.8071L97.6658 32.3929ZM93.3187 30.7C91.5981 30.7 90.1177 31.2468 88.9716 32.3929L90.3858 33.8071C91.1063 33.0866 92.0526 32.7 93.3187 32.7V30.7ZM88.9899 32.375C87.8193 33.4871 87.2787 34.984 87.2787 36.74H89.2787C89.2787 35.416 89.6713 34.4863 90.3674 33.825L88.9899 32.375ZM87.2787 36.74C87.2787 38.496 87.8193 39.9929 88.9899 41.105L90.3674 39.655C89.6713 38.9937 89.2787 38.064 89.2787 36.74H87.2787ZM88.9899 41.105C90.1387 42.1964 91.613 42.71 93.3187 42.71V40.71C92.0377 40.71 91.0853 40.337 90.3674 39.655L88.9899 41.105ZM118.561 25.96L117.854 26.6671L118.561 25.96ZM116.601 8.6L117.479 9.07885L116.601 8.6ZM121.221 3.91L120.749 3.02817L120.74 3.0329L121.221 3.91ZM134.591 3.91L134.11 4.78714L134.119 4.79178L134.591 3.91ZM139.281 8.6L138.403 9.07885L139.281 8.6ZM137.321 25.96L138.028 26.6671L137.321 25.96ZM156.711 3V2H156.183L155.885 2.43608L156.711 3ZM168.541 3L169.367 3.56392L170.435 2H168.541V3ZM135.081 52V53H135.609L135.907 52.5639L135.081 52ZM123.251 52L122.425 51.4361L121.357 53H123.251V52ZM130.111 20.64L129.26 20.1136L129.253 20.1255L130.111 20.64ZM130.111 11.33L129.243 11.8261L129.257 11.851L129.272 11.875L130.111 11.33ZM125.701 11.33L124.85 10.8036L124.843 10.8155L125.701 11.33ZM125.701 20.64L124.833 21.1361L124.847 21.161L124.862 21.185L125.701 20.64ZM154.471 49.06L155.178 48.3529L154.471 49.06ZM152.511 31.7L151.633 31.2211L152.511 31.7ZM157.131 27.01L156.659 26.1282L156.65 26.1329L157.131 27.01ZM170.501 27.01L170.02 27.8871L170.029 27.8918L170.501 27.01ZM175.191 31.7L176.069 31.2211L175.191 31.7ZM173.231 49.06L172.524 48.3529L173.231 49.06ZM166.021 43.74L165.17 43.2136L165.163 43.2255L166.021 43.74ZM166.021 34.43L165.153 34.9261L165.167 34.951L165.182 34.975L166.021 34.43ZM161.611 34.43L160.76 33.9036L160.753 33.9155L161.611 34.43ZM161.611 43.74L160.743 44.2361L160.757 44.261L160.772 44.285L161.611 43.74ZM127.941 28.6C124.346 28.6 121.485 27.4697 119.268 25.2529L117.854 26.6671C120.49 29.3037 123.882 30.6 127.941 30.6V28.6ZM119.268 25.2529C117.071 23.0562 115.921 19.9982 115.921 15.95H113.921C113.921 20.3951 115.197 24.0105 117.854 26.6671L119.268 25.2529ZM115.921 15.95C115.921 13.2346 116.454 10.9566 117.479 9.07885L115.723 8.12115C114.507 10.35 113.921 12.972 113.921 15.95H115.921ZM117.479 9.07885C118.512 7.18534 119.917 5.76406 121.701 4.78709L120.74 3.0329C118.604 4.2026 116.93 5.90799 115.723 8.12115L117.479 9.07885ZM121.692 4.79178C123.542 3.80268 125.617 3.3 127.941 3.3V1.3C125.318 1.3 122.913 1.87065 120.749 3.02821L121.692 4.79178ZM127.941 3.3C130.265 3.3 132.313 3.80276 134.11 4.78709L135.071 3.0329C132.949 1.87057 130.564 1.3 127.941 1.3V3.3ZM134.119 4.79178C135.949 5.77057 137.373 7.1915 138.403 9.07885L140.159 8.12115C138.948 5.90183 137.246 4.19609 135.062 3.02821L134.119 4.79178ZM138.403 9.07885C139.427 10.9566 139.961 13.2346 139.961 15.95H141.961C141.961 12.972 141.374 10.35 140.159 8.12115L138.403 9.07885ZM139.961 15.95C139.961 19.9982 138.81 23.0562 136.614 25.2529L138.028 26.6671C140.685 24.0105 141.961 20.3951 141.961 15.95H139.961ZM136.614 25.2529C134.397 27.4697 131.536 28.6 127.941 28.6V30.6C131.999 30.6 135.391 29.3037 138.028 26.6671L136.614 25.2529ZM156.711 4H168.541V2H156.711V4ZM167.715 2.43607L134.255 51.4361L135.907 52.5639L169.367 3.56392L167.715 2.43607ZM135.081 51H123.251V53H135.081V51ZM124.077 52.5639L157.537 3.56392L155.885 2.43608L122.425 51.4361L124.077 52.5639ZM127.941 23.04C129.263 23.04 130.275 22.3093 130.968 21.1545L129.253 20.1255C128.826 20.8374 128.392 21.04 127.941 21.04V23.04ZM130.961 21.1664C131.719 19.9427 132.021 18.1464 132.021 15.95H130.021C130.021 18.0469 129.716 19.3773 129.261 20.1136L130.961 21.1664ZM132.021 15.95C132.021 13.7606 131.721 11.9724 130.949 10.785L129.272 11.875C129.714 12.5543 130.021 13.8461 130.021 15.95H132.021ZM130.979 10.8339C130.297 9.64093 129.287 8.86 127.941 8.86V10.86C128.368 10.86 128.804 11.0591 129.243 11.8261L130.979 10.8339ZM127.941 8.86C126.604 8.86 125.577 9.62932 124.851 10.8036L126.551 11.8564C127.037 11.0707 127.504 10.86 127.941 10.86V8.86ZM124.843 10.8155C124.136 11.9938 123.861 13.7673 123.861 15.95H125.861C125.861 13.8394 126.145 12.5328 126.558 11.8445L124.843 10.8155ZM123.861 15.95C123.861 18.1396 124.139 19.9218 124.833 21.1361L126.569 20.1439C126.143 19.3982 125.861 18.0537 125.861 15.95H123.861ZM124.862 21.185C125.6 22.3197 126.628 23.04 127.941 23.04V21.04C127.48 21.04 127.015 20.827 126.539 20.095L124.862 21.185ZM163.851 51.7C160.256 51.7 157.395 50.5697 155.178 48.3529L153.764 49.7671C156.4 52.4037 159.792 53.7 163.851 53.7V51.7ZM155.178 48.3529C152.981 46.1562 151.831 43.0982 151.831 39.05H149.831C149.831 43.4951 151.107 47.1105 153.764 49.7671L155.178 48.3529ZM151.831 39.05C151.831 36.3346 152.364 34.0566 153.389 32.1789L151.633 31.2211C150.417 33.45 149.831 36.072 149.831 39.05H151.831ZM153.389 32.1789C154.422 30.2853 155.827 28.8641 157.611 27.8871L156.65 26.1329C154.514 27.3026 152.84 29.008 151.633 31.2211L153.389 32.1789ZM157.602 27.8918C159.452 26.9027 161.527 26.4 163.851 26.4V24.4C161.228 24.4 158.823 24.9706 156.659 26.1282L157.602 27.8918ZM163.851 26.4C166.175 26.4 168.223 26.9028 170.02 27.8871L170.981 26.1329C168.859 24.9706 166.474 24.4 163.851 24.4V26.4ZM170.029 27.8918C171.859 28.8706 173.283 30.2915 174.313 32.1789L176.069 31.2211C174.858 29.0018 173.156 27.2961 170.972 26.1282L170.029 27.8918ZM174.313 32.1789C175.337 34.0566 175.871 36.3346 175.871 39.05H177.871C177.871 36.072 177.284 33.45 176.069 31.2211L174.313 32.1789ZM175.871 39.05C175.871 43.0982 174.72 46.1562 172.524 48.3529L173.938 49.7671C176.595 47.1105 177.871 43.4951 177.871 39.05H175.871ZM172.524 48.3529C170.307 50.5697 167.446 51.7 163.851 51.7V53.7C167.909 53.7 171.301 52.4037 173.938 49.7671L172.524 48.3529ZM163.851 46.14C165.173 46.14 166.185 45.4093 166.878 44.2545L165.163 43.2255C164.736 43.9374 164.302 44.14 163.851 44.14V46.14ZM166.871 44.2664C167.629 43.0427 167.931 41.2464 167.931 39.05H165.931C165.931 41.1469 165.626 42.4773 165.171 43.2136L166.871 44.2664ZM167.931 39.05C167.931 36.8606 167.631 35.0724 166.859 33.885L165.182 34.975C165.624 35.6543 165.931 36.9461 165.931 39.05H167.931ZM166.889 33.9339C166.207 32.7409 165.197 31.96 163.851 31.96V33.96C164.278 33.96 164.714 34.1591 165.153 34.9261L166.889 33.9339ZM163.851 31.96C162.514 31.96 161.487 32.7293 160.761 33.9036L162.461 34.9564C162.947 34.1707 163.414 33.96 163.851 33.96V31.96ZM160.753 33.9155C160.046 35.0938 159.771 36.8673 159.771 39.05H161.771C161.771 36.9394 162.055 35.6328 162.468 34.9445L160.753 33.9155ZM159.771 39.05C159.771 41.2396 160.049 43.0218 160.743 44.2361L162.479 43.2439C162.053 42.4982 161.771 41.1537 161.771 39.05H159.771ZM160.772 44.285C161.51 45.4197 162.538 46.14 163.851 46.14V44.14C163.39 44.14 162.925 43.927 162.449 43.195L160.772 44.285Z" fill="#1A1A1A"/>
</svg>
