<svg width="101" height="53" viewBox="0 0 101 53" fill="none" xmlns="http://www.w3.org/2000/svg">
<path d="M31.54 20.39L30.8275 19.6883L29.595 20.9398L31.3003 21.3608L31.54 20.39ZM40.22 25.5L39.4434 26.13L39.4499 26.1381L39.4566 26.1459L40.22 25.5ZM40.85 42.58L40.0063 42.0431L40.0038 42.0472L40.85 42.58ZM33.43 48.74L33.857 49.6442L33.43 48.74ZM10.54 50L10.3259 50.9768L10.3287 50.9774L10.54 50ZM1.58 46.71L0.67143 46.2923L0.286737 47.129L1.08899 47.5812L1.58 46.71ZM7.18 34.53L7.68262 33.6655L6.73117 33.1123L6.27143 34.1123L7.18 34.53ZM13.62 37.19L13.3636 38.1566L13.3684 38.1578L13.62 37.19ZM24.96 37.12L24.4714 36.2475L24.96 37.12ZM14.39 30.96H13.39V31.96H14.39V30.96ZM14.39 20.81L13.6761 20.1097L13.39 20.4014V20.81H14.39ZM21.6 13.46L22.3139 14.1603L23.9818 12.46H21.6V13.46ZM4.1 13.46H3.1V14.46H4.1V13.46ZM4.1 0.999996V-3.8147e-06H3.1V0.999996H4.1ZM40.64 0.999996H41.64V-3.8147e-06H40.64V0.999996ZM40.64 11.15L41.3525 11.8517L41.64 11.5597V11.15H40.64ZM31.3003 21.3608C34.9171 22.2539 37.6021 23.8605 39.4434 26.13L40.9966 24.87C38.8246 22.1928 35.7229 20.3928 31.7797 19.4192L31.3003 21.3608ZM39.4566 26.1459C41.3436 28.376 42.3 31.0812 42.3 34.32H44.3C44.3 30.6521 43.2031 27.4774 40.9834 24.8541L39.4566 26.1459ZM42.3 34.32C42.3 37.063 41.5413 39.631 40.0063 42.0431L41.6937 43.1169C43.4254 40.3956 44.3 37.457 44.3 34.32H42.3ZM40.0038 42.0472C38.5411 44.3703 36.2333 46.3103 33.003 47.8358L33.857 49.6442C37.3467 47.9963 39.9856 45.8297 41.6962 43.1128L40.0038 42.0472ZM33.003 47.8358C29.8142 49.3416 25.7939 50.12 20.9 50.12V52.12C25.9928 52.12 30.3258 51.3117 33.857 49.6442L33.003 47.8358ZM20.9 50.12C17.5193 50.12 14.1368 49.7546 10.7513 49.0226L10.3287 50.9774C13.8498 51.7387 17.374 52.12 20.9 52.12V50.12ZM10.7541 49.0232C7.42717 48.294 4.53695 47.2287 2.07101 45.8388L1.08899 47.5812C3.75638 49.0846 6.83949 50.2127 10.3259 50.9768L10.7541 49.0232ZM2.48857 47.1277L8.08857 34.9477L6.27143 34.1123L0.67143 46.2923L2.48857 47.1277ZM6.67738 35.3945C8.76267 36.6069 10.9923 37.5275 13.3636 38.1566L13.8764 36.2234C11.6743 35.6392 9.61067 34.7864 7.68262 33.6655L6.67738 35.3945ZM13.3684 38.1578C15.7739 38.7833 18.0988 39.1 20.34 39.1V37.1C18.2879 37.1 16.1327 36.8101 13.8716 36.2222L13.3684 38.1578ZM20.34 39.1C22.3551 39.1 24.082 38.7578 25.4486 37.9925L24.4714 36.2475C23.5046 36.7889 22.1516 37.1 20.34 37.1V39.1ZM25.4486 37.9925C26.8918 37.1843 27.71 35.9382 27.71 34.32H25.71C25.71 35.1285 25.3615 35.749 24.4714 36.2475L25.4486 37.9925ZM27.71 34.32C27.71 32.8435 27.036 31.6733 25.7581 30.9343C24.5634 30.2434 22.9003 29.96 20.9 29.96V31.96C22.773 31.96 24.0149 32.2366 24.7569 32.6657C25.4157 33.0467 25.71 33.5565 25.71 34.32H27.71ZM20.9 29.96H14.39V31.96H20.9V29.96ZM15.39 30.96V20.81H13.39V30.96H15.39ZM15.1039 21.5103L22.3139 14.1603L20.8861 12.7597L13.6761 20.1097L15.1039 21.5103ZM21.6 12.46H4.1V14.46H21.6V12.46ZM5.1 13.46V0.999996H3.1V13.46H5.1ZM4.1 2H40.64V-3.8147e-06H4.1V2ZM39.64 0.999996V11.15H41.64V0.999996H39.64ZM39.9275 10.4483L30.8275 19.6883L32.2525 21.0917L41.3525 11.8517L39.9275 10.4483ZM70.2681 0.999996H71.2681V-3.8147e-06H70.2681V0.999996ZM70.2681 50V51H71.2681V50H70.2681ZM53.748 50H52.748V51H53.748V50ZM53.748 13.46H54.748V12.46H53.748V13.46ZM45.348 13.46H44.348V14.46H45.348V13.46ZM45.348 0.999996V-3.8147e-06H44.348V0.999996H45.348ZM69.2681 0.999996V50H71.2681V0.999996H69.2681ZM70.2681 49H53.748V51H70.2681V49ZM54.748 50V13.46H52.748V50H54.748ZM53.748 12.46H45.348V14.46H53.748V12.46ZM46.348 13.46V0.999996H44.348V13.46H46.348ZM45.348 2H70.2681V-3.8147e-06H45.348V2ZM99.5259 0.999996H100.526V-3.8147e-06H99.5259V0.999996ZM99.5259 50V51H100.526V50H99.5259ZM83.0059 50H82.0059V51H83.0059V50ZM83.0059 13.46H84.0059V12.46H83.0059V13.46ZM74.6059 13.46H73.6059V14.46H74.6059V13.46ZM74.6059 0.999996V-3.8147e-06H73.6059V0.999996H74.6059ZM98.5259 0.999996V50H100.526V0.999996H98.5259ZM99.5259 49H83.0059V51H99.5259V49ZM84.0059 50V13.46H82.0059V50H84.0059ZM83.0059 12.46H74.6059V14.46H83.0059V12.46ZM75.6059 13.46V0.999996H73.6059V13.46H75.6059ZM74.6059 2H99.5259V-3.8147e-06H74.6059V2Z" fill="#CF1616"/>
</svg>
