<svg width="121" height="121" viewBox="0 0 121 121" fill="none" xmlns="http://www.w3.org/2000/svg">
<path d="M116.669 60.9171C116.626 60.9128 116.581 60.9257 116.535 60.9558C116.497 60.9869 116.475 61.0282 116.47 61.08L115.86 67.1464C115.85 67.2412 115.817 67.3119 115.76 67.3585C115.703 67.405 115.64 67.4248 115.571 67.4178C115.493 67.41 115.431 67.3777 115.385 67.3207C115.338 67.2638 115.32 67.1879 115.329 67.093L115.94 61.0266C115.945 60.9749 115.932 60.93 115.901 60.8921C115.87 60.8541 115.828 60.8325 115.777 60.8273L113.785 60.627C113.733 60.6218 113.688 60.6347 113.65 60.6657C113.612 60.6967 113.591 60.7381 113.585 60.7899L112.975 66.8562C112.966 66.9511 112.932 67.0218 112.875 67.0683C112.819 67.1149 112.751 67.1342 112.674 67.1264C112.605 67.1195 112.543 67.0871 112.487 67.0293C112.441 66.9724 112.422 66.8965 112.432 66.8016L113.042 60.7352C113.047 60.6835 113.034 60.6386 113.003 60.6007C112.972 60.5627 112.931 60.5411 112.879 60.5359L110.435 60.29C110.383 60.2848 110.338 60.2977 110.3 60.3287C110.262 60.3598 110.241 60.4011 110.235 60.4529L109.557 67.1919C109.505 67.7179 109.585 68.2138 109.8 68.6796C110.013 69.154 110.327 69.5427 110.741 69.8456C111.162 70.1581 111.632 70.3403 112.149 70.3923C112.813 70.4591 113.438 70.3042 114.025 69.9277C114.447 70.2315 114.917 70.4094 115.435 70.4615C115.961 70.5144 116.457 70.4293 116.924 70.2062C117.398 69.9926 117.787 69.6746 118.091 69.2523C118.404 68.8307 118.586 68.357 118.639 67.831L119.29 61.3636C119.295 61.3119 119.278 61.2666 119.238 61.2278C119.207 61.1898 119.17 61.1686 119.127 61.1643L116.669 60.9171Z" fill="white"/>
<path d="M117.562 73.3896C117.613 73.4028 117.65 73.4306 117.675 73.4729C117.7 73.5153 117.705 73.5616 117.692 73.6119L116.727 77.2832C116.714 77.3335 116.686 77.371 116.644 77.3957C116.601 77.4204 116.555 77.4261 116.505 77.4129L108.056 75.192C108.006 75.1788 107.968 75.151 107.943 75.1086C107.919 75.0663 107.913 75.02 107.926 74.9697L108.544 72.6186C108.557 72.5683 108.585 72.5308 108.628 72.5061C108.67 72.4813 108.716 72.4756 108.766 72.4888L114.512 73.9992C114.554 74.0102 114.596 74.0033 114.639 73.9786C114.689 73.9561 114.721 73.9197 114.735 73.8694L114.989 72.9013C115.002 72.851 115.03 72.8135 115.072 72.7888C115.115 72.7641 115.161 72.7583 115.211 72.7716L117.562 73.3896Z" fill="white"/>
<path d="M116.001 79.131C116.049 79.1492 116.084 79.1807 116.104 79.2253C116.124 79.2699 116.125 79.3166 116.107 79.3653L114.774 82.9193C114.755 82.968 114.724 83.0025 114.679 83.0228C114.635 83.0431 114.588 83.0441 114.539 83.0258L106.36 79.9568C106.311 79.9385 106.277 79.9071 106.257 79.8624C106.236 79.8178 106.235 79.7711 106.254 79.7224L107.108 77.4464C107.126 77.3977 107.157 77.3632 107.202 77.343C107.247 77.3227 107.293 77.3217 107.342 77.3399L112.904 79.4271C112.945 79.4423 112.988 79.4397 113.032 79.4195C113.085 79.4022 113.12 79.3693 113.139 79.3206L113.49 78.3834C113.509 78.3347 113.54 78.3002 113.585 78.2799C113.629 78.2597 113.676 78.2587 113.725 78.2769L116.001 79.131Z" fill="white"/>
<path d="M110.134 87.2225C110.098 87.1986 110.052 87.1891 109.997 87.1941C109.949 87.2038 109.911 87.2304 109.882 87.2738L106.515 92.3569C106.463 92.4364 106.4 92.4835 106.328 92.4981C106.256 92.5127 106.191 92.5009 106.133 92.4626C106.068 92.4196 106.028 92.362 106.014 92.2899C105.999 92.2179 106.018 92.1421 106.071 92.0626L109.438 86.9794C109.466 86.9361 109.476 86.8904 109.466 86.8423C109.456 86.7943 109.43 86.7559 109.386 86.7272L107.717 85.6217C107.674 85.593 107.628 85.5835 107.58 85.5933C107.532 85.603 107.494 85.6296 107.465 85.6729L104.098 90.7561C104.046 90.8356 103.983 90.8826 103.911 90.8973C103.839 90.9119 103.771 90.8977 103.706 90.8546C103.648 90.8163 103.608 90.7588 103.586 90.6819C103.571 90.6099 103.59 90.5341 103.643 90.4546L107.01 85.3714C107.039 85.3281 107.048 85.2824 107.038 85.2343C107.028 85.1863 107.002 85.1479 106.959 85.1192L104.91 83.7625C104.867 83.7337 104.821 83.7243 104.773 83.734C104.725 83.7438 104.687 83.7703 104.658 83.8137L100.918 89.4604C100.626 89.9012 100.466 90.3776 100.439 90.8897C100.407 91.409 100.503 91.8991 100.728 92.3599C100.956 92.8327 101.286 93.2127 101.72 93.4999C102.276 93.8684 102.901 94.0227 103.596 93.963C103.828 94.4286 104.161 94.805 104.594 95.0921C105.035 95.384 105.514 95.54 106.031 95.5601C106.55 95.5922 107.043 95.4922 107.508 95.26C107.981 95.0326 108.364 94.6986 108.655 94.2578L112.245 88.8387C112.273 88.7953 112.279 88.7472 112.262 88.6944C112.253 88.6464 112.23 88.6104 112.193 88.5864L110.134 87.2225Z" fill="#CF1616"/>
<path d="M105.182 98.5886C105.22 98.6236 105.241 98.6656 105.243 98.7145C105.245 98.7635 105.229 98.8072 105.194 98.8457L102.639 101.654C102.604 101.692 102.562 101.712 102.514 101.715C102.465 101.717 102.421 101.701 102.382 101.666L95.9203 95.7871C95.8818 95.7521 95.8614 95.7101 95.8591 95.6611C95.8568 95.6122 95.8731 95.5685 95.9081 95.53L97.544 93.7318C97.579 93.6933 97.621 93.6729 97.6699 93.6706C97.7189 93.6683 97.7626 93.6846 97.8011 93.7196L102.196 97.7175C102.228 97.7466 102.268 97.76 102.317 97.7577C102.373 97.7612 102.418 97.7438 102.453 97.7053L103.126 96.9649C103.161 96.9264 103.203 96.906 103.252 96.9037C103.301 96.9014 103.345 96.9177 103.384 96.9527L105.182 98.5886Z" fill="#CF1616"/>
<path d="M101.189 102.899C101.223 102.937 101.24 102.981 101.237 103.03C101.235 103.079 101.214 103.121 101.175 103.156L98.3582 105.7C98.3196 105.735 98.2759 105.751 98.2269 105.748C98.1779 105.746 98.136 105.725 98.1012 105.687L92.246 99.2033C92.2112 99.1647 92.195 99.121 92.1975 99.072C92.2 99.023 92.2205 98.9811 92.2591 98.9463L94.0633 97.3169C94.1019 97.2821 94.1456 97.2659 94.1946 97.2684C94.2436 97.2709 94.2855 97.2914 94.3203 97.33L98.3022 101.739C98.3312 101.771 98.3702 101.789 98.4192 101.791C98.474 101.8 98.5206 101.787 98.5592 101.752L99.3021 101.081C99.3407 101.046 99.3845 101.03 99.4335 101.033C99.4824 101.035 99.5243 101.056 99.5592 101.094L101.189 102.899Z" fill="#CF1616"/>
<path d="M92.2364 107.394C92.2154 107.356 92.1791 107.327 92.1278 107.305C92.0806 107.292 92.0343 107.298 91.9889 107.323L86.6612 110.288C86.5779 110.334 86.5009 110.347 86.4302 110.327C86.3594 110.307 86.3072 110.267 86.2735 110.206C86.2356 110.138 86.2267 110.068 86.2468 109.998C86.267 109.927 86.3187 109.869 86.402 109.822L91.7297 106.858C91.7752 106.832 91.8046 106.796 91.818 106.749C91.8315 106.702 91.8256 106.655 91.8003 106.61L90.8268 104.861C90.8015 104.815 90.7653 104.786 90.7182 104.772C90.671 104.759 90.6247 104.765 90.5793 104.79L85.2516 107.755C85.1683 107.801 85.0913 107.814 85.0205 107.794C84.9498 107.774 84.8955 107.73 84.8576 107.662C84.8238 107.601 84.815 107.531 84.8309 107.453C84.8511 107.382 84.9028 107.324 84.9861 107.278L90.3138 104.313C90.3592 104.288 90.3887 104.251 90.4021 104.204C90.4155 104.157 90.4096 104.111 90.3843 104.065L89.1896 101.918C89.1643 101.873 89.1281 101.844 89.081 101.83C89.0338 101.817 88.9875 101.823 88.9421 101.848L83.0237 105.141C82.5617 105.398 82.2008 105.748 81.941 106.19C81.6737 106.636 81.5338 107.116 81.5216 107.628C81.5059 108.153 81.6245 108.642 81.8774 109.097C82.2019 109.68 82.6862 110.105 83.3303 110.371C83.3223 110.891 83.4447 111.379 83.6975 111.833C83.9546 112.295 84.3079 112.654 84.7576 112.909C85.204 113.177 85.6872 113.314 86.2075 113.322C86.7319 113.338 87.2251 113.217 87.6871 112.96L93.3669 109.8C93.4123 109.774 93.4397 109.734 93.4489 109.68C93.4623 109.633 93.4585 109.59 93.4375 109.552L92.2364 107.394Z" fill="white"/>
<path d="M82.5823 115.218C82.6002 115.267 82.5988 115.313 82.5782 115.358C82.5576 115.402 82.5229 115.433 82.474 115.451L78.9101 116.758C78.8613 116.776 78.8146 116.775 78.7701 116.754C78.7256 116.734 78.6945 116.699 78.6766 116.65L75.669 108.448C75.6511 108.399 75.6525 108.353 75.6731 108.308C75.6937 108.264 75.7284 108.232 75.7773 108.214L78.0596 107.378C78.1085 107.36 78.1551 107.361 78.1996 107.382C78.2441 107.402 78.2753 107.437 78.2932 107.486L80.3385 113.064C80.3534 113.104 80.3831 113.135 80.4276 113.156C80.475 113.184 80.5232 113.19 80.572 113.172L81.5118 112.827C81.5606 112.809 81.6073 112.811 81.6518 112.831C81.6963 112.852 81.7274 112.887 81.7453 112.935L82.5823 115.218Z" fill="white"/>
<path d="M77.0413 117.193C77.0544 117.244 77.0484 117.29 77.0236 117.332C76.9987 117.375 76.9611 117.402 76.9107 117.415L73.2358 118.366C73.1855 118.379 73.1392 118.373 73.0969 118.349C73.0547 118.324 73.0271 118.286 73.014 118.236L70.8252 109.778C70.8122 109.728 70.8181 109.682 70.843 109.64C70.8679 109.597 70.9055 109.57 70.9558 109.557L73.3093 108.948C73.3596 108.935 73.4059 108.94 73.4481 108.965C73.4904 108.99 73.518 109.028 73.5311 109.078L75.0196 114.83C75.0304 114.872 75.057 114.905 75.0992 114.93C75.1437 114.963 75.191 114.973 75.2414 114.96L76.2105 114.709C76.2608 114.696 76.3071 114.702 76.3493 114.727C76.3916 114.752 76.4192 114.79 76.4323 114.84L77.0413 117.193Z" fill="white"/>
<path d="M67.0594 117.015C67.0582 116.972 67.0397 116.929 67.0039 116.887C66.9683 116.853 66.9245 116.837 66.8725 116.838L60.7778 117.003C60.6825 117.005 60.6081 116.981 60.5547 116.931C60.5013 116.88 60.4737 116.82 60.4718 116.751C60.4697 116.673 60.494 116.607 60.5446 116.554C60.5951 116.501 60.6681 116.473 60.7634 116.47L66.8581 116.305C66.9101 116.304 66.953 116.285 66.9867 116.25C67.0204 116.214 67.0366 116.17 67.0352 116.118L66.9811 114.117C66.9797 114.065 66.9612 114.022 66.9256 113.989C66.89 113.955 66.8462 113.939 66.7942 113.94L60.6994 114.105C60.6041 114.107 60.5298 114.083 60.4764 114.033C60.423 113.982 60.3953 113.918 60.3932 113.84C60.3913 113.771 60.4155 113.705 60.4659 113.643C60.5165 113.59 60.5894 113.562 60.6847 113.559L66.7795 113.394C66.8315 113.393 66.8743 113.374 66.908 113.339C66.9417 113.303 66.9579 113.259 66.9565 113.207L66.8901 110.751C66.8887 110.699 66.8702 110.657 66.8346 110.623C66.799 110.589 66.7552 110.573 66.7033 110.574L59.9327 110.757C59.4043 110.772 58.9226 110.915 58.4878 111.187C58.0443 111.459 57.6986 111.819 57.4506 112.268C57.1942 112.726 57.0731 113.214 57.0871 113.734C57.1051 114.401 57.3381 115.002 57.786 115.536C57.5383 115.994 57.4215 116.482 57.4355 117.002C57.4498 117.531 57.5972 118.012 57.8777 118.447C58.1498 118.89 58.5146 119.236 58.9721 119.483C59.4299 119.74 59.923 119.861 60.4515 119.847L66.9491 119.671C67.0011 119.67 67.0438 119.647 67.0773 119.603C67.111 119.567 67.1273 119.527 67.1261 119.484L67.0594 117.015Z" fill="#CF1616"/>
<path d="M54.6608 119.471C54.654 119.522 54.6312 119.563 54.5923 119.593C54.5534 119.623 54.5081 119.634 54.4566 119.627L50.6931 119.132C50.6416 119.125 50.6009 119.102 50.571 119.063C50.5412 119.024 50.5296 118.979 50.5364 118.927L51.6776 110.266C51.6844 110.215 51.7072 110.174 51.7461 110.144C51.785 110.114 51.8302 110.103 51.8818 110.11L54.292 110.427C54.3435 110.434 54.3842 110.457 54.4141 110.496C54.4439 110.535 54.4554 110.58 54.4486 110.631L53.6726 116.521C53.6669 116.564 53.679 116.605 53.7089 116.644C53.7376 116.692 53.7777 116.719 53.8293 116.726L54.8217 116.856C54.8732 116.863 54.9139 116.886 54.9438 116.925C54.9736 116.964 54.9851 117.009 54.9783 117.061L54.6608 119.471Z" fill="#CF1616"/>
<path d="M48.8301 118.652C48.8183 118.703 48.7915 118.741 48.7498 118.767C48.7081 118.793 48.662 118.8 48.6114 118.788L44.9157 117.921C44.8651 117.909 44.8269 117.882 44.801 117.84C44.7752 117.799 44.7682 117.753 44.7801 117.702L46.7754 109.197C46.7873 109.146 46.8141 109.108 46.8557 109.082C46.8974 109.056 46.9436 109.049 46.9942 109.061L49.3609 109.616C49.4115 109.628 49.4498 109.655 49.4756 109.697C49.5014 109.738 49.5084 109.785 49.4965 109.835L48.1396 115.619C48.1297 115.661 48.1377 115.703 48.1635 115.745C48.1874 115.795 48.2246 115.826 48.2752 115.838L49.2498 116.067C49.3004 116.078 49.3386 116.105 49.3644 116.147C49.3903 116.189 49.3973 116.235 49.3854 116.285L48.8301 118.652Z" fill="#CF1616"/>
<path d="M40.091 113.866C40.1101 113.827 40.1136 113.78 40.1016 113.726C40.0857 113.68 40.0545 113.645 40.0078 113.622L34.5337 110.937C34.4481 110.895 34.3934 110.84 34.3696 110.77C34.3458 110.701 34.3492 110.635 34.3797 110.572C34.4141 110.502 34.4661 110.455 34.5356 110.432C34.6052 110.408 34.6828 110.417 34.7684 110.459L40.2425 113.144C40.2892 113.167 40.3357 113.17 40.3821 113.154C40.4285 113.138 40.4631 113.107 40.486 113.06L41.3676 111.263C41.3905 111.216 41.394 111.17 41.3782 111.123C41.3623 111.077 41.331 111.042 41.2843 111.019L35.8103 108.335C35.7247 108.293 35.67 108.237 35.6462 108.167C35.6224 108.098 35.6277 108.028 35.662 107.958C35.6926 107.896 35.7445 107.849 35.8179 107.817C35.8875 107.793 35.9651 107.802 36.0507 107.844L41.5248 110.529C41.5714 110.552 41.618 110.556 41.6644 110.54C41.7108 110.524 41.7454 110.493 41.7683 110.446L42.8502 108.24C42.8731 108.193 42.8766 108.147 42.8608 108.1C42.8449 108.054 42.8137 108.019 42.767 107.996L36.686 105.014C36.2113 104.781 35.7183 104.684 35.207 104.723C34.6879 104.758 34.2143 104.917 33.7862 105.199C33.3466 105.485 33.0122 105.862 32.7833 106.329C32.4894 106.928 32.4168 107.568 32.5654 108.249C32.1335 108.539 31.8031 108.918 31.5741 109.385C31.3413 109.859 31.2482 110.354 31.2948 110.869C31.3298 111.388 31.4924 111.864 31.7825 112.296C32.0688 112.735 32.4493 113.072 32.9239 113.304L38.7598 116.167C38.8065 116.19 38.855 116.189 38.9052 116.166C38.9516 116.15 38.9843 116.122 39.0034 116.083L40.091 113.866Z" fill="white"/>
<path d="M28.1871 110.4C28.1573 110.443 28.1183 110.468 28.07 110.477C28.0217 110.485 27.9763 110.475 27.9337 110.445L24.8236 108.268C24.781 108.238 24.7555 108.199 24.7469 108.151C24.7384 108.103 24.7491 108.057 24.7789 108.015L29.7879 100.857C29.8177 100.815 29.8567 100.789 29.905 100.781C29.9533 100.772 29.9987 100.783 30.0413 100.813L32.033 102.206C32.0756 102.236 32.1012 102.275 32.1097 102.324C32.1183 102.372 32.1076 102.417 32.0778 102.46L28.6714 107.327C28.6465 107.363 28.6384 107.405 28.6469 107.453C28.6505 107.508 28.6735 107.551 28.7161 107.581L29.5362 108.155C29.5788 108.185 29.6044 108.224 29.6129 108.272C29.6215 108.32 29.6108 108.366 29.581 108.408L28.1871 110.4Z" fill="white"/>
<path d="M23.3687 106.961C23.3347 107.001 23.2933 107.022 23.2444 107.026C23.1955 107.029 23.1513 107.014 23.112 106.98L20.24 104.498C20.2006 104.464 20.1792 104.422 20.1756 104.373C20.1721 104.325 20.1873 104.28 20.2213 104.241L25.9336 97.6315C25.9676 97.5922 26.0091 97.5707 26.0579 97.5672C26.1068 97.5636 26.151 97.5788 26.1903 97.6128L28.0296 99.2024C28.0689 99.2364 28.0904 99.2779 28.0939 99.3268C28.0975 99.3757 28.0823 99.4198 28.0483 99.4591L24.1636 103.954C24.1352 103.987 24.1228 104.028 24.1264 104.077C24.1243 104.132 24.1429 104.177 24.1823 104.211L24.9396 104.865C24.979 104.899 25.0004 104.941 25.004 104.99C25.0075 105.039 24.9923 105.083 24.9583 105.122L23.3687 106.961Z" fill="white"/>
<path d="M17.858 98.7057C17.8928 98.68 17.9174 98.6403 17.9316 98.5866C17.9389 98.5382 17.9271 98.493 17.8962 98.4512L14.2738 93.547C14.2171 93.4703 14.1943 93.3956 14.2052 93.3229C14.2161 93.2502 14.2495 93.1932 14.3052 93.152C14.368 93.1057 14.4357 93.088 14.5084 93.0989C14.5812 93.1098 14.6458 93.1536 14.7025 93.2303L18.325 98.1345C18.3558 98.1763 18.3955 98.2009 18.444 98.2082C18.4925 98.2155 18.5377 98.2037 18.5795 98.1728L20.1898 96.9833C20.2316 96.9524 20.2562 96.9127 20.2635 96.8642C20.2708 96.8158 20.259 96.7706 20.2281 96.7288L16.6056 91.8246C16.549 91.7479 16.5261 91.6732 16.537 91.6005C16.548 91.5278 16.5848 91.4682 16.6475 91.4219C16.7033 91.3807 16.771 91.363 16.8507 91.3688C16.9235 91.3797 16.9881 91.4235 17.0448 91.5002L20.6673 96.4044C20.6982 96.4462 20.7378 96.4708 20.7863 96.478C20.8348 96.4853 20.88 96.4735 20.9218 96.4426L22.8981 94.9828C22.9399 94.9519 22.9645 94.9123 22.9718 94.8638C22.9791 94.8153 22.9673 94.7701 22.9364 94.7283L18.9123 89.2804C18.5982 88.8551 18.2052 88.542 17.7335 88.3409C17.2566 88.1329 16.7631 88.0556 16.2531 88.1091C15.731 88.1608 15.2608 88.3411 14.8425 88.65C14.3058 89.0465 13.9465 89.5812 13.7648 90.2542C13.2478 90.3128 12.7802 90.4966 12.3619 90.8056C11.9367 91.1197 11.6261 91.5161 11.4302 91.9948C11.2222 92.4717 11.1475 92.9686 11.2061 93.4856C11.2578 94.0077 11.4407 94.4814 11.7548 94.9066L15.6167 100.135C15.6476 100.177 15.6907 100.199 15.7462 100.201C15.7947 100.208 15.8363 100.199 15.8712 100.173L17.858 98.7057Z" fill="#CF1616"/>
<path d="M8.89017 90.1731C8.84409 90.1972 8.79766 90.2019 8.75087 90.1872C8.70409 90.1726 8.66864 90.1422 8.64454 90.0961L6.88517 86.7325C6.86107 86.6864 6.85634 86.64 6.87099 86.5932C6.88564 86.5464 6.91601 86.5109 6.96208 86.4868L14.7031 82.4379C14.7492 82.4138 14.7956 82.409 14.8424 82.4237C14.8892 82.4384 14.9246 82.4687 14.9487 82.5148L16.0755 84.6689C16.0996 84.715 16.1043 84.7614 16.0896 84.8082C16.075 84.855 16.0446 84.8904 15.9985 84.9145L10.7342 87.6681C10.6958 87.6882 10.6693 87.7216 10.6546 87.7684C10.6323 87.8192 10.6332 87.8676 10.6573 87.9137L11.1212 88.8007C11.1453 88.8468 11.15 88.8932 11.1354 88.94C11.1207 88.9868 11.0904 89.0222 11.0443 89.0463L8.89017 90.1731Z" fill="#CF1616"/>
<path d="M6.21222 84.9431C6.16396 84.9625 6.11729 84.9625 6.07221 84.9433C6.02713 84.924 5.99491 84.8902 5.97555 84.842L4.56242 81.3188C4.54306 81.2706 4.54302 81.2239 4.56229 81.1788C4.58156 81.1337 4.61532 81.1015 4.66358 81.0821L12.7717 77.83C12.8199 77.8106 12.8666 77.8106 12.9117 77.8299C12.9568 77.8491 12.989 77.8829 13.0084 77.9312L13.9133 80.1874C13.9327 80.2357 13.9327 80.2824 13.9135 80.3275C13.8942 80.3725 13.8604 80.4048 13.8122 80.4241L8.29819 82.6358C8.25797 82.6519 8.22822 82.6825 8.20895 82.7276C8.18164 82.7759 8.17766 82.8242 8.19702 82.8724L8.56966 83.8015C8.58902 83.8498 8.58906 83.8964 8.56979 83.9415C8.55052 83.9866 8.51676 84.0188 8.4685 84.0382L6.21222 84.9431Z" fill="#CF1616"/>
<path d="M5.09169 75.0244C5.13451 75.0178 5.17467 74.994 5.21217 74.9531C5.24111 74.9135 5.25159 74.868 5.24361 74.8167L4.30826 68.7918C4.29363 68.6976 4.30802 68.6208 4.35143 68.5615C4.39484 68.5021 4.4508 68.4671 4.51931 68.4565C4.59639 68.4445 4.6646 68.4602 4.72397 68.5037C4.78333 68.5471 4.82032 68.6159 4.83495 68.7101L5.7703 74.7349C5.77828 74.7863 5.80205 74.8264 5.84163 74.8554C5.8812 74.8843 5.92668 74.8948 5.97807 74.8868L7.95637 74.5797C8.00775 74.5717 8.04791 74.5479 8.07685 74.5084C8.10579 74.4688 8.11627 74.4233 8.10829 74.3719L7.17294 68.3471C7.15831 68.2529 7.1727 68.1761 7.21611 68.1167C7.25952 68.0574 7.31976 68.0217 7.39684 68.0098C7.46535 67.9991 7.53357 68.0148 7.60149 68.0569C7.66086 68.1003 7.69785 68.1691 7.71248 68.2633L8.64783 74.2882C8.65581 74.3395 8.67958 74.3797 8.71916 74.4086C8.75873 74.4376 8.80421 74.4481 8.8556 74.4401L11.2835 74.0632C11.3349 74.0552 11.3751 74.0314 11.404 73.9918C11.4329 73.9522 11.4434 73.9068 11.4354 73.8554L10.3964 67.1626C10.3153 66.6402 10.1124 66.1805 9.78762 65.7836C9.46156 65.3782 9.06021 65.0809 8.58355 64.8918C8.097 64.6954 7.59681 64.6372 7.08296 64.7169C6.42353 64.8193 5.85728 65.1265 5.38422 65.6384C4.89901 65.4507 4.39947 65.3967 3.88563 65.4764C3.36322 65.5575 2.90424 65.7647 2.50869 66.098C2.10324 66.4241 1.80663 66.8297 1.61885 67.3149C1.4225 67.8015 1.36487 68.306 1.44598 68.8284L2.44316 75.2514C2.45113 75.3028 2.47919 75.3423 2.52733 75.3699C2.56691 75.3989 2.6081 75.41 2.65092 75.4034L5.09169 75.0244Z" fill="white"/>
<path d="M1.08325 63.0416C1.03125 63.0414 0.98798 63.0239 0.953448 62.9891C0.918915 62.9543 0.901749 62.9109 0.90195 62.8589L0.916603 59.0629C0.916804 59.0109 0.934304 58.9677 0.969105 58.9331C1.00391 58.8986 1.0473 58.8814 1.0993 58.8816L9.83524 58.9154C9.88724 58.9156 9.93051 58.9331 9.96504 58.9679C9.99957 59.0027 10.0167 59.0461 10.0165 59.0981L10.0072 61.529C10.007 61.581 9.98945 61.6243 9.95465 61.6588C9.91985 61.6934 9.87645 61.7105 9.82445 61.7103L3.88349 61.6874C3.84016 61.6872 3.8011 61.7044 3.76629 61.739C3.72283 61.7735 3.70099 61.8167 3.70079 61.8687L3.69693 62.8697C3.69673 62.9217 3.67923 62.965 3.64443 62.9995C3.60963 63.034 3.56623 63.0512 3.51423 63.051L1.08325 63.0416Z" fill="white"/>
<path d="M1.15337 57.0756C1.10165 57.0702 1.06035 57.0484 1.02948 57.0103C0.998599 56.9723 0.985862 56.9274 0.991265 56.8756L1.38569 53.1002C1.3911 53.0485 1.41284 53.0072 1.45092 52.9763C1.489 52.9454 1.5339 52.9327 1.58562 52.9381L10.2743 53.8458C10.3261 53.8512 10.3673 53.8729 10.3982 53.911C10.4291 53.9491 10.4418 53.994 10.4364 54.0457L10.1838 56.4636C10.1784 56.5153 10.1567 56.5566 10.1186 56.5875C10.0805 56.6183 10.0356 56.6311 9.98391 56.6257L4.07507 56.0084C4.03197 56.0039 3.99138 56.0171 3.9533 56.0479C3.9066 56.0779 3.88055 56.1188 3.87515 56.1705L3.77114 57.1661C3.76573 57.2178 3.74399 57.2591 3.70591 57.2899C3.66783 57.3208 3.62293 57.3336 3.57121 57.3282L1.15337 57.0756Z" fill="white"/>
<path d="M4.74894 47.8843C4.78995 47.8983 4.83656 47.8958 4.88876 47.877C4.93277 47.8554 4.96317 47.82 4.97997 47.7708L6.94927 42.0006C6.98006 41.9104 7.02846 41.849 7.09447 41.8166C7.16048 41.7842 7.22629 41.7792 7.29191 41.8016C7.36573 41.8268 7.41885 41.8724 7.45126 41.9384C7.48368 42.0044 7.48449 42.0825 7.4537 42.1727L5.4844 47.943C5.4676 47.9922 5.47001 48.0388 5.49162 48.0828C5.51323 48.1268 5.54865 48.1572 5.59786 48.174L7.49255 48.8206C7.54176 48.8374 7.58837 48.835 7.63238 48.8134C7.67639 48.7918 7.70679 48.7564 7.72358 48.7072L9.69288 42.937C9.72368 42.8467 9.77208 42.7854 9.83809 42.753C9.90409 42.7206 9.97401 42.717 10.0478 42.7422C10.1134 42.7646 10.1666 42.8102 10.2072 42.879C10.2396 42.945 10.2404 43.0231 10.2096 43.1133L8.24032 48.8835C8.22352 48.9327 8.22593 48.9793 8.24754 49.0233C8.26915 49.0673 8.30456 49.0977 8.35378 49.1145L10.6791 49.9081C10.7283 49.9249 10.7749 49.9225 10.8189 49.9009C10.8629 49.8793 10.8933 49.8439 10.9101 49.7947L13.0978 43.3847C13.2685 42.8844 13.3022 42.3831 13.1989 41.8808C13.0984 41.3703 12.881 40.9206 12.5467 40.5318C12.207 40.132 11.791 39.8481 11.2989 39.6801C10.6673 39.4646 10.0232 39.4737 9.36651 39.7074C9.02398 39.3158 8.60665 39.036 8.11452 38.8681C7.61419 38.6973 7.11148 38.6677 6.60639 38.7792C6.0959 38.8797 5.64484 39.1012 5.25322 39.4437C4.85339 39.7835 4.56809 40.2035 4.39734 40.7038L2.29787 46.8554C2.28107 46.9046 2.28758 46.9526 2.31739 46.9995C2.33901 47.0435 2.37032 47.0725 2.41133 47.0865L4.74894 47.8843Z" fill="#CF1616"/>
<path d="M6.68709 35.5592C6.6411 35.5349 6.61087 35.4993 6.59639 35.4525C6.58192 35.4057 6.58681 35.3592 6.61108 35.3132L8.38289 31.9561C8.40716 31.9101 8.44272 31.8799 8.48956 31.8654C8.5364 31.8509 8.58281 31.8558 8.6288 31.8801L16.3548 35.9577C16.4008 35.982 16.431 36.0175 16.4455 36.0644C16.46 36.1112 16.4551 36.1576 16.4308 36.2036L15.2961 38.3535C15.2718 38.3995 15.2363 38.4298 15.1895 38.4442C15.1426 38.4587 15.0962 38.4538 15.0502 38.4296L9.79607 35.6566C9.75775 35.6363 9.71517 35.6335 9.66833 35.6479C9.61382 35.6584 9.57444 35.6866 9.55017 35.7326L9.08294 36.6178C9.05867 36.6638 9.02312 36.6941 8.97628 36.7085C8.92944 36.723 8.88302 36.7181 8.83703 36.6938L6.68709 35.5592Z" fill="#CF1616"/>
<path d="M9.43872 30.4249C9.39537 30.3962 9.36881 30.3578 9.35905 30.3098C9.34929 30.2617 9.35877 30.216 9.38748 30.1727L11.4836 27.0079C11.5123 26.9645 11.5507 26.938 11.5988 26.9282C11.6468 26.9185 11.6925 26.9279 11.7359 26.9567L19.0192 31.7806C19.0625 31.8094 19.0891 31.8477 19.0989 31.8958C19.1086 31.9438 19.0991 31.9895 19.0704 32.0329L17.728 34.0596C17.6993 34.103 17.6609 34.1295 17.6129 34.1393C17.5649 34.1491 17.5192 34.1396 17.4758 34.1109L12.5227 30.8303C12.4866 30.8063 12.4445 30.7993 12.3964 30.809C12.3412 30.814 12.2992 30.8382 12.2705 30.8815L11.7177 31.7161C11.689 31.7594 11.6506 31.786 11.6026 31.7957C11.5545 31.8055 11.5088 31.796 11.4655 31.7673L9.43872 30.4249Z" fill="#CF1616"/>
<path d="M38.9635 8.09389C38.9754 8.13554 39.004 8.1724 39.0493 8.20447C39.0922 8.22822 39.1387 8.23291 39.1886 8.21855L45.0485 6.53479C45.1402 6.50846 45.2181 6.51311 45.2825 6.54872C45.3468 6.58434 45.3886 6.63547 45.4077 6.70211C45.4292 6.77707 45.4222 6.84673 45.3866 6.91106C45.351 6.9754 45.2874 7.02073 45.1957 7.04706L39.3358 8.73082C39.2859 8.74518 39.249 8.77381 39.2252 8.8167C39.2015 8.85959 39.1968 8.90603 39.2112 8.95601L39.764 10.8802C39.7784 10.9301 39.807 10.967 39.8499 10.9907C39.8928 11.0145 39.9393 11.0192 39.9892 11.0048L45.8491 9.32105C45.9408 9.29472 46.0187 9.29937 46.0831 9.33499C46.1474 9.3706 46.1904 9.4259 46.2119 9.50086C46.231 9.5675 46.224 9.63715 46.1908 9.70982C46.1552 9.77416 46.0915 9.81949 45.9999 9.84582L40.14 11.5296C40.09 11.5439 40.0532 11.5726 40.0294 11.6155C40.0057 11.6583 40.001 11.7048 40.0154 11.7548L40.6939 14.1162C40.7082 14.1662 40.7369 14.2031 40.7798 14.2268C40.8227 14.2505 40.8691 14.2552 40.9191 14.2409L47.4287 12.3704C47.9368 12.2244 48.3673 11.9655 48.7204 11.5935C49.0817 11.2192 49.3263 10.7837 49.4541 10.2871C49.5879 9.77973 49.5829 9.27617 49.4393 8.77639C49.255 8.13501 48.8793 7.61177 48.312 7.20667C48.4374 6.70173 48.4283 6.19937 48.2847 5.69959C48.1387 5.19149 47.8756 4.76212 47.4953 4.41151C47.121 4.05017 46.6813 3.80678 46.1764 3.68135C45.669 3.54759 45.1613 3.55371 44.6532 3.69971L38.406 5.49476C38.356 5.50912 38.3204 5.54191 38.299 5.59313C38.2753 5.63603 38.2694 5.6783 38.2813 5.71994L38.9635 8.09389Z" fill="white"/>
<path d="M49.7745 2.70258C49.7679 2.651 49.7796 2.60582 49.8096 2.56704C49.8396 2.52825 49.8804 2.50556 49.932 2.49897L53.6973 2.01758C53.7489 2.01098 53.7941 2.02268 53.8329 2.05267C53.8717 2.08266 53.8944 2.12345 53.9009 2.17503L55.0088 10.8405C55.0154 10.8921 55.0037 10.9373 54.9737 10.976C54.9437 11.0148 54.9029 11.0375 54.8514 11.0441L52.44 11.3524C52.3884 11.359 52.3432 11.3473 52.3044 11.3173C52.2657 11.2873 52.243 11.2465 52.2364 11.1949L51.483 5.30191C51.4775 5.25893 51.4553 5.22244 51.4165 5.19245C51.3767 5.15386 51.3309 5.13787 51.2794 5.14446L50.2864 5.2714C50.2349 5.278 50.1897 5.2663 50.1509 5.23631C50.1121 5.20632 50.0894 5.16553 50.0828 5.11395L49.7745 2.70258Z" fill="white"/>
<path d="M55.7224 1.97663C55.721 1.92465 55.7371 1.88087 55.7709 1.84528C55.8046 1.80969 55.8474 1.79119 55.8994 1.78978L59.694 1.68723C59.746 1.68583 59.7898 1.70199 59.8254 1.7357C59.861 1.76942 59.8795 1.81227 59.8809 1.86425L60.1169 10.5971C60.1183 10.649 60.1021 10.6928 60.0684 10.7284C60.0347 10.764 59.9918 10.7825 59.9399 10.7839L57.5098 10.8496C57.4578 10.851 57.414 10.8348 57.3784 10.8011C57.3428 10.7674 57.3243 10.7246 57.3229 10.6726L57.1624 4.73374C57.1612 4.69042 57.1429 4.6519 57.1073 4.61819C57.0714 4.5758 57.0275 4.55532 56.9756 4.55672L55.9749 4.58376C55.9229 4.58517 55.8792 4.56901 55.8436 4.53529C55.808 4.50158 55.7895 4.45873 55.7881 4.40675L55.7224 1.97663Z" fill="white"/>
<path d="M65.5894 4.33204C65.5808 4.37451 65.5892 4.42043 65.6145 4.46978C65.6416 4.51064 65.6807 4.53624 65.7316 4.54656L71.7072 5.75746C71.8006 5.77639 71.8676 5.8165 71.9083 5.8778C71.9489 5.93909 71.9624 6.00371 71.9486 6.07166C71.9331 6.14811 71.8947 6.20665 71.8334 6.24729C71.7721 6.28792 71.6948 6.29877 71.6013 6.27984L65.6258 5.06895C65.5748 5.05862 65.5289 5.067 65.488 5.09409C65.4472 5.12118 65.4216 5.16021 65.4113 5.21118L65.0136 7.1733C65.0033 7.22426 65.0117 7.27017 65.0388 7.31103C65.0659 7.35189 65.1049 7.37749 65.1559 7.38782L71.1314 8.59871C71.2249 8.61764 71.2919 8.65776 71.3325 8.71905C71.3732 8.78034 71.3857 8.84921 71.3702 8.92565C71.3565 8.99361 71.3181 9.05215 71.2551 9.10128C71.1938 9.14191 71.1164 9.15277 71.023 9.13383L65.0474 7.92294C64.9965 7.91261 64.9506 7.92099 64.9097 7.94808C64.8688 7.97518 64.8432 8.0142 64.8329 8.06517L64.3449 10.4732C64.3346 10.5242 64.343 10.5701 64.3701 10.611C64.3972 10.6518 64.4362 10.6774 64.4872 10.6877L71.1253 12.0329C71.6434 12.1379 72.1449 12.1069 72.6297 11.9398C73.123 11.7745 73.541 11.5011 73.8836 11.1195C74.2364 10.7312 74.4645 10.2822 74.5677 9.77256C74.7003 9.11852 74.6084 8.48091 74.2921 7.85972C74.6365 7.46967 74.8603 7.01983 74.9635 6.51018C75.0685 5.99205 75.0333 5.4897 74.8577 5.00315C74.6924 4.50982 74.4147 4.091 74.0247 3.74667C73.6364 3.39385 73.1831 3.16495 72.665 3.05995L66.2945 1.76902C66.2435 1.75869 66.1967 1.77132 66.1542 1.80691C66.1133 1.834 66.0886 1.86878 66.08 1.91125L65.5894 4.33204Z" fill="#CF1616"/>
<path d="M77.9294 4.60429C77.9475 4.55554 77.9788 4.52094 78.0233 4.50049C78.0679 4.48005 78.1146 4.47887 78.1633 4.49695L81.7223 5.81716C81.7711 5.83525 81.8057 5.86657 81.8261 5.91113C81.8466 5.95569 81.8478 6.00234 81.8297 6.0511L78.7914 14.2417C78.7733 14.2905 78.742 14.3251 78.6974 14.3455C78.6529 14.366 78.6062 14.3672 78.5574 14.3491L76.2782 13.5036C76.2295 13.4855 76.1949 13.4542 76.1744 13.4096C76.154 13.3651 76.1528 13.3184 76.1709 13.2697L78.2371 7.69954C78.2522 7.65891 78.2495 7.61632 78.229 7.57176C78.2116 7.51907 78.1785 7.48369 78.1298 7.4656L77.1912 7.11747C77.1425 7.09938 77.1079 7.06806 77.0874 7.0235C77.067 6.97894 77.0658 6.93228 77.0839 6.88353L77.9294 4.60429Z" fill="#CF1616"/>
<path d="M83.471 6.68939C83.4939 6.6427 83.5285 6.61143 83.5749 6.59557C83.6213 6.57971 83.6678 6.58323 83.7145 6.60613L87.1227 8.27768C87.1694 8.30057 87.2006 8.33522 87.2165 8.38161C87.2324 8.428 87.2288 8.47454 87.206 8.52122L83.3591 16.3647C83.3362 16.4113 83.3016 16.4426 83.2552 16.4585C83.2088 16.4743 83.1622 16.4708 83.1156 16.4479L80.9329 15.3774C80.8862 15.3545 80.855 15.3199 80.8391 15.2735C80.8233 15.2271 80.8268 15.1806 80.8497 15.1339L83.4658 9.79989C83.4848 9.76099 83.4864 9.71834 83.4706 9.67195C83.4585 9.61778 83.4292 9.57924 83.3825 9.55635L82.4838 9.11556C82.4371 9.09266 82.4058 9.05802 82.3899 9.01163C82.3741 8.96524 82.3776 8.9187 82.4005 8.87201L83.471 6.68939Z" fill="#CF1616"/>
<path d="M91.2087 13.4415C91.1813 13.4751 91.1674 13.5196 91.1669 13.5751C91.1719 13.6239 91.1945 13.6647 91.2348 13.6975L95.9619 17.5483C96.0358 17.6085 96.0765 17.6752 96.084 17.7483C96.0914 17.8215 96.0733 17.8849 96.0295 17.9387C95.9802 17.9992 95.919 18.0331 95.8459 18.0406C95.7727 18.0481 95.6992 18.0217 95.6253 17.9615L90.8982 14.1108C90.8579 14.0779 90.8133 14.064 90.7646 14.069C90.7158 14.074 90.675 14.0966 90.6421 14.1369L89.3777 15.6891C89.3449 15.7294 89.3309 15.7739 89.3359 15.8227C89.3409 15.8715 89.3636 15.9123 89.4039 15.9451L94.1309 19.7959C94.2049 19.8561 94.2455 19.9228 94.253 19.9959C94.2605 20.0691 94.2396 20.1359 94.1903 20.1964C94.1465 20.2501 94.0853 20.2841 94.0067 20.2983C93.9335 20.3058 93.86 20.2794 93.7861 20.2192L89.059 16.3685C89.0187 16.3356 88.9742 16.3217 88.9254 16.3267C88.8766 16.3317 88.8358 16.3543 88.803 16.3946L87.2512 18.2996C87.2183 18.3399 87.2044 18.3844 87.2094 18.4332C87.2144 18.482 87.237 18.5228 87.2773 18.5556L92.5285 22.8333C92.9384 23.1672 93.3968 23.3729 93.9037 23.4505C94.4173 23.5336 94.9145 23.4859 95.3952 23.3074C95.8882 23.1277 96.2988 22.8362 96.6273 22.4331C97.0487 21.9157 97.2639 21.3085 97.2728 20.6115C97.759 20.4263 98.1663 20.1321 98.4947 19.7289C98.8286 19.3191 99.031 18.8579 99.1019 18.3456C99.1849 17.8319 99.1338 17.332 98.9486 16.8458C98.7689 16.3529 98.4741 15.9395 98.0642 15.6056L93.0247 11.5003C92.9844 11.4674 92.9371 11.4569 92.8829 11.4686C92.8341 11.4736 92.796 11.4929 92.7687 11.5264L91.2087 13.4415Z" fill="white"/>
<path d="M101.963 19.3977C102.001 19.3628 102.045 19.3466 102.094 19.3491C102.143 19.3516 102.185 19.3722 102.22 19.4108L104.764 22.228C104.799 22.2665 104.815 22.3103 104.812 22.3593C104.81 22.4083 104.789 22.4502 104.751 22.485L98.2673 28.3402C98.2287 28.375 98.1849 28.3912 98.136 28.3887C98.087 28.3862 98.0451 28.3657 98.0102 28.3271L96.3809 26.5229C96.3461 26.4843 96.3299 26.4405 96.3324 26.3916C96.3349 26.3426 96.3554 26.3007 96.394 26.2659L100.803 22.284C100.835 22.255 100.853 22.216 100.855 22.167C100.864 22.1122 100.851 22.0655 100.816 22.0269L100.145 21.2841C100.11 21.2455 100.094 21.2017 100.097 21.1527C100.099 21.1038 100.12 21.0619 100.158 21.027L101.963 19.3977Z" fill="white"/>
<path d="M105.822 23.714C105.864 23.6831 105.909 23.6713 105.957 23.6786C106.006 23.6858 106.045 23.7104 106.076 23.7522L108.332 26.8056C108.362 26.8474 108.374 26.8926 108.367 26.941C108.36 26.9895 108.335 27.0292 108.293 27.0601L101.266 32.2505C101.225 32.2814 101.179 32.2932 101.131 32.2859C101.082 32.2786 101.043 32.2541 101.012 32.2123L99.5675 30.2569C99.5366 30.215 99.5248 30.1699 99.5321 30.1214C99.5394 30.0729 99.5639 30.0332 99.6058 30.0023L104.384 26.4725C104.419 26.4468 104.44 26.4097 104.448 26.3612C104.462 26.3076 104.454 26.2598 104.423 26.218L103.828 25.4128C103.797 25.371 103.785 25.3259 103.793 25.2774C103.8 25.2289 103.824 25.1892 103.866 25.1583L105.822 23.714Z" fill="white"/>
<path d="M109.436 33.0108C109.396 33.0282 109.363 33.0614 109.337 33.1105C109.319 33.1561 109.321 33.2028 109.341 33.2504L111.779 38.8389C111.817 38.9262 111.823 39.0042 111.796 39.0726C111.769 39.1411 111.724 39.1891 111.661 39.2169C111.589 39.2481 111.519 39.2502 111.451 39.2233C111.382 39.1965 111.329 39.1393 111.291 39.052L108.853 33.4635C108.832 33.4159 108.799 33.3831 108.753 33.3652C108.708 33.3473 108.661 33.3487 108.613 33.3695L106.778 34.17C106.731 34.1908 106.698 34.224 106.68 34.2696C106.662 34.3153 106.663 34.3619 106.684 34.4096L109.122 39.998C109.16 40.0854 109.166 40.1633 109.139 40.2317C109.112 40.3002 109.063 40.35 108.991 40.3812C108.928 40.4089 108.858 40.4111 108.782 40.3877C108.713 40.3608 108.66 40.3037 108.622 40.2163L106.184 34.6279C106.163 34.5802 106.13 34.5474 106.084 34.5295C106.039 34.5116 105.992 34.513 105.944 34.5338L103.692 35.5162C103.645 35.537 103.612 35.5702 103.594 35.6159C103.576 35.6615 103.577 35.7082 103.598 35.7558L106.306 41.9639C106.518 42.4484 106.831 42.8413 107.246 43.1425C107.664 43.4516 108.128 43.6369 108.637 43.6985C109.158 43.7646 109.656 43.6937 110.133 43.4857C110.745 43.2189 111.214 42.7777 111.541 42.1622C112.058 42.2204 112.555 42.1455 113.032 41.9376C113.516 41.7262 113.907 41.409 114.205 40.986C114.514 40.5675 114.698 40.0997 114.756 39.5827C114.822 39.0622 114.749 38.5597 114.538 38.0751L111.939 32.1173C111.918 32.0696 111.881 32.0386 111.828 32.0241C111.782 32.0062 111.739 32.0059 111.699 32.0232L109.436 33.0108Z" fill="#CF1616"/>
<path d="M116.357 43.5259C116.407 43.5129 116.453 43.5188 116.495 43.5437C116.538 43.5686 116.565 43.6062 116.578 43.6565L117.529 47.3314C117.542 47.3818 117.537 47.4281 117.512 47.4703C117.487 47.5126 117.449 47.5402 117.399 47.5532L108.942 49.7421C108.891 49.7551 108.845 49.7492 108.803 49.7243C108.76 49.6994 108.733 49.6618 108.72 49.6115L108.111 47.258C108.098 47.2077 108.104 47.1614 108.128 47.1191C108.153 47.0769 108.191 47.0492 108.241 47.0362L113.993 45.5477C114.035 45.5368 114.068 45.5103 114.093 45.468C114.126 45.4236 114.136 45.3762 114.123 45.3259L113.873 44.3568C113.859 44.3065 113.865 44.2602 113.89 44.2179C113.915 44.1757 113.953 44.148 114.003 44.135L116.357 43.5259Z" fill="#CF1616"/>
<path d="M117.777 49.1649C117.829 49.1569 117.874 49.1674 117.914 49.1963C117.953 49.2253 117.977 49.2654 117.985 49.3168L118.567 53.0679C118.575 53.1193 118.565 53.1647 118.536 53.2043C118.507 53.2439 118.467 53.2677 118.415 53.2756L109.783 54.6158C109.731 54.6238 109.686 54.6133 109.646 54.5844C109.607 54.5555 109.583 54.5153 109.575 54.4639L109.202 52.0617C109.194 52.0103 109.205 51.9648 109.234 51.9253C109.262 51.8857 109.303 51.8619 109.354 51.8539L115.225 50.9425C115.267 50.9359 115.303 50.9127 115.332 50.8732C115.37 50.8323 115.385 50.7861 115.377 50.7347L115.223 49.7456C115.215 49.6942 115.226 49.6487 115.254 49.6092C115.283 49.5696 115.324 49.5458 115.375 49.5378L117.777 49.1649Z" fill="#CF1616"/>
</svg>
