<svg width="90" height="90" viewBox="0 0 90 90" fill="none" xmlns="http://www.w3.org/2000/svg">
<path d="M82.6893 52.2471L82.9211 50.1146L80.8531 49.8912L81.1059 47.5649L83.1739 47.7883L83.4057 45.6559L85.6029 45.8933L85.3711 48.0257L87.4391 48.2491L87.1862 50.5754L85.1183 50.352L84.8865 52.4845L82.6893 52.2471Z" fill="#1A1A1A"/>
<path d="M84.5199 61.9476C84.7607 61.4672 84.8637 60.9618 84.8291 60.4313C84.7983 59.9125 84.6414 59.4325 84.3584 58.9914C84.0793 58.5618 83.7031 58.2292 83.2299 57.9934C82.7567 57.7577 82.2621 57.6614 81.7461 57.7045C81.6143 57.4064 81.4341 57.1375 81.2053 56.8977C80.9765 56.6578 80.7109 56.4625 80.4083 56.3118C79.9429 56.0799 79.4502 55.9797 78.9303 56.0112C78.4143 56.0543 77.941 56.2154 77.5102 56.4947C77.0755 56.7816 76.7398 57.1614 76.5029 57.634L74.3011 62.0271C74.0642 62.4998 73.9631 62.9916 73.9978 63.5027C74.0286 64.0215 74.1835 64.4957 74.4627 64.9253C74.7457 65.3664 75.1199 65.7029 75.5853 65.9348C75.8879 66.0855 76.204 66.1801 76.5337 66.2185C76.8596 66.2646 77.1816 66.2508 77.4998 66.1769C77.7867 66.6103 78.1628 66.9429 78.6283 67.1748C79.1015 67.4106 79.596 67.5069 80.1121 67.4638C80.6319 67.4323 81.1111 67.2692 81.5497 66.9745C81.9921 66.6914 82.3317 66.3136 82.5686 65.8409L84.5199 61.9476ZM81.0928 60.8938C81.1472 60.7853 81.219 60.7097 81.3083 60.6671C81.3936 60.6321 81.4906 60.6417 81.5992 60.6958C81.7 60.7461 81.7563 60.8176 81.7679 60.9106C81.7872 61.0074 81.7717 61.1061 81.7212 61.2068L80.2882 64.0658C80.2378 64.1666 80.1679 64.2383 80.0786 64.2809C79.9933 64.3352 79.9002 64.3373 79.7993 64.287C79.6907 64.2329 79.6267 64.1575 79.6074 64.0607C79.588 63.9639 79.6055 63.8613 79.6599 63.7528L81.0928 60.8938ZM78.6493 59.6764C78.7036 59.568 78.7755 59.4924 78.8647 59.4497C78.9501 59.4148 79.0471 59.4244 79.1557 59.4785C79.2565 59.5287 79.3127 59.6003 79.3243 59.6932C79.3437 59.79 79.3281 59.8887 79.2776 59.9895L77.8447 62.8485C77.7942 62.9492 77.7243 63.0209 77.6351 63.0636C77.5497 63.1179 77.4566 63.1199 77.3558 63.0697C77.2472 63.0156 77.1832 62.9401 77.1638 62.8433C77.1445 62.7465 77.162 62.6439 77.2164 62.5354L78.6493 59.6764Z" fill="#1A1A1A"/>
<path d="M75.5331 66.8556C75.0958 66.4352 74.5904 66.1536 74.0169 66.0111C73.4437 65.8807 72.87 65.8942 72.2958 66.0515C71.7279 66.2148 71.2361 66.5114 70.8203 66.9413L67.8559 70.0062C67.4944 70.38 67.2567 70.8127 67.1429 71.3044C67.023 71.8023 67.0319 72.2917 67.1695 72.7727C67.3074 73.2659 67.5638 73.6927 67.9386 74.0531C68.3135 74.4135 68.7475 74.6504 69.2406 74.7639C69.734 74.8895 70.2249 74.8806 70.7134 74.7371C71.202 74.6058 71.6271 74.3533 71.9887 73.9795L74.9712 70.8959C75.0013 70.8648 75.0471 70.8486 75.1084 70.8475C75.1513 70.8406 75.1945 70.8582 75.2383 70.9002L75.3507 71.0083C75.3882 71.0444 75.4074 71.0869 75.4083 71.1358C75.4092 71.1848 75.3916 71.2279 75.3554 71.2653L70.6466 76.1337C70.6105 76.1711 70.5929 76.2142 70.5938 76.2632C70.6009 76.3181 70.6201 76.3606 70.6513 76.3906L72.4319 78.1025C72.4694 78.1386 72.5127 78.1561 72.5617 78.1552C72.6108 78.1543 72.6535 78.1352 72.6896 78.0978L77.3803 73.2481C77.796 72.8183 78.0723 72.3145 78.2091 71.7367C78.3522 71.165 78.3449 70.5929 78.1872 70.0204C78.0297 69.4603 77.7323 68.9699 77.2949 68.5495L75.5331 66.8556ZM70.1315 72.1038C70.0815 72.0558 70.0558 71.995 70.0545 71.9216C70.0532 71.8482 70.0766 71.7866 70.1248 71.7367L72.8814 68.8867C72.9175 68.8493 72.9601 68.8302 73.0092 68.8293C73.0521 68.8224 73.0954 68.84 73.1391 68.882L73.2515 68.9901C73.289 69.0262 73.3082 69.0687 73.3091 69.1176C73.31 69.1666 73.2924 69.2097 73.2562 69.2471L70.4996 72.0971C70.4514 72.1469 70.3905 72.1725 70.3169 72.1739C70.2433 72.1752 70.1814 72.1519 70.1315 72.1038Z" fill="#1A1A1A"/>
<path d="M66.5956 77.6651C67.2233 77.3318 67.8423 77.2583 68.4527 77.4445C69.063 77.6307 69.554 78.0716 69.9255 78.7673C70.1746 79.2336 70.2971 79.6837 70.2931 80.1176C70.289 80.5515 70.1732 80.9417 69.9456 81.2882C69.7103 81.6388 69.3899 81.9218 68.9842 82.1372C68.5785 82.3526 68.1679 82.4577 67.7525 82.4525C67.3294 82.4515 66.9362 82.3315 66.5729 82.0927C66.2095 81.8539 65.9033 81.5013 65.6542 81.035C65.2826 80.3393 65.1897 79.6871 65.3755 79.0782C65.5612 78.4694 65.9679 77.9983 66.5956 77.6651ZM64.2038 84.528L62.2633 85.5582L63.4645 74.6175L65.405 73.5873L64.2038 84.528ZM67.257 78.9035C67.1116 78.9807 67.0338 79.1202 67.0236 79.3218C67.0098 79.5352 67.0968 79.8177 67.2847 80.1693C67.4725 80.521 67.657 80.7469 67.8382 80.8469C68.0158 80.9587 68.1773 80.976 68.3227 80.8987C68.4682 80.8215 68.5478 80.6762 68.5615 80.4629C68.5717 80.2612 68.4829 79.9846 68.2951 79.6329C68.1073 79.2812 67.9246 79.0495 67.747 78.9378C67.5658 78.8377 67.4025 78.8263 67.257 78.9035ZM58.6841 77.0083C59.3118 76.675 59.9308 76.6015 60.5412 76.7877C61.1516 76.9739 61.6425 77.4148 62.0141 78.1105C62.2632 78.5768 62.3857 79.0269 62.3816 79.4608C62.3776 79.8947 62.2617 80.2849 62.0341 80.6314C61.7989 80.982 61.4784 81.265 61.0727 81.4804C60.667 81.6957 60.2565 81.8009 59.8411 81.7957C59.418 81.7947 59.0248 81.6747 58.6614 81.4359C58.298 81.1971 57.9918 80.8445 57.7428 80.3782C57.3712 79.6825 57.2783 79.0303 57.464 78.4214C57.6497 77.8126 58.0564 77.3415 58.6841 77.0083ZM59.3456 78.2467C59.2002 78.3239 59.1223 78.4633 59.1121 78.665C59.0984 78.8784 59.1854 79.1609 59.3732 79.5125C59.561 79.8642 59.7455 80.09 59.9267 80.1901C60.1043 80.3019 60.2658 80.3191 60.4113 80.2419C60.5567 80.1647 60.6363 80.0194 60.6501 79.8061C60.6603 79.6044 60.5715 79.3277 60.3836 78.9761C60.1958 78.6244 60.0131 78.3927 59.8355 78.281C59.6543 78.1809 59.491 78.1695 59.3456 78.2467Z" fill="#1A1A1A"/>
<path d="M46.5691 83.3656L48.6979 83.1025L48.4413 81.0384L50.7636 80.7514L51.0202 82.8156L53.149 82.5525L53.4217 84.7456L51.2929 85.0087L51.5495 87.0728L49.2271 87.3598L48.9705 85.2957L46.8417 85.5587L46.5691 83.3656Z" fill="#1A1A1A"/>
<path d="M37.3281 87.3338C37.8508 87.4582 38.3669 87.4428 38.8763 87.2879C39.3752 87.1393 39.8078 86.877 40.1741 86.5009C40.5299 86.1312 40.7694 85.6893 40.8924 85.1751C41.0155 84.661 40.9978 84.1579 40.8393 83.6659C41.1001 83.4696 41.3217 83.2328 41.5039 82.9554C41.6861 82.678 41.8166 82.375 41.8953 82.0463C42.0163 81.5406 42.0028 81.0385 41.8548 80.54C41.6963 80.048 41.4323 79.6244 41.0628 79.2692C40.6849 78.9121 40.2388 78.6723 39.7245 78.5499L34.9439 77.4126C34.4296 77.2902 33.9272 77.3043 33.4367 77.4549C32.9377 77.6035 32.5103 77.8626 32.1545 78.2323C31.7882 78.6084 31.5446 79.0493 31.4235 79.555C31.3449 79.8837 31.324 80.2128 31.361 80.5423C31.3896 80.8698 31.4758 81.1799 31.6196 81.4724C31.2618 81.8505 31.0223 82.2925 30.9013 82.7982C30.7782 83.3123 30.796 83.8154 30.9544 84.3075C31.1025 84.8059 31.3697 85.2347 31.756 85.5939C32.1319 85.9595 32.577 86.2035 33.0913 86.3258L37.3281 87.3338ZM37.582 83.7595C37.7001 83.7876 37.79 83.8402 37.8517 83.9172C37.905 83.9923 37.9176 84.0888 37.8893 84.2068C37.8631 84.3164 37.806 84.3874 37.718 84.4199C37.628 84.4609 37.5282 84.4683 37.4186 84.4422L34.3075 83.7021C34.1978 83.676 34.1122 83.6244 34.0504 83.5474C33.9782 83.4767 33.9552 83.3866 33.9814 83.2771C34.0097 83.1591 34.0688 83.0796 34.1588 83.0386C34.2488 82.9977 34.3528 82.9913 34.4709 83.0194L37.582 83.7595ZM38.2175 81.1045C38.3355 81.1326 38.4254 81.1852 38.4872 81.2622C38.5405 81.3373 38.553 81.4338 38.5248 81.5518C38.4986 81.6614 38.4415 81.7324 38.3535 81.7649C38.2635 81.8059 38.1637 81.8133 38.0541 81.7872L34.9429 81.0471C34.8333 81.021 34.7476 80.9694 34.6859 80.8924C34.6136 80.8217 34.5906 80.7316 34.6169 80.6221C34.6451 80.5041 34.7042 80.4246 34.7942 80.3836C34.8842 80.3427 34.9883 80.3363 35.1063 80.3643L38.2175 81.1045Z" fill="#CF1616"/>
<path d="M30.5237 79.7214C30.8368 79.2018 30.9989 78.6473 31.01 78.0579C31.0092 77.4715 30.8677 76.917 30.5856 76.3945C30.299 75.8793 29.8991 75.4682 29.3861 75.1609L25.728 72.97C25.2819 72.7028 24.8059 72.5693 24.2999 72.5693C23.7866 72.5649 23.3102 72.6837 22.871 72.9258C22.4198 73.1708 22.0601 73.516 21.7917 73.9614C21.5233 74.4068 21.3889 74.8818 21.3883 75.3866C21.3758 75.8943 21.4943 76.3694 21.7438 76.8118C21.9814 77.2571 22.3232 77.6134 22.7693 77.8806L26.4497 80.0848C26.4869 80.1071 26.5129 80.1479 26.5277 80.2073C26.544 80.2474 26.5365 80.2934 26.5052 80.3453L26.4247 80.479C26.3979 80.5235 26.3606 80.5517 26.313 80.5636C26.2654 80.5755 26.2193 80.5681 26.1746 80.5413L20.3641 77.0613C20.3194 77.0346 20.2733 77.0272 20.2257 77.0391C20.1736 77.0584 20.1364 77.0866 20.114 77.1237L18.8393 79.2393C18.8124 79.2839 18.8049 79.3299 18.8168 79.3774C18.8286 79.4249 18.8569 79.462 18.9015 79.4887L24.6898 82.9554C25.2028 83.2627 25.7569 83.4178 26.3521 83.4207C26.9429 83.431 27.5003 83.2951 28.0244 83.013C28.5367 82.7338 28.9493 82.3344 29.2624 81.8148L30.5237 79.7214ZM24.187 75.6536C24.2228 75.5942 24.2764 75.5556 24.3479 75.5377C24.4193 75.5199 24.4848 75.5288 24.5442 75.5644L27.9458 77.6017C27.9905 77.6284 28.0187 77.6655 28.0305 77.713C28.0469 77.7531 28.0394 77.7991 28.0081 77.8511L27.9275 77.9847C27.9007 78.0293 27.8635 78.0575 27.8158 78.0693C27.7682 78.0812 27.7221 78.0738 27.6775 78.0471L24.2759 76.0098C24.2164 75.9742 24.1778 75.9208 24.16 75.8495C24.1422 75.7783 24.1512 75.7129 24.187 75.6536Z" fill="#CF1616"/>
<path d="M17.9808 73.4953C18.4482 74.0306 18.66 74.6157 18.6161 75.2505C18.5722 75.8854 18.2524 76.4613 17.6568 76.9783C17.2576 77.3249 16.8456 77.5448 16.4208 77.6381C15.996 77.7314 15.5886 77.7063 15.1986 77.5628C14.803 77.4127 14.4541 77.1647 14.152 76.8187C13.8498 76.4727 13.6543 76.0973 13.5654 75.6925C13.4709 75.2811 13.4991 74.8721 13.6503 74.4655C13.8015 74.0588 14.0767 73.6822 14.4759 73.3357C15.0715 72.8187 15.6877 72.5822 16.3245 72.6263C16.9612 72.6703 17.5133 72.96 17.9808 73.4953ZM10.7358 72.709L9.29069 71.0541L20.2502 69.7696L21.6953 71.4244L10.7358 72.709ZM16.9205 74.4156C16.8122 74.2916 16.6584 74.2472 16.4591 74.2825C16.2475 74.3169 15.9912 74.4648 15.6901 74.7262C15.3891 74.9875 15.2101 75.2174 15.1533 75.4159C15.0843 75.6135 15.1039 75.7744 15.2122 75.8984C15.3206 76.0224 15.4805 76.0672 15.692 76.0328C15.8913 75.9975 16.1415 75.8492 16.4426 75.5879C16.7437 75.3265 16.9287 75.097 16.9978 74.8994C17.0546 74.7009 17.0288 74.5397 16.9205 74.4156ZM16.834 65.6598C17.3014 66.1951 17.5132 66.7802 17.4693 67.4151C17.4254 68.05 17.1056 68.6259 16.51 69.1429C16.1108 69.4894 15.6988 69.7093 15.274 69.8026C14.8492 69.8959 14.4418 69.8708 14.0518 69.7273C13.6562 69.5773 13.3073 69.3293 13.0052 68.9833C12.703 68.6373 12.5075 68.2619 12.4186 67.857C12.3241 67.4457 12.3523 67.0366 12.5035 66.63C12.6547 66.2234 12.9299 65.8468 13.3291 65.5002C13.9247 64.9833 14.5409 64.7468 15.1777 64.7908C15.8144 64.8349 16.3665 65.1245 16.834 65.6598ZM15.7737 66.5802C15.6654 66.4561 15.5116 66.4118 15.3123 66.4471C15.1007 66.4815 14.8444 66.6294 14.5433 66.8907C14.2423 67.152 14.0633 67.3819 14.0065 67.5804C13.9375 67.7781 13.9571 67.9389 14.0655 68.0629C14.1738 68.187 14.3337 68.2318 14.5452 68.1973C14.7446 68.162 14.9947 68.0137 15.2958 67.7524C15.5969 67.4911 15.7819 67.2616 15.851 67.0639C15.9078 66.8655 15.882 66.7042 15.7737 66.5802Z" fill="#CF1616"/>
<path d="M7.88052 55.375L8.62093 57.3881L10.5745 56.674L11.3822 58.8701L9.42865 59.5843L10.1691 61.5975L8.09341 62.3563L7.353 60.3431L5.39946 61.0573L4.59174 58.8611L6.54528 58.147L5.80487 56.1338L7.88052 55.375Z" fill="#1A1A1A"/>
<path d="M1.92732 47.3256C1.92316 47.8629 2.05363 48.3623 2.31874 48.8237C2.57524 49.2763 2.92778 49.6387 3.37635 49.9108C3.81632 50.1742 4.30064 50.3079 4.82929 50.312C5.35794 50.3161 5.8443 50.1855 6.28836 49.9202C6.53808 50.1302 6.8185 50.2927 7.12961 50.4077C7.44073 50.5228 7.76529 50.5816 8.10328 50.5842C8.62326 50.5882 9.10959 50.462 9.56225 50.2054C10.0063 49.9402 10.3601 49.5876 10.6235 49.1476C10.887 48.6989 11.0207 48.2103 11.0248 47.6816L11.0629 42.7678C11.067 42.2391 10.9407 41.7528 10.6842 41.3088C10.4277 40.8562 10.0794 40.4981 9.63946 40.2347C9.19089 39.9626 8.70661 39.8246 8.18663 39.8205C7.84864 39.8179 7.52321 39.8718 7.21035 39.982C6.89755 40.0836 6.61469 40.2375 6.36175 40.4435C5.91311 40.1801 5.4288 40.0463 4.90881 40.0423C4.38016 40.0383 3.8938 40.1689 3.44973 40.4341C2.99707 40.6906 2.63896 41.0476 2.37541 41.5049C2.10326 41.9535 1.96514 42.4421 1.96105 42.9707L1.92732 47.3256ZM5.46775 46.7678C5.46681 46.8892 5.43571 46.9886 5.37444 47.0661C5.31324 47.135 5.22197 47.1689 5.10064 47.168C4.98798 47.1671 4.90595 47.1275 4.85455 47.0491C4.79449 46.9707 4.7649 46.8751 4.76577 46.7624L4.79053 43.5645C4.79141 43.4519 4.82248 43.3568 4.88375 43.2792C4.93642 43.193 5.01908 43.1503 5.13175 43.1511C5.25308 43.1521 5.34377 43.1918 5.40383 43.2702C5.46389 43.3487 5.49345 43.4486 5.49251 43.5699L5.46775 46.7678ZM8.19767 46.7888C8.19673 46.9102 8.16563 47.0096 8.10436 47.0871C8.04315 47.156 7.95189 47.19 7.83056 47.189C7.7179 47.1882 7.63587 47.1485 7.58447 47.0701C7.52441 46.9917 7.49482 46.8961 7.49569 46.7834L7.52045 43.5855C7.52133 43.4729 7.5524 43.3778 7.61367 43.3002C7.66634 43.214 7.749 43.1713 7.86166 43.1721C7.98299 43.1731 8.07369 43.2128 8.13375 43.2912C8.19381 43.3697 8.22337 43.4696 8.22243 43.5909L8.19767 46.7888Z" fill="#1A1A1A"/>
<path d="M7.79239 38.9638C8.3696 39.1505 8.94705 39.1825 9.52476 39.0597C10.0969 38.926 10.6064 38.6628 11.0533 38.2699C11.4919 37.8744 11.8038 37.3924 11.9889 36.8237L13.3087 32.7691C13.4697 32.2747 13.4935 31.7814 13.3803 31.2893C13.2697 30.789 13.0472 30.3526 12.7127 29.9802C12.3727 29.5969 11.9553 29.3252 11.4605 29.1651C10.9658 29.005 10.472 28.9819 9.97924 29.0957C9.48091 29.1987 9.04378 29.4216 8.66784 29.7645C8.28634 30.0965 8.01511 30.5098 7.85415 31.0042L6.52626 35.0835C6.51285 35.1247 6.47882 35.1593 6.42418 35.1871C6.38871 35.2121 6.34212 35.2152 6.2844 35.1966L6.13598 35.1485C6.0865 35.1325 6.05064 35.1027 6.02839 35.0591C6.00613 35.0154 6.00305 34.9689 6.01915 34.9194L8.1156 28.4791C8.1317 28.4296 8.12862 28.3831 8.10636 28.3394C8.07587 28.2931 8.04 28.2633 7.99877 28.25L5.64873 27.4896C5.59926 27.4736 5.55266 27.4767 5.50895 27.499C5.46524 27.5213 5.43533 27.5572 5.41924 27.6066L3.33083 34.0223C3.14573 34.5909 3.11835 35.165 3.24868 35.7446C3.37076 36.3216 3.62811 36.833 4.02072 37.2788C4.40776 37.7137 4.88989 38.0246 5.46709 38.2114L7.79239 38.9638ZM10.3449 31.8784C10.4108 31.8998 10.4605 31.9432 10.4939 32.0086C10.5273 32.0741 10.5332 32.1398 10.5118 32.2057L9.28447 35.976C9.26838 36.0254 9.23847 36.0613 9.19476 36.0836C9.15929 36.1086 9.1127 36.1117 9.05498 36.093L8.90655 36.045C8.85708 36.029 8.82121 35.9992 8.79896 35.9555C8.77671 35.9119 8.77363 35.8654 8.78973 35.8159L10.017 32.0456C10.0385 31.9797 10.082 31.93 10.1476 31.8966C10.2131 31.8632 10.2789 31.8571 10.3449 31.8784Z" fill="#1A1A1A"/>
<path d="M11.0112 25.4114C10.5923 25.9855 10.0677 26.3223 9.43723 26.4218C8.80678 26.5212 8.17234 26.3395 7.5339 25.8764C7.10593 25.5661 6.7989 25.2149 6.6128 24.823C6.4267 24.4311 6.36024 24.0296 6.41341 23.6185C6.4717 23.2004 6.63621 22.8059 6.90695 22.4348C7.17768 22.0637 7.501 21.7897 7.87691 21.6127C8.25792 21.4286 8.66408 21.3646 9.09537 21.4204C9.52666 21.4762 9.95629 21.6594 10.3843 21.9697C11.0227 22.4328 11.3915 22.9786 11.4907 23.6072C11.5899 24.2359 11.4301 24.8373 11.0112 25.4114ZM10.1614 18.1949L11.4563 16.42L15.1604 26.7825L13.8654 28.5573L10.1614 18.1949ZM9.87464 24.5871C9.9717 24.4541 9.98072 24.2947 9.9017 24.1089C9.82077 23.911 9.61894 23.6951 9.29622 23.461C8.97349 23.227 8.70876 23.1046 8.50204 23.0938C8.29341 23.071 8.14057 23.1261 8.04351 23.2591C7.94645 23.3921 7.93839 23.5576 8.01932 23.7554C8.09834 23.9412 8.29921 24.1511 8.62194 24.3852C8.94467 24.6192 9.21034 24.7477 9.41897 24.7705C9.6257 24.7813 9.77759 24.7201 9.87464 24.5871ZM18.4148 22.5425C17.9959 23.1166 17.4713 23.4534 16.8408 23.5529C16.2104 23.6524 15.5759 23.4706 14.9375 23.0076C14.5095 22.6972 14.2025 22.3461 14.0164 21.9542C13.8303 21.5623 13.7638 21.1608 13.817 20.7497C13.8753 20.3316 14.0398 19.937 14.3105 19.566C14.5813 19.1949 14.9046 18.9209 15.2805 18.7438C15.6615 18.5598 16.0677 18.4957 16.4989 18.5516C16.9302 18.6074 17.3599 18.7905 17.7878 19.1009C18.4263 19.5639 18.7951 20.1098 18.8943 20.7384C18.9935 21.3671 18.8337 21.9684 18.4148 22.5425ZM17.2782 21.7183C17.3753 21.5852 17.3843 21.4258 17.3053 21.2401C17.2243 21.0422 17.0225 20.8262 16.6998 20.5922C16.3771 20.3581 16.1123 20.2357 15.9056 20.225C15.697 20.2021 15.5441 20.2572 15.4471 20.3902C15.35 20.5233 15.342 20.6887 15.4229 20.8866C15.5019 21.0724 15.7028 21.2823 16.0255 21.5163C16.3482 21.7504 16.6139 21.8788 16.8226 21.9017C17.0293 21.9124 17.1812 21.8513 17.2782 21.7183Z" fill="#1A1A1A"/>
<path d="M26.5002 11.4655L24.7017 12.6344L25.8399 14.3753L23.8778 15.6504L22.7396 13.9095L20.9411 15.0783L19.7317 13.2286L21.5303 12.0597L20.392 10.3188L22.3541 9.04368L23.4923 10.7846L25.2909 9.61576L26.5002 11.4655Z" fill="#CF1616"/>
<path d="M32.7253 3.9078C32.2012 4.0262 31.7449 4.267 31.3564 4.6302C30.9744 4.98304 30.7023 5.40879 30.5401 5.90745C30.3845 6.39575 30.3652 6.89766 30.4824 7.41318C30.5995 7.9287 30.8381 8.37237 31.1981 8.74418C31.051 9.0351 30.957 9.34509 30.9162 9.67416C30.8755 10.0032 30.8925 10.3326 30.9675 10.6622C31.0827 11.1692 31.3171 11.6138 31.6705 11.996C32.0306 12.3678 32.4549 12.6318 32.9437 12.7879C33.4409 12.9422 33.9473 12.961 34.463 12.8445L39.2562 11.7617C39.7719 11.6453 40.2165 11.4115 40.59 11.0606C40.972 10.7078 41.2408 10.2872 41.3965 9.79891C41.5586 9.30025 41.5821 8.79738 41.4669 8.29031C41.392 7.96071 41.265 7.65621 41.086 7.37679C40.9154 7.09547 40.7008 6.85518 40.4422 6.65593C40.5959 6.15918 40.6152 5.65726 40.5 5.15019C40.3828 4.63467 40.1442 4.19101 39.7842 3.8192C39.4307 3.43703 39.0011 3.16978 38.4955 3.01746C37.9963 2.85478 37.4889 2.83168 36.9733 2.94818L32.7253 3.9078ZM34.0796 7.22697C33.9612 7.25371 33.8573 7.24609 33.7677 7.20412C33.6867 7.16024 33.6327 7.07914 33.6058 6.96082C33.5808 6.85096 33.6006 6.76208 33.6652 6.69418C33.7278 6.61784 33.8141 6.56725 33.924 6.54243L37.0434 5.83775C37.1533 5.81292 37.253 5.8215 37.3425 5.86347C37.4386 5.89508 37.4991 5.96581 37.5241 6.07568C37.551 6.194 37.5331 6.29133 37.4704 6.36767C37.4078 6.44402 37.3173 6.49556 37.199 6.52229L34.0796 7.22697ZM34.6846 9.88909C34.5662 9.91583 34.4623 9.90821 34.3727 9.86624C34.2917 9.82236 34.2377 9.74126 34.2108 9.62294C34.1858 9.51308 34.2056 9.4242 34.2702 9.3563C34.3328 9.27996 34.4191 9.22937 34.529 9.20454L37.6484 8.49987C37.7583 8.47504 37.858 8.48361 37.9475 8.52558C38.0436 8.55719 38.1041 8.62793 38.1291 8.7378C38.156 8.85611 38.1381 8.95344 38.0754 9.02979C38.0128 9.10614 37.9223 9.15768 37.804 9.18441L34.6846 9.88909Z" fill="#CF1616"/>
<path d="M42.4225 7.67194C42.3711 8.27643 42.4706 8.8459 42.7208 9.38037C42.9805 9.90693 43.3522 10.343 43.836 10.6886C44.3205 11.0255 44.8607 11.2193 45.4565 11.27L49.7052 11.6314C50.2233 11.6754 50.7093 11.5863 51.1631 11.364C51.6255 11.1424 52.0003 10.8263 52.2875 10.4158C52.584 9.99747 52.7543 9.52922 52.7984 9.01109C52.8425 8.49296 52.7533 8.00699 52.531 7.55318C52.318 7.09147 52.002 6.71667 51.5829 6.42878C51.1731 6.133 50.7092 5.96307 50.1911 5.919L45.9165 5.55543C45.8733 5.55176 45.832 5.5265 45.7925 5.47965C45.7601 5.4508 45.7465 5.40616 45.7517 5.34571L45.7649 5.19027C45.7693 5.13846 45.7902 5.09675 45.8277 5.06514C45.8652 5.03354 45.9098 5.01994 45.9617 5.02435L52.7103 5.59834C52.7621 5.60275 52.8068 5.58915 52.8442 5.55755C52.8824 5.51731 52.9034 5.4756 52.9071 5.43242L53.1164 2.97131C53.1208 2.9195 53.1072 2.87485 53.0756 2.83737C53.044 2.79989 53.0023 2.77895 52.9505 2.77454L46.2277 2.20275C45.6319 2.15207 45.0664 2.25618 44.5312 2.51509C43.9967 2.76536 43.5567 3.13239 43.2111 3.61618C42.8749 4.09207 42.6811 4.63225 42.6297 5.23673L42.4225 7.67194ZM49.9026 8.543C49.8968 8.61208 49.8657 8.67032 49.8095 8.71773C49.7533 8.76514 49.6906 8.7859 49.6215 8.78003L45.6708 8.444C45.619 8.43959 45.5773 8.41865 45.5457 8.38117C45.5133 8.35233 45.4997 8.30768 45.5049 8.24723L45.5181 8.09179C45.5225 8.03998 45.5435 7.99827 45.5809 7.96667C45.6184 7.93506 45.6631 7.92147 45.7149 7.92587L49.6656 8.2619C49.7347 8.26777 49.7929 8.29882 49.8403 8.35504C49.8877 8.41126 49.9085 8.47391 49.9026 8.543Z" fill="#CF1616"/>
<path d="M56.6488 7.76792C55.995 7.48934 55.5496 7.05462 55.3125 6.46375C55.0755 5.87287 55.1123 5.215 55.423 4.49012C55.6313 4.00422 55.9063 3.62679 56.2479 3.35783C56.5895 3.08888 56.967 2.93413 57.3804 2.89361C57.8017 2.85648 58.2237 2.92794 58.6463 3.108C59.0689 3.28805 59.4083 3.54103 59.6646 3.86692C59.9289 4.19621 60.0817 4.57687 60.1228 5.0089C60.1639 5.44092 60.0803 5.89988 59.872 6.38579C59.5613 7.11067 59.1098 7.59188 58.5177 7.82944C57.9255 8.067 57.3026 8.04649 56.6488 7.76792ZM63.5105 5.32189L65.5316 6.18309L56.2297 12.1112L54.2085 11.25L63.5105 5.32189ZM57.2019 6.47748C57.3534 6.54202 57.5111 6.51503 57.6751 6.39648C57.8505 6.27336 58.0167 6.0286 58.1737 5.66218C58.3308 5.29575 58.3917 5.0108 58.3563 4.80733C58.3323 4.59928 58.2446 4.46298 58.0931 4.39844C57.9416 4.33389 57.7782 4.36317 57.6029 4.48629C57.4389 4.60483 57.2784 4.84732 57.1213 5.21374C56.9642 5.58016 56.8977 5.86739 56.9217 6.07544C56.957 6.27892 57.0504 6.41293 57.2019 6.47748ZM61.0938 14.3251C60.44 14.0465 59.9946 13.6118 59.7576 13.0209C59.5205 12.4301 59.5574 11.7722 59.8681 11.0473C60.0764 10.5614 60.3513 10.184 60.6929 9.91503C61.0345 9.64607 61.412 9.49133 61.8254 9.4508C62.2468 9.41367 62.6688 9.48514 63.0914 9.66519C63.5139 9.84525 63.8534 10.0982 64.1097 10.4241C64.374 10.7534 64.5267 11.1341 64.5678 11.5661C64.609 11.9981 64.5254 12.4571 64.3171 12.943C64.0064 13.6679 63.5549 14.1491 62.9628 14.3866C62.3706 14.6242 61.7476 14.6037 61.0938 14.3251ZM61.647 13.0347C61.7985 13.0992 61.9562 13.0722 62.1202 12.9537C62.2955 12.8306 62.4617 12.5858 62.6188 12.2194C62.7759 11.8529 62.8367 11.568 62.8014 11.3645C62.7774 11.1565 62.6897 11.0202 62.5382 10.9556C62.3867 10.8911 62.2233 10.9204 62.0479 11.0435C61.884 11.162 61.7234 11.4045 61.5664 11.7709C61.4093 12.1374 61.3428 12.4246 61.3667 12.6326C61.4021 12.8361 61.4955 12.9701 61.647 13.0347Z" fill="#CF1616"/>
<path d="M73.6419 19.6412L72.0956 18.1546L70.6495 19.6497L68.9627 18.0279L70.4087 16.5328L68.8625 15.0462L70.3989 13.4577L71.9452 14.9443L73.3913 13.4492L75.0781 15.071L73.632 16.5661L75.1783 18.0527L73.6419 19.6412Z" fill="#1A1A1A"/>
<path d="M82.5375 24.1975C82.3039 23.7136 81.9662 23.3229 81.5242 23.0255C81.0939 22.7321 80.6172 22.5619 80.0941 22.5149C79.5826 22.472 79.0885 22.5649 78.6119 22.7936C78.1352 23.0223 77.756 23.3532 77.4743 23.7864C77.1573 23.7078 76.8337 23.6853 76.5034 23.7188C76.1731 23.7523 75.8556 23.8422 75.5509 23.9884C75.0821 24.2133 74.701 24.5404 74.4077 24.9695C74.126 25.4026 73.964 25.8745 73.9218 26.385C73.8833 26.9034 73.979 27.4006 74.2088 27.8767L76.345 32.302C76.5748 32.7781 76.903 33.159 77.3296 33.4445C77.7599 33.7379 78.2308 33.9061 78.7424 33.949C79.2655 33.996 79.7614 33.907 80.2303 33.6821C80.535 33.5358 80.8035 33.3445 81.0358 33.1081C81.2719 32.8794 81.4581 32.6171 81.5942 32.321C82.1136 32.3602 82.6076 32.2673 83.0765 32.0424C83.5531 31.8137 83.9323 31.4827 84.214 31.0496C84.5073 30.6205 84.6713 30.1428 84.706 29.6167C84.7523 29.0946 84.6606 28.5955 84.4307 28.1194L82.5375 24.1975ZM79.6038 26.254C79.5511 26.1448 79.5351 26.0419 79.5559 25.9454C79.5804 25.8567 79.6474 25.7861 79.7568 25.7336C79.8584 25.6849 79.9496 25.6844 80.0304 25.7321C80.119 25.7761 80.1878 25.8489 80.2367 25.9503L81.627 28.8303C81.676 28.9318 81.6901 29.0308 81.6693 29.1273C81.6601 29.2278 81.6047 29.3024 81.5031 29.3512C81.3937 29.4037 81.2947 29.4079 81.2061 29.3639C81.1175 29.3199 81.0468 29.2433 80.9941 29.134L79.6038 26.254ZM77.1425 27.435C77.0898 27.3258 77.0738 27.2229 77.0946 27.1264C77.1191 27.0377 77.1861 26.9671 77.2955 26.9146C77.3971 26.8659 77.4882 26.8654 77.569 26.9132C77.6576 26.9572 77.7264 27.0299 77.7754 27.1314L79.1657 30.0114C79.2146 30.1128 79.2287 30.2118 79.208 30.3083C79.1987 30.4088 79.1434 30.4835 79.0418 30.5322C78.9324 30.5847 78.8334 30.5889 78.7448 30.5449C78.6562 30.5009 78.5855 30.4243 78.5328 30.315L77.1425 27.435Z" fill="#1A1A1A"/>
<path d="M80.946 34.2307C80.3454 34.3166 79.8131 34.5416 79.3489 34.9056C78.8945 35.2771 78.5536 35.7373 78.3261 36.2864C78.1073 36.8342 78.0404 37.4041 78.1256 37.996L78.733 42.2165C78.8071 42.7312 79.0037 43.1846 79.3228 43.5767C79.6431 43.9774 80.0357 44.2714 80.5005 44.4588C80.9751 44.6536 81.4697 44.7142 81.9845 44.6405C82.4992 44.5669 82.9526 44.3707 83.3445 44.052C83.7463 43.7406 84.0401 43.3484 84.2259 42.8753C84.4215 42.4096 84.4823 41.9194 84.4083 41.4047L83.7971 37.1584C83.791 37.1155 83.8062 37.0696 83.843 37.0205C83.8638 36.9825 83.9042 36.9592 83.9642 36.9506L84.1187 36.9286C84.1701 36.9212 84.2155 36.9322 84.2548 36.9616C84.294 36.991 84.3174 37.0315 84.3248 37.0829L85.2896 43.7869C85.297 43.8383 85.3203 43.8788 85.3596 43.9082C85.4074 43.9363 85.4528 43.9474 85.4957 43.9412L87.9408 43.5914C87.9923 43.5841 88.0327 43.5608 88.0621 43.5216C88.0914 43.4823 88.1024 43.437 88.095 43.3855L87.1339 36.7073C87.0487 36.1154 86.8196 35.5879 86.4465 35.1247C86.0819 34.6603 85.625 34.3142 85.0756 34.0864C84.536 33.8659 83.9659 33.7986 83.3654 33.8846L80.946 34.2307ZM81.7866 41.714C81.718 41.7239 81.6542 41.7067 81.5953 41.6626C81.5364 41.6185 81.502 41.5621 81.4922 41.4935L80.9274 37.569C80.9199 37.5175 80.9309 37.4721 80.9603 37.4329C80.9811 37.3949 81.0215 37.3716 81.0816 37.363L81.236 37.3409C81.2875 37.3336 81.3329 37.3446 81.3721 37.374C81.4114 37.4034 81.4347 37.4438 81.4421 37.4953L82.0069 41.4199C82.0168 41.4885 81.9997 41.5522 81.9556 41.6111C81.9116 41.6699 81.8552 41.7042 81.7866 41.714Z" fill="#1A1A1A"/>
</svg>
