<svg width="198" height="55" viewBox="0 0 198 55" fill="none" xmlns="http://www.w3.org/2000/svg">
<path d="M37.55 33.45V34.45H38.55V33.45H37.55ZM26 33.45V32.45H25V33.45H26ZM26 44.65V45.65H27V44.65H26ZM13.4 44.65H12.4V45.65H13.4V44.65ZM13.4 33.45H14.4V32.45H13.4V33.45ZM1.85 33.45H0.85V34.45H1.85V33.45ZM1.85 21.55V20.55H0.85V21.55H1.85ZM13.4 21.55V22.55H14.4V21.55H13.4ZM13.4 10.35V9.35H12.4V10.35H13.4ZM26 10.35H27V9.35H26V10.35ZM26 21.55H25V22.55H26V21.55ZM37.55 21.55H38.55V20.55H37.55V21.55ZM37.55 32.45H26V34.45H37.55V32.45ZM25 33.45V44.65H27V33.45H25ZM26 43.65H13.4V45.65H26V43.65ZM14.4 44.65V33.45H12.4V44.65H14.4ZM13.4 32.45H1.85V34.45H13.4V32.45ZM2.85 33.45V21.55H0.85V33.45H2.85ZM1.85 22.55H13.4V20.55H1.85V22.55ZM14.4 21.55V10.35H12.4V21.55H14.4ZM13.4 11.35H26V9.35H13.4V11.35ZM25 10.35V21.55H27V10.35H25ZM26 22.55H37.55V20.55H26V22.55ZM36.55 21.55V33.45H38.55V21.55H36.55ZM80.5382 26.17L79.9149 25.388L78.8074 26.2708L80.0099 27.0191L80.5382 26.17ZM85.3682 31L84.5052 31.5052L84.5125 31.5177L84.5202 31.53L85.3682 31ZM84.3182 45.7L83.5313 45.0828L83.5238 45.0926L84.3182 45.7ZM76.5482 51.23L76.9037 52.1647L76.9107 52.162L76.5482 51.23ZM53.6582 51.23L53.2913 52.1603L53.2992 52.1634L53.3071 52.1663L53.6582 51.23ZM45.8882 45.7L45.0938 46.3075L45.1013 46.3171L45.8882 45.7ZM44.8382 31L43.9844 30.4794L43.9807 30.4855L44.8382 31ZM49.7382 26.17L50.2665 27.0191L51.469 26.2708L50.3615 25.388L49.7382 26.17ZM47.4282 8.81L46.6424 8.19138L46.6343 8.20192L47.4282 8.81ZM54.5682 3.7L54.2017 2.76958L54.1968 2.77152L54.5682 3.7ZM75.6382 3.7L75.2668 4.62848L75.2717 4.6304L75.6382 3.7ZM82.7782 8.81L81.9843 9.41813L81.9925 9.42856L82.7782 8.81ZM62.2682 14.13L61.5611 13.4229L61.5497 13.4343L61.5387 13.4461L62.2682 14.13ZM62.2682 20.29L61.5387 20.9739L61.5497 20.9857L61.5611 20.9971L62.2682 20.29ZM67.9382 20.29L67.2311 19.5829L67.2197 19.5943L67.2087 19.6061L67.9382 20.29ZM67.9382 14.13L67.2087 14.8139L67.2197 14.8257L67.2311 14.8371L67.9382 14.13ZM68.9882 40.59L68.3155 39.8501L68.3069 39.8579L68.2985 39.8659L68.9882 40.59ZM68.9882 33.17L68.2986 33.8941L68.3069 33.9021L68.3155 33.9099L68.9882 33.17ZM61.2182 33.17L60.5455 32.4301L60.5369 32.4379L60.5285 32.4459L61.2182 33.17ZM61.2182 40.59L60.5285 41.3141L60.5369 41.3221L60.5455 41.3299L61.2182 40.59ZM80.0099 27.0191C81.9883 28.25 83.4763 29.7475 84.5052 31.5052L86.2312 30.4948C85.0201 28.4258 83.2882 26.7033 81.0665 25.3209L80.0099 27.0191ZM84.5202 31.53C85.5775 33.2217 86.1182 35.1809 86.1182 37.44H88.1182C88.1182 34.8458 87.4922 32.5116 86.2162 30.47L84.5202 31.53ZM86.1182 37.44C86.1182 40.351 85.255 42.8852 83.5313 45.0829L85.1051 46.3171C87.1148 43.7548 88.1182 40.7823 88.1182 37.44H86.1182ZM83.5238 45.0926C81.8361 47.2996 79.4097 49.0443 76.1858 50.298L76.9107 52.162C80.4067 50.8024 83.1603 48.8604 85.1126 46.3074L83.5238 45.0926ZM76.1928 50.2953C73.0141 51.5041 69.335 52.12 65.1382 52.12V54.12C69.5281 54.12 73.4556 53.4759 76.9037 52.1647L76.1928 50.2953ZM65.1382 52.12C60.9418 52.12 57.2374 51.5042 54.0093 50.2937L53.3071 52.1663C56.799 53.4758 60.7479 54.12 65.1382 54.12V52.12ZM54.0251 50.2997C50.8475 49.0466 48.4139 47.2999 46.6751 45.0829L45.1013 46.3171C47.0958 48.8601 49.8423 50.8001 53.2913 52.1603L54.0251 50.2997ZM46.6826 45.0926C45.002 42.895 44.1582 40.3574 44.1582 37.44H42.1582C42.1582 40.776 43.1344 43.745 45.0938 46.3074L46.6826 45.0926ZM44.1582 37.44C44.1582 35.1732 44.6794 33.2084 45.6957 31.5145L43.9807 30.4855C42.7571 32.5249 42.1582 34.8534 42.1582 37.44H44.1582ZM45.692 31.5206C46.7692 29.754 48.2852 28.2519 50.2665 27.0191L49.2099 25.3209C46.9912 26.7015 45.2406 28.4193 43.9844 30.4794L45.692 31.5206ZM50.3615 25.388C47.3622 22.9973 45.9082 20.0575 45.9082 16.51H43.9082C43.9082 20.7092 45.6742 24.2094 49.1149 26.952L50.3615 25.388ZM45.9082 16.51C45.9082 13.7748 46.6846 11.4253 48.2221 9.41807L46.6343 8.20192C44.8118 10.5814 43.9082 13.3652 43.9082 16.51H45.9082ZM48.2139 9.42856C49.8148 7.39499 52.0412 5.78784 54.9396 4.62847L54.1968 2.77152C51.0286 4.03882 48.4949 5.83833 46.6425 8.19144L48.2139 9.42856ZM54.9347 4.63041C57.8774 3.47119 61.2727 2.88 65.1382 2.88V0.879999C61.0704 0.879999 57.4191 1.50214 54.2017 2.76959L54.9347 4.63041ZM65.1382 2.88C69.0042 2.88 72.3739 3.47133 75.2668 4.62847L76.0096 2.77152C72.8358 1.502 69.2056 0.879999 65.1382 0.879999V2.88ZM75.2717 4.6304C78.2163 5.7904 80.435 7.39529 81.9843 9.41807L83.5721 8.20192C81.7615 5.83804 79.2201 4.03626 76.0047 2.76959L75.2717 4.6304ZM81.9925 9.42856C83.5726 11.4358 84.3682 13.7815 84.3682 16.51H86.3682C86.3682 13.3584 85.4371 10.5709 83.5639 8.19144L81.9925 9.42856ZM84.3682 16.51C84.3682 20.0575 82.9142 22.9973 79.9149 25.388L81.1615 26.952C84.6022 24.2094 86.3682 20.7092 86.3682 16.51H84.3682ZM65.1382 12.01C63.7368 12.01 62.5158 12.4682 61.5611 13.4229L62.9753 14.8371C63.5139 14.2985 64.2062 14.01 65.1382 14.01V12.01ZM61.5387 13.4461C60.6207 14.4252 60.2182 15.7223 60.2182 17.21H62.2182C62.2182 16.0844 62.5157 15.3281 62.9977 14.8139L61.5387 13.4461ZM60.2182 17.21C60.2182 18.6977 60.6207 19.9948 61.5387 20.9739L62.9977 19.6061C62.5157 19.0919 62.2182 18.3356 62.2182 17.21H60.2182ZM61.5611 20.9971C62.5158 21.9518 63.7368 22.41 65.1382 22.41V20.41C64.2062 20.41 63.5139 20.1215 62.9753 19.5829L61.5611 20.9971ZM65.1382 22.41C66.5388 22.41 67.7515 21.9513 68.6677 20.9739L67.2087 19.6061C66.7249 20.122 66.0709 20.41 65.1382 20.41V22.41ZM68.6453 20.9971C69.6219 20.0205 70.0582 18.7151 70.0582 17.21H68.0582C68.0582 18.3182 67.7478 19.0662 67.2311 19.5829L68.6453 20.9971ZM70.0582 17.21C70.0582 15.7049 69.6219 14.3995 68.6453 13.4229L67.2311 14.8371C67.7478 15.3538 68.0582 16.1018 68.0582 17.21H70.0582ZM68.6677 13.4461C67.7515 12.4687 66.5388 12.01 65.1382 12.01V14.01C66.0709 14.01 66.7249 14.298 67.2087 14.8139L68.6677 13.4461ZM65.1382 42.99C66.9343 42.99 68.4802 42.4547 69.6779 41.3141L68.2985 39.8659C67.5362 40.5919 66.5155 40.99 65.1382 40.99V42.99ZM69.6609 41.3299C70.9202 40.1851 71.5282 38.6673 71.5282 36.88H69.5282C69.5282 38.1727 69.1095 39.1283 68.3155 39.8501L69.6609 41.3299ZM71.5282 36.88C71.5282 35.0927 70.9202 33.5749 69.6609 32.4301L68.3155 33.9099C69.1095 34.6317 69.5282 35.5873 69.5282 36.88H71.5282ZM69.6779 32.4459C68.4802 31.3053 66.9343 30.77 65.1382 30.77V32.77C66.5155 32.77 67.5362 33.1681 68.2986 33.8941L69.6779 32.4459ZM65.1382 30.77C63.341 30.77 61.7827 31.3053 60.5455 32.4301L61.8909 33.9099C62.707 33.168 63.7621 32.77 65.1382 32.77V30.77ZM60.5285 32.4459C59.3223 33.5947 58.7482 35.1077 58.7482 36.88H60.7482C60.7482 35.5723 61.1541 34.612 61.9079 33.8941L60.5285 32.4459ZM58.7482 36.88C58.7482 38.6523 59.3223 40.1653 60.5285 41.3141L61.9079 39.8659C61.1541 39.148 60.7482 38.1877 60.7482 36.88H58.7482ZM60.5455 41.3299C61.7827 42.4547 63.341 42.99 65.1382 42.99V40.99C63.7621 40.99 62.707 40.592 61.8909 39.8501L60.5455 41.3299ZM125.81 22.25L125.356 23.1412L125.81 22.25ZM131.97 27.78L132.809 27.2367L131.97 27.78ZM131.62 45L130.792 44.4385L130.785 44.4487L131.62 45ZM124.48 51.02L124.061 50.112L124.48 51.02ZM102.01 50.39L101.548 51.2772L101.553 51.2797L102.01 50.39ZM93.8196 42.27L94.6975 41.7911L93.8196 42.27ZM94.2396 14.48L93.3659 13.9935L93.3617 14.0011L94.2396 14.48ZM103.76 5.1L103.296 4.21376L103.292 4.21596L103.76 5.1ZM126.44 2.93L126.185 3.89707L126.193 3.89917L126.201 3.90113L126.44 2.93ZM133.23 5.73L134.119 6.18796L134.533 5.38426L133.775 4.89156L133.23 5.73ZM127.28 17.28L126.7 18.0948L127.64 18.7638L128.169 17.738L127.28 17.28ZM111.32 16.86L111.929 17.6526L111.932 17.6504L111.32 16.86ZM107.75 23.02L106.77 22.8174L106.256 25.3053L108.328 23.8357L107.75 23.02ZM116.92 40.38L116.231 39.655H116.231L116.92 40.38ZM116.92 33.1L116.213 33.8071L116.222 33.8162L116.231 33.825L116.92 33.1ZM109.64 33.1L110.328 33.825L110.338 33.8162L110.347 33.8071L109.64 33.1ZM109.64 40.38L110.328 39.655L109.64 40.38ZM117.48 21.29C120.315 21.29 122.935 21.9087 125.356 23.1412L126.263 21.3588C123.551 19.9779 120.618 19.29 117.48 19.29V21.29ZM125.356 23.1412C127.768 24.3692 129.687 26.0937 131.13 28.3232L132.809 27.2367C131.172 24.7063 128.984 22.7441 126.263 21.3588L125.356 23.1412ZM131.13 28.3232C132.556 30.5274 133.28 33.0654 133.28 35.97H135.28C135.28 32.7146 134.463 29.7926 132.809 27.2367L131.13 28.3232ZM133.28 35.97C133.28 39.193 132.444 42.004 130.792 44.4385L132.447 45.5615C134.342 42.7693 135.28 39.5604 135.28 35.97H133.28ZM130.785 44.4487C129.168 46.8964 126.937 48.7846 124.061 50.112L124.899 51.928C128.089 50.4554 130.618 48.3302 132.454 45.5513L130.785 44.4487ZM124.061 50.112C121.172 51.4454 117.957 52.12 114.4 52.12V54.12C118.216 54.12 121.721 53.3946 124.899 51.928L124.061 50.112ZM114.4 52.12C109.816 52.12 105.848 51.2357 102.466 49.5003L101.553 51.2797C105.265 53.1843 109.556 54.12 114.4 54.12V52.12ZM102.471 49.5028C99.1542 47.7781 96.5661 45.2169 94.6975 41.7911L92.9417 42.7489C94.9931 46.5097 97.865 49.3619 101.548 51.2772L102.471 49.5028ZM94.6975 41.7911C92.8368 38.3799 91.8796 34.1446 91.8796 29.04H89.8796C89.8796 34.3887 90.8824 38.9735 92.9417 42.7489L94.6975 41.7911ZM91.8796 29.04C91.8796 23.5744 92.972 18.8922 95.1175 14.9589L93.3617 14.0011C91.0272 18.2811 89.8796 23.3056 89.8796 29.04H91.8796ZM95.1133 14.9665C97.3082 11.0246 100.342 8.03805 104.227 5.98403L103.292 4.21596C99.057 6.45528 95.7444 9.72202 93.3659 13.9935L95.1133 14.9665ZM104.223 5.98623C108.164 3.92594 112.76 2.88 118.04 2.88V0.879999C112.492 0.879999 107.568 1.98072 103.296 4.21377L104.223 5.98623ZM118.04 2.88C120.9 2.88 123.614 3.22038 126.185 3.89707L126.694 1.96292C123.946 1.23961 121.06 0.879999 118.04 0.879999V2.88ZM126.201 3.90113C128.776 4.53366 130.931 5.42842 132.685 6.56844L133.775 4.89156C131.795 3.6049 129.423 2.633 126.678 1.95886L126.201 3.90113ZM132.341 5.27204L126.391 16.822L128.169 17.738L134.119 6.18796L132.341 5.27204ZM127.859 16.4652C125.235 14.598 122.06 13.69 118.39 13.69V15.69C121.719 15.69 124.471 16.5086 126.7 18.0948L127.859 16.4652ZM118.39 13.69C115.368 13.69 112.783 14.4608 110.707 16.0696L111.932 17.6504C113.59 16.3658 115.718 15.69 118.39 15.69V13.69ZM110.71 16.0674C108.663 17.6418 107.369 19.9261 106.77 22.8174L108.729 23.2226C109.251 20.7005 110.336 18.8782 111.929 17.6526L110.71 16.0674ZM108.328 23.8357C110.688 22.1623 113.715 21.29 117.48 21.29V19.29C113.404 19.29 109.945 20.2377 107.171 22.2043L108.328 23.8357ZM113.28 42.71C114.985 42.71 116.46 42.1964 117.608 41.105L116.231 39.655C115.513 40.337 114.561 40.71 113.28 40.71V42.71ZM117.608 41.105C118.779 39.9929 119.32 38.496 119.32 36.74H117.32C117.32 38.064 116.927 38.9937 116.231 39.655L117.608 41.105ZM119.32 36.74C119.32 34.984 118.779 33.4871 117.608 32.375L116.231 33.825C116.927 34.4863 117.32 35.416 117.32 36.74H119.32ZM117.627 32.3929C116.481 31.2468 115 30.7 113.28 30.7V32.7C114.546 32.7 115.492 33.0866 116.213 33.8071L117.627 32.3929ZM113.28 30.7C111.559 30.7 110.079 31.2468 108.933 32.3929L110.347 33.8071C111.067 33.0866 112.014 32.7 113.28 32.7V30.7ZM108.951 32.375C107.78 33.4871 107.24 34.984 107.24 36.74H109.24C109.24 35.416 109.632 34.4863 110.328 33.825L108.951 32.375ZM107.24 36.74C107.24 38.496 107.78 39.9929 108.951 41.105L110.328 39.655C109.632 38.9937 109.24 38.064 109.24 36.74H107.24ZM108.951 41.105C110.1 42.1964 111.574 42.71 113.28 42.71V40.71C111.999 40.71 111.046 40.337 110.328 39.655L108.951 41.105ZM138.522 25.96L137.815 26.6671L138.522 25.96ZM136.562 8.6L137.44 9.07885L136.562 8.6ZM141.182 3.91L140.71 3.02817L140.701 3.0329L141.182 3.91ZM154.552 3.91L154.071 4.78714L154.08 4.79178L154.552 3.91ZM159.242 8.6L158.364 9.07885L159.242 8.6ZM157.282 25.96L157.989 26.6671L157.282 25.96ZM176.672 3V2H176.144L175.846 2.43608L176.672 3ZM188.502 3L189.328 3.56392L190.395 2H188.502V3ZM155.042 52V53H155.57L155.868 52.5639L155.042 52ZM143.212 52L142.386 51.4361L141.318 53H143.212V52ZM150.072 20.64L149.221 20.1136L149.214 20.1255L150.072 20.64ZM150.072 11.33L149.203 11.8261L149.218 11.851L149.233 11.875L150.072 11.33ZM145.662 11.33L144.811 10.8036L144.804 10.8155L145.662 11.33ZM145.662 20.64L144.793 21.1361L144.808 21.161L144.823 21.185L145.662 20.64ZM174.432 49.06L175.139 48.3529L174.432 49.06ZM172.472 31.7L171.594 31.2211L172.472 31.7ZM177.092 27.01L176.62 26.1282L176.611 26.1329L177.092 27.01ZM190.462 27.01L189.981 27.8871L189.99 27.8918L190.462 27.01ZM195.152 31.7L196.03 31.2211L195.152 31.7ZM193.192 49.06L192.485 48.3529L193.192 49.06ZM185.982 43.74L185.131 43.2136L185.124 43.2255L185.982 43.74ZM185.982 34.43L185.113 34.9261L185.128 34.951L185.143 34.975L185.982 34.43ZM181.572 34.43L180.721 33.9036L180.714 33.9155L181.572 34.43ZM181.572 43.74L180.703 44.2361L180.718 44.261L180.733 44.285L181.572 43.74ZM147.902 28.6C144.307 28.6 141.446 27.4697 139.229 25.2529L137.815 26.6671C140.451 29.3037 143.843 30.6 147.902 30.6V28.6ZM139.229 25.2529C137.032 23.0562 135.882 19.9982 135.882 15.95H133.882C133.882 20.3951 135.158 24.0105 137.815 26.6671L139.229 25.2529ZM135.882 15.95C135.882 13.2346 136.415 10.9566 137.44 9.07885L135.684 8.12115C134.468 10.35 133.882 12.972 133.882 15.95H135.882ZM137.44 9.07885C138.472 7.18534 139.878 5.76406 141.662 4.78709L140.701 3.0329C138.565 4.2026 136.891 5.90799 135.684 8.12115L137.44 9.07885ZM141.653 4.79178C143.503 3.80268 145.578 3.3 147.902 3.3V1.3C145.278 1.3 142.874 1.87065 140.71 3.02821L141.653 4.79178ZM147.902 3.3C150.225 3.3 152.274 3.80276 154.071 4.78709L155.032 3.0329C152.91 1.87057 150.525 1.3 147.902 1.3V3.3ZM154.08 4.79178C155.91 5.77057 157.334 7.1915 158.364 9.07885L160.12 8.12115C158.909 5.90183 157.207 4.19609 155.023 3.02821L154.08 4.79178ZM158.364 9.07885C159.388 10.9566 159.922 13.2346 159.922 15.95H161.922C161.922 12.972 161.335 10.35 160.12 8.12115L158.364 9.07885ZM159.922 15.95C159.922 19.9982 158.771 23.0562 156.575 25.2529L157.989 26.6671C160.645 24.0105 161.922 20.3951 161.922 15.95H159.922ZM156.575 25.2529C154.358 27.4697 151.497 28.6 147.902 28.6V30.6C151.96 30.6 155.352 29.3037 157.989 26.6671L156.575 25.2529ZM176.672 4H188.502V2H176.672V4ZM187.676 2.43607L154.216 51.4361L155.868 52.5639L189.328 3.56392L187.676 2.43607ZM155.042 51H143.212V53H155.042V51ZM144.038 52.5639L177.498 3.56392L175.846 2.43608L142.386 51.4361L144.038 52.5639ZM147.902 23.04C149.224 23.04 150.236 22.3093 150.929 21.1545L149.214 20.1255C148.787 20.8374 148.353 21.04 147.902 21.04V23.04ZM150.922 21.1664C151.679 19.9427 151.982 18.1464 151.982 15.95H149.982C149.982 18.0469 149.677 19.3773 149.221 20.1136L150.922 21.1664ZM151.982 15.95C151.982 13.7606 151.682 11.9724 150.91 10.785L149.233 11.875C149.675 12.5543 149.982 13.8461 149.982 15.95H151.982ZM150.94 10.8339C150.258 9.64093 149.248 8.86 147.902 8.86V10.86C148.329 10.86 148.765 11.0591 149.203 11.8261L150.94 10.8339ZM147.902 8.86C146.565 8.86 145.538 9.62932 144.811 10.8036L146.512 11.8564C146.998 11.0707 147.465 10.86 147.902 10.86V8.86ZM144.804 10.8155C144.097 11.9938 143.822 13.7673 143.822 15.95H145.822C145.822 13.8394 146.106 12.5328 146.519 11.8445L144.804 10.8155ZM143.822 15.95C143.822 18.1396 144.1 19.9218 144.793 21.1361L146.53 20.1439C146.104 19.3982 145.822 18.0537 145.822 15.95H143.822ZM144.823 21.185C145.561 22.3197 146.589 23.04 147.902 23.04V21.04C147.441 21.04 146.976 20.827 146.5 20.095L144.823 21.185ZM183.812 51.7C180.217 51.7 177.356 50.5697 175.139 48.3529L173.725 49.7671C176.361 52.4037 179.753 53.7 183.812 53.7V51.7ZM175.139 48.3529C172.942 46.1562 171.792 43.0982 171.792 39.05H169.792C169.792 43.4951 171.068 47.1105 173.725 49.7671L175.139 48.3529ZM171.792 39.05C171.792 36.3346 172.325 34.0566 173.35 32.1789L171.594 31.2211C170.378 33.45 169.792 36.072 169.792 39.05H171.792ZM173.35 32.1789C174.382 30.2853 175.788 28.8641 177.572 27.8871L176.611 26.1329C174.475 27.3026 172.801 29.008 171.594 31.2211L173.35 32.1789ZM177.563 27.8918C179.413 26.9027 181.488 26.4 183.812 26.4V24.4C181.188 24.4 178.784 24.9706 176.62 26.1282L177.563 27.8918ZM183.812 26.4C186.135 26.4 188.184 26.9028 189.981 27.8871L190.942 26.1329C188.82 24.9706 186.435 24.4 183.812 24.4V26.4ZM189.99 27.8918C191.82 28.8706 193.244 30.2915 194.274 32.1789L196.03 31.2211C194.819 29.0018 193.117 27.2961 190.933 26.1282L189.99 27.8918ZM194.274 32.1789C195.298 34.0566 195.832 36.3346 195.832 39.05H197.832C197.832 36.072 197.245 33.45 196.03 31.2211L194.274 32.1789ZM195.832 39.05C195.832 43.0982 194.681 46.1562 192.485 48.3529L193.899 49.7671C196.555 47.1105 197.832 43.4951 197.832 39.05H195.832ZM192.485 48.3529C190.268 50.5697 187.407 51.7 183.812 51.7V53.7C187.87 53.7 191.262 52.4037 193.899 49.7671L192.485 48.3529ZM183.812 46.14C185.134 46.14 186.146 45.4093 186.839 44.2545L185.124 43.2255C184.697 43.9374 184.263 44.14 183.812 44.14V46.14ZM186.832 44.2664C187.589 43.0427 187.892 41.2464 187.892 39.05H185.892C185.892 41.1469 185.587 42.4773 185.131 43.2136L186.832 44.2664ZM187.892 39.05C187.892 36.8606 187.592 35.0724 186.82 33.885L185.143 34.975C185.585 35.6543 185.892 36.9461 185.892 39.05H187.892ZM186.85 33.9339C186.168 32.7409 185.158 31.96 183.812 31.96V33.96C184.239 33.96 184.675 34.1591 185.113 34.9261L186.85 33.9339ZM183.812 31.96C182.475 31.96 181.448 32.7293 180.721 33.9036L182.422 34.9564C182.908 34.1707 183.375 33.96 183.812 33.96V31.96ZM180.714 33.9155C180.007 35.0938 179.732 36.8673 179.732 39.05H181.732C181.732 36.9394 182.016 35.6328 182.429 34.9445L180.714 33.9155ZM179.732 39.05C179.732 41.2396 180.01 43.0218 180.703 44.2361L182.44 43.2439C182.014 42.4982 181.732 41.1537 181.732 39.05H179.732ZM180.733 44.285C181.471 45.4197 182.499 46.14 183.812 46.14V44.14C183.351 44.14 182.886 43.927 182.41 43.195L180.733 44.285Z" fill="white"/>
</svg>
