<svg width="119" height="120" viewBox="0 0 119 120" fill="none" xmlns="http://www.w3.org/2000/svg">
<path d="M113.839 78.4271C114.045 77.9306 114.111 77.4188 114.039 76.8916C113.971 76.3758 113.78 75.9075 113.467 75.4868C113.158 75.0775 112.759 74.7717 112.271 74.5694C111.782 74.3671 111.283 74.3055 110.771 74.3845C110.619 74.0962 110.42 73.8403 110.175 73.6168C109.93 73.3933 109.651 73.2169 109.339 73.0876C108.858 72.8886 108.36 72.823 107.844 72.8907C107.333 72.9698 106.873 73.1638 106.463 73.4727C106.051 73.7895 105.743 74.1922 105.541 74.6806L103.661 79.2206C103.458 79.709 103.393 80.2072 103.464 80.715C103.532 81.2309 103.72 81.6935 104.029 82.1028C104.342 82.5235 104.739 82.8333 105.22 83.0323C105.532 83.1617 105.854 83.234 106.185 83.2493C106.513 83.2726 106.833 83.2362 107.145 83.1402C107.462 83.5529 107.86 83.8587 108.341 84.0577C108.829 84.26 109.329 84.3216 109.84 84.2425C110.356 84.1748 110.822 83.9785 111.238 83.6536C111.659 83.34 111.97 82.939 112.172 82.4506L113.839 78.4271ZM110.348 77.6145C110.395 77.5024 110.461 77.4219 110.547 77.373C110.629 77.3322 110.727 77.335 110.839 77.3814C110.943 77.4245 111.004 77.4921 111.022 77.584C111.048 77.6793 111.04 77.779 110.997 77.8831L109.773 80.8377C109.73 80.9418 109.665 81.0182 109.58 81.0671C109.498 81.1273 109.406 81.1358 109.302 81.0927C109.19 81.0462 109.12 80.9754 109.094 80.8801C109.068 80.7848 109.078 80.6811 109.125 80.5691L110.348 77.6145ZM107.826 76.5698C107.872 76.4577 107.939 76.3772 108.025 76.3284C108.107 76.2875 108.204 76.2903 108.317 76.3368C108.421 76.3799 108.482 76.4474 108.5 76.5394C108.526 76.6346 108.518 76.7343 108.475 76.8384L107.251 79.793C107.208 79.8971 107.143 79.9736 107.057 80.0224C106.976 80.0826 106.883 80.0911 106.779 80.048C106.667 80.0016 106.598 79.9307 106.572 79.8355C106.546 79.7402 106.556 79.6365 106.602 79.5244L107.826 76.5698Z" fill="white"/>
<path d="M100.508 95.0618C100.477 95.1033 100.437 95.1275 100.388 95.1342C100.34 95.141 100.295 95.1287 100.253 95.0973L98.4383 93.7257C98.3968 93.6943 98.3727 93.6544 98.3659 93.6058C98.3592 93.5573 98.3715 93.5123 98.4028 93.4708L98.7085 93.0663C98.7346 93.0317 98.7469 92.9867 98.7454 92.9312C98.7386 92.8827 98.7145 92.8427 98.673 92.8113L96.4846 91.1576C96.4431 91.1262 96.419 91.0863 96.4123 91.0377C96.4055 90.9891 96.4152 90.9476 96.4413 90.913L97.9305 88.9424C97.9618 88.9009 98.0018 88.8768 98.0504 88.8701C98.0989 88.8633 98.1439 88.8756 98.1854 88.9069L100.374 90.5607C100.415 90.5921 100.463 90.6009 100.517 90.5872C100.565 90.5805 100.603 90.5598 100.629 90.5253L103.49 86.7397C103.521 86.6982 103.561 86.674 103.609 86.6673C103.658 86.6605 103.703 86.6728 103.744 86.7042L105.56 88.0758C105.601 88.1072 105.625 88.1471 105.632 88.1957C105.639 88.2442 105.626 88.2892 105.595 88.3307L102.734 92.1163C102.708 92.1509 102.698 92.1925 102.705 92.241C102.707 92.2965 102.728 92.3399 102.77 92.3713L102.894 92.4653C102.936 92.4967 102.983 92.5055 103.037 92.4918C103.086 92.4851 103.123 92.4644 103.149 92.4299L106.535 87.9494C106.566 87.9079 106.606 87.8837 106.655 87.877C106.71 87.8755 106.755 87.8878 106.79 87.9139L108.76 89.4031C108.802 89.4344 108.826 89.4744 108.833 89.5229C108.84 89.5715 108.827 89.6165 108.796 89.658L105.332 94.2422C105.102 94.5464 104.823 94.7924 104.497 94.9802C104.172 95.1801 103.819 95.3096 103.437 95.3689C103.061 95.4213 102.689 95.3957 102.322 95.2921C101.95 95.1954 101.612 95.0321 101.307 94.8022L101.069 94.6219C101.027 94.5905 100.982 94.5782 100.934 94.585C100.88 94.5987 100.84 94.6228 100.814 94.6574L100.508 95.0618Z" fill="white"/>
<path d="M92.8552 94.8812C93.2155 94.5963 93.6212 94.4247 94.0723 94.3664C94.5287 94.3148 94.9724 94.3729 95.4032 94.5405C95.8326 94.7202 96.1951 94.9971 96.4907 95.371L98.8531 98.3589C99.1541 98.7396 99.3399 99.1562 99.4104 99.6087C99.4795 100.073 99.4336 100.518 99.2728 100.944C99.1174 101.376 98.8595 101.735 98.4992 102.019L94.1448 105.462C93.7777 105.753 93.366 105.923 92.9095 105.975C92.4585 106.033 92.0182 105.973 91.5888 105.793C91.1648 105.62 90.8023 105.343 90.5013 104.962L88.1389 101.974C87.8433 101.601 87.6575 101.184 87.5816 100.725C87.5111 100.272 87.5536 99.8298 87.709 99.3976C87.8698 98.9721 88.1338 98.6143 88.5009 98.324L92.8552 94.8812ZM91.1503 100.124C91.0551 100.199 91.0004 100.298 90.9861 100.419C90.9773 100.548 91.0159 100.666 91.1019 100.775L92.3838 102.397C92.4699 102.505 92.5764 102.57 92.7035 102.591C92.8306 102.612 92.9418 102.585 93.037 102.51L95.8617 100.277C95.9569 100.201 96.0123 100.097 96.0279 99.9629C96.0368 99.8343 95.9982 99.7157 95.9122 99.6069L94.6302 97.9855C94.5442 97.8767 94.4377 97.8118 94.3106 97.7908C94.182 97.7819 94.0702 97.8151 93.975 97.8904L91.1503 100.124Z" fill="white"/>
<path d="M82.3841 102.427C82.8078 102.249 83.2447 102.193 83.6948 102.259C84.1483 102.332 84.5599 102.507 84.9297 102.785C85.2948 103.073 85.5694 103.438 85.7534 103.877L87.2241 107.391C87.4115 107.839 87.4782 108.29 87.4243 108.745C87.3657 109.211 87.2017 109.627 86.9323 109.993C86.6663 110.368 86.3214 110.644 85.8977 110.821L80.7771 112.964C80.3454 113.145 79.9029 113.199 79.4494 113.126C78.9993 113.06 78.5917 112.883 78.2265 112.595C77.8648 112.314 77.5902 111.95 77.4028 111.502L75.9321 107.988C75.748 107.549 75.6813 107.097 75.7319 106.635C75.7858 106.18 75.9458 105.765 76.2119 105.391C76.4813 105.024 76.8318 104.751 77.2635 104.57L82.3841 102.427ZM79.3305 107.017C79.2186 107.064 79.1394 107.144 79.0929 107.257C79.0498 107.379 79.055 107.503 79.1085 107.631L79.9066 109.538C79.9601 109.666 80.0453 109.757 80.162 109.811C80.2788 109.866 80.3931 109.87 80.5051 109.823L83.8268 108.432C83.9387 108.386 84.0203 108.3 84.0714 108.175C84.1145 108.054 84.1093 107.929 84.0558 107.801L83.2577 105.894C83.2042 105.766 83.119 105.675 83.0023 105.621C82.8809 105.578 82.7642 105.58 82.6523 105.626L79.3305 107.017Z" fill="white"/>
<path d="M68.7858 110.004L64.627 112.179L69.1366 113.784L69.2772 115.299L62.7084 112.749L62.6243 111.843L68.6452 108.49L68.7858 110.004Z" fill="white"/>
<path d="M51.3031 116.363C51.8281 116.478 52.3436 116.453 52.8497 116.289C53.3455 116.131 53.7727 115.861 54.1314 115.478C54.4798 115.102 54.7105 114.655 54.8234 114.139C54.9363 113.622 54.9087 113.119 54.7406 112.63C54.9974 112.429 55.2142 112.188 55.3909 111.907C55.5676 111.627 55.692 111.321 55.7642 110.991C55.8753 110.483 55.8519 109.981 55.6941 109.485C55.526 108.996 55.2539 108.577 54.8776 108.229C54.4928 107.879 54.0422 107.647 53.5257 107.534L48.7251 106.485C48.2086 106.372 47.7067 106.395 47.2194 106.555C46.7236 106.713 46.3015 106.98 45.9531 107.356C45.5944 107.739 45.3595 108.185 45.2485 108.693C45.1763 109.023 45.162 109.352 45.2054 109.681C45.2404 110.008 45.3326 110.317 45.4822 110.607C45.1319 110.991 44.9013 111.438 44.7902 111.946C44.6774 112.462 44.705 112.965 44.873 113.454C45.0308 113.95 45.3063 114.374 45.6995 114.726C46.0824 115.085 46.5321 115.32 47.0486 115.433L51.3031 116.363ZM51.4867 112.784C51.6052 112.81 51.6961 112.861 51.7594 112.937C51.8141 113.011 51.8286 113.107 51.8027 113.226C51.7786 113.336 51.7229 113.408 51.6356 113.442C51.5465 113.485 51.4469 113.494 51.3368 113.47L48.2126 112.787C48.1025 112.763 48.0158 112.713 47.9526 112.637C47.879 112.568 47.8543 112.478 47.8783 112.368C47.9042 112.249 47.9618 112.169 48.0509 112.126C48.1401 112.084 48.2439 112.075 48.3625 112.101L51.4867 112.784ZM52.0697 110.117C52.1882 110.143 52.2791 110.194 52.3423 110.27C52.3971 110.344 52.4115 110.44 52.3856 110.559C52.3616 110.669 52.3059 110.741 52.2186 110.775C52.1294 110.818 52.0298 110.827 51.9198 110.803L48.7955 110.12C48.6855 110.096 48.5988 110.046 48.5355 109.97C48.462 109.901 48.4372 109.811 48.4613 109.701C48.4872 109.582 48.5447 109.502 48.6339 109.459C48.723 109.417 48.8269 109.408 48.9454 109.434L52.0697 110.117Z" fill="#CF1616"/>
<path d="M32.6092 106.172C32.5628 106.148 32.5321 106.113 32.5169 106.067C32.5017 106.02 32.5059 105.973 32.5295 105.927L33.5615 103.9C33.5851 103.853 33.6202 103.823 33.6668 103.807C33.7134 103.792 33.7599 103.796 33.8062 103.82L34.2581 104.05C34.2967 104.07 34.3432 104.074 34.3975 104.063C34.4441 104.047 34.4792 104.017 34.5028 103.97L35.7471 101.526C35.7707 101.479 35.8058 101.449 35.8524 101.434C35.899 101.418 35.9416 101.421 35.9803 101.44L38.1815 102.561C38.2279 102.584 38.2586 102.619 38.2738 102.666C38.289 102.713 38.2848 102.759 38.2612 102.805L37.0169 105.25C36.9933 105.296 36.993 105.345 37.0159 105.395C37.031 105.442 37.0579 105.475 37.0966 105.495L41.3253 107.647C41.3716 107.671 41.4024 107.706 41.4176 107.752C41.4327 107.799 41.4285 107.846 41.4049 107.892L40.373 109.919C40.3494 109.966 40.3143 109.996 40.2677 110.012C40.221 110.027 40.1746 110.023 40.1282 109.999L35.8995 107.847C35.8609 107.827 35.8182 107.825 35.7716 107.84C35.7173 107.851 35.6783 107.88 35.6547 107.926L35.584 108.065C35.5604 108.112 35.56 108.16 35.5829 108.211C35.5981 108.257 35.625 108.29 35.6636 108.31L40.6686 110.858C40.7149 110.881 40.7457 110.916 40.7608 110.963C40.7721 111.017 40.7679 111.064 40.7482 111.102L39.6278 113.304C39.6042 113.35 39.5691 113.381 39.5225 113.396C39.4759 113.411 39.4294 113.407 39.383 113.383L34.2622 110.777C33.9224 110.604 33.6314 110.373 33.3893 110.084C33.1355 109.8 32.946 109.475 32.8207 109.109C32.7031 108.748 32.6631 108.378 32.7007 107.998C32.7306 107.615 32.832 107.253 33.005 106.913L33.1406 106.647C33.1642 106.6 33.1684 106.554 33.1533 106.507C33.1304 106.457 33.0996 106.422 33.061 106.402L32.6092 106.172Z" fill="#CF1616"/>
<path d="M31.4878 98.6351C31.8309 98.9405 32.0704 99.3102 32.2062 99.7443C32.3362 100.185 32.356 100.632 32.2658 101.085C32.1633 101.539 31.9536 101.944 31.6367 102.3L29.1044 105.146C28.7818 105.508 28.4038 105.764 27.9704 105.912C27.5248 106.06 27.0785 106.092 26.6316 106.008C26.179 105.93 25.7811 105.738 25.438 105.433L21.2913 101.742C20.9417 101.431 20.7019 101.055 20.5719 100.615C20.4362 100.181 20.4195 99.7367 20.522 99.2826C20.6187 98.835 20.8284 98.4299 21.1511 98.0674L23.6834 95.2221C24.0003 94.866 24.3783 94.6107 24.8174 94.4562C25.2508 94.3082 25.6938 94.2732 26.1465 94.3512C26.5934 94.4357 26.9916 94.6335 27.3412 94.9447L31.4878 98.6351ZM26.0288 97.8663C25.9382 97.7857 25.8317 97.7489 25.7093 97.756C25.5812 97.7696 25.471 97.8282 25.3788 97.9318L24.0047 99.4758C23.9125 99.5794 23.8671 99.6956 23.8684 99.8245C23.8698 99.9533 23.9158 100.058 24.0064 100.139L26.6964 102.533C26.787 102.613 26.8996 102.65 27.0342 102.642C27.1623 102.628 27.2725 102.57 27.3647 102.466L28.7389 100.922C28.8311 100.819 28.8765 100.702 28.8751 100.574C28.8615 100.445 28.8094 100.341 28.7188 100.26L26.0288 97.8663Z" fill="#CF1616"/>
<path d="M22.2287 89.6421C22.4781 90.0278 22.6105 90.4479 22.6258 90.9025C22.6338 91.3617 22.5339 91.7979 22.3262 92.2108C22.1065 92.6212 21.7965 92.9558 21.3962 93.2147L18.1977 95.2829C17.7901 95.5465 17.3578 95.6919 16.9006 95.7191C16.4315 95.7438 15.9928 95.6559 15.5846 95.4555C15.169 95.2598 14.8365 94.969 14.5871 94.5833L11.573 89.9219C11.3188 89.5289 11.1878 89.1028 11.1798 88.6435C11.1645 88.189 11.2667 87.7565 11.4864 87.3461C11.6989 86.9404 12.0089 86.6058 12.4164 86.3423L15.615 84.274C16.0152 84.0152 16.4476 83.8698 16.912 83.8378C17.3691 83.8106 17.8054 83.8948 18.221 84.0905C18.6293 84.291 18.9605 84.5877 19.2146 84.9807L22.2287 89.6421ZM17.1715 87.4474C17.1057 87.3455 17.0128 87.2817 16.893 87.256C16.7658 87.2349 16.6441 87.2621 16.5276 87.3374L14.7919 88.4597C14.6754 88.535 14.6007 88.635 14.5677 88.7595C14.5347 88.884 14.5512 88.9973 14.6171 89.0991L16.5724 92.123C16.6383 92.2249 16.7371 92.29 16.8689 92.3183C16.996 92.3393 17.1178 92.3122 17.2343 92.2369L18.97 91.1145C19.0865 91.0392 19.1612 90.9393 19.1942 90.8148C19.2152 90.6876 19.1927 90.5731 19.1269 90.4713L17.1715 87.4474Z" fill="#CF1616"/>
<path d="M12.3632 77.6415L9.49445 73.9274L8.70318 78.6483L7.23665 79.0517L8.59779 72.1381L9.4752 71.8968L13.8298 77.2381L12.3632 77.6415Z" fill="#CF1616"/>
<path d="M3.03427 61.5937C3.01354 62.1306 3.12855 62.6337 3.37929 63.1031C3.62171 63.5635 3.9629 63.9366 4.40286 64.2224C4.8345 64.4993 5.31446 64.6479 5.84273 64.6683C6.37101 64.6887 6.86116 64.5732 7.3132 64.3218C7.55632 64.5393 7.83159 64.7104 8.13901 64.835C8.44643 64.9597 8.76901 65.0285 9.10676 65.0415C9.62638 65.0616 10.1164 64.9504 10.5767 64.708C11.0288 64.4566 11.3932 64.1151 11.6701 63.6834C11.9473 63.2431 12.0961 62.7588 12.1165 62.2306L12.3061 57.3202C12.3265 56.7919 12.2153 56.302 11.9725 55.8503C11.7301 55.3899 11.3931 55.0213 10.9614 54.7444C10.5215 54.4586 10.0417 54.3056 9.52208 54.2855C9.18433 54.2725 8.8574 54.3163 8.54128 54.4168C8.2255 54.5087 7.93803 54.6537 7.67885 54.8518C7.23856 54.5747 6.7586 54.426 6.23899 54.406C5.71071 54.3856 5.22056 54.5011 4.76852 54.7525C4.30816 54.9949 3.93921 55.3406 3.66168 55.7895C3.37583 56.2295 3.2227 56.7136 3.2023 57.2419L3.03427 61.5937ZM6.59021 61.1455C6.58553 61.2668 6.55137 61.3652 6.48774 61.4408C6.42445 61.5077 6.33218 61.5389 6.21093 61.5342C6.09835 61.5298 6.01758 61.4877 5.96863 61.4077C5.91102 61.3275 5.88439 61.231 5.88873 61.1184L6.01212 57.9228C6.01647 57.8102 6.05046 57.7161 6.11409 57.6405C6.1694 57.556 6.25334 57.5158 6.36592 57.5202C6.48717 57.5249 6.57659 57.5673 6.63421 57.6476C6.69182 57.7279 6.71828 57.8287 6.7136 57.9499L6.59021 61.1455ZM9.31818 61.2509C9.3135 61.3721 9.27934 61.4705 9.21571 61.5461C9.15241 61.6131 9.06014 61.6442 8.9389 61.6395C8.82632 61.6352 8.74555 61.593 8.6966 61.5131C8.63899 61.4328 8.61235 61.3364 8.6167 61.2238L8.74009 58.0282C8.74444 57.9156 8.77843 57.8215 8.84206 57.7459C8.89736 57.6613 8.98131 57.6212 9.09389 57.6255C9.21513 57.6302 9.30456 57.6727 9.36217 57.753C9.41978 57.8332 9.44625 57.934 9.44157 58.0552L9.31818 61.2509Z" fill="white"/>
<path d="M9.76346 41.3306C9.77858 41.2809 9.80776 41.2444 9.85101 41.2213C9.89425 41.1983 9.94075 41.1943 9.99051 41.2094L12.1673 41.8707C12.217 41.8858 12.2535 41.915 12.2765 41.9582C12.2996 42.0015 12.3036 42.048 12.2885 42.0977L12.1411 42.5828C12.1285 42.6243 12.1325 42.6708 12.1531 42.7223C12.1762 42.7656 12.2126 42.7948 12.2624 42.8099L14.8869 43.6072C14.9367 43.6223 14.9731 43.6515 14.9962 43.6947C15.0193 43.738 15.0246 43.7803 15.012 43.8218L14.294 46.1851C14.2789 46.2349 14.2497 46.2713 14.2064 46.2944C14.1632 46.3175 14.1167 46.3215 14.0669 46.3064L11.4424 45.5091C11.3926 45.4939 11.3449 45.5021 11.2991 45.5335C11.2559 45.5566 11.2279 45.5888 11.2153 45.6303L9.83608 50.1704C9.82096 50.2202 9.79178 50.2566 9.74854 50.2797C9.70529 50.3028 9.65879 50.3068 9.60903 50.2917L7.43227 49.6304C7.38251 49.6153 7.34609 49.5861 7.32299 49.5428C7.2999 49.4996 7.29591 49.4531 7.31103 49.4033L8.69029 44.8632C8.70288 44.8217 8.69763 44.7794 8.67454 44.7361C8.65397 44.6846 8.6188 44.6513 8.56905 44.6362L8.41978 44.5908C8.37003 44.5757 8.32227 44.5838 8.2765 44.6152C8.23326 44.6383 8.20534 44.6706 8.19274 44.7121L6.5603 50.0856C6.54519 50.1353 6.516 50.1717 6.47276 50.1948C6.42122 50.2154 6.37472 50.2194 6.33326 50.2068L3.96991 49.4888C3.92015 49.4737 3.88373 49.4445 3.86064 49.4013C3.83754 49.358 3.83355 49.3115 3.84867 49.2618L5.51889 43.7639C5.62974 43.399 5.80603 43.0721 6.04777 42.7833C6.28374 42.4836 6.57056 42.2401 6.90824 42.0529C7.2434 41.8739 7.60113 41.7697 7.98143 41.7403C8.36425 41.7026 8.73809 41.7392 9.10296 41.8501L9.38905 41.937C9.4388 41.9521 9.4853 41.9481 9.52855 41.925C9.57431 41.8936 9.60349 41.8572 9.61609 41.8157L9.76346 41.3306Z" fill="white"/>
<path d="M16.8571 39.0996C16.6177 39.4916 16.2965 39.793 15.8935 40.0039C15.4831 40.2102 15.0469 40.3094 14.5847 40.3013C14.1196 40.2812 13.6836 40.147 13.2769 39.8986L10.0262 37.9132C9.61201 37.6602 9.29353 37.3337 9.07076 36.9336C8.8451 36.5215 8.73406 36.0881 8.73765 35.6333C8.73383 35.174 8.85164 34.7484 9.09106 34.3564L11.9844 29.6191C12.2284 29.2197 12.5555 28.9168 12.9659 28.7104C13.3689 28.4996 13.8029 28.4042 14.268 28.4242C14.7257 28.4397 15.1616 28.5739 15.5758 28.8269L18.8264 30.8123C19.2332 31.0607 19.5517 31.3873 19.7819 31.7919C20.0047 32.192 20.118 32.6217 20.1218 33.081C20.1182 33.5358 19.9944 33.9629 19.7505 34.3623L16.8571 39.0996ZM16.6419 33.5909C16.7051 33.4874 16.7224 33.376 16.6936 33.2569C16.6574 33.1332 16.5801 33.0353 16.4618 32.963L14.6978 31.8856C14.5794 31.8133 14.457 31.7893 14.3305 31.8136C14.2039 31.8379 14.109 31.9018 14.0458 32.0053L12.1688 35.0785C12.1056 35.182 12.0898 35.2993 12.1215 35.4303C12.1577 35.554 12.2349 35.652 12.3533 35.7242L14.1173 36.8016C14.2356 36.8739 14.358 36.8979 14.4846 36.8736C14.6082 36.8375 14.7017 36.7676 14.7649 36.664L16.6419 33.5909Z" fill="white"/>
<path d="M24.0626 28.3401C23.7274 28.6541 23.3374 28.859 22.8928 28.9548C22.4423 29.0443 21.9954 29.0236 21.5521 28.8926C21.1092 28.7493 20.7248 28.5037 20.3989 28.1558L17.7951 25.3758C17.4633 25.0216 17.2433 24.622 17.1353 24.177C17.0276 23.7197 17.0361 23.2724 17.1608 22.835C17.2795 22.3913 17.5065 22.0125 17.8418 21.6984L21.8932 17.9037C22.2347 17.5838 22.6308 17.3791 23.0813 17.2896C23.5259 17.1938 23.9697 17.2175 24.4126 17.3607C24.8496 17.4977 25.234 17.7432 25.5657 18.0975L28.1696 20.8774C28.4955 21.2253 28.7154 21.6249 28.8294 22.0763C28.9375 22.5213 28.9321 22.9656 28.8134 23.4094C28.6887 23.8468 28.4556 24.2254 28.114 24.5453L24.0626 28.3401ZM25.3235 22.9733C25.412 22.8904 25.4583 22.7876 25.4623 22.6651C25.4604 22.5363 25.412 22.4213 25.3172 22.3201L23.9042 20.8115C23.8094 20.7103 23.6978 20.6545 23.5694 20.6442C23.441 20.6338 23.3325 20.6702 23.2439 20.7531L20.6157 23.2148C20.5272 23.2977 20.4807 23.4066 20.4763 23.5413C20.4782 23.6701 20.5266 23.7852 20.6214 23.8864L22.0344 25.395C22.1292 25.4962 22.2408 25.5519 22.3692 25.5623C22.498 25.5603 22.6067 25.5179 22.6953 25.435L25.3235 22.9733Z" fill="white"/>
<path d="M34.0824 16.4714L37.2225 12.9836L32.4362 13.0509L31.7766 11.6804L38.8221 11.7809L39.2168 12.6009L34.742 17.8419L34.0824 16.4714Z" fill="white"/>
<path d="M47.923 4.43087C47.3911 4.50719 46.9169 4.71094 46.5004 5.04213C46.0913 5.3635 45.7857 5.76631 45.5838 6.25057C45.3892 6.72502 45.3294 7.2239 45.4045 7.7472C45.4796 8.27051 45.6815 8.73184 46.0102 9.1312C45.84 9.40953 45.7213 9.71112 45.6541 10.036C45.5869 10.3608 45.5773 10.6905 45.6253 11.0251C45.6992 11.5398 45.8968 12.0018 46.2182 12.4109C46.5469 12.8103 46.9485 13.1073 47.4229 13.3018C47.906 13.4952 48.4091 13.5543 48.9324 13.4792L53.7966 12.7813C54.3199 12.7062 54.7819 12.5086 55.1825 12.1884C55.5916 11.8671 55.8935 11.4692 56.0881 10.9947C56.29 10.5105 56.3541 10.011 56.2802 9.49623C56.2322 9.16166 56.1303 8.84796 55.9744 8.55512C55.8272 8.26106 55.6328 8.0044 55.3912 7.78516C55.5845 7.30213 55.6443 6.80326 55.5704 6.28853C55.4953 5.76522 55.2934 5.30389 54.9647 4.90453C54.6433 4.49536 54.2368 4.19471 53.7452 4.00259C53.261 3.80065 52.7572 3.73723 52.2339 3.81232L47.923 4.43087ZM49.0043 7.84794C48.8842 7.86517 48.7813 7.8493 48.6954 7.80033C48.6182 7.75012 48.5709 7.66497 48.5537 7.54486C48.5377 7.43334 48.5646 7.3463 48.6344 7.28375C48.703 7.21262 48.7931 7.16905 48.9046 7.15305L52.0702 6.69883C52.1817 6.68283 52.2804 6.69931 52.3662 6.74829C52.4594 6.78745 52.514 6.8628 52.53 6.97432C52.5472 7.09442 52.5215 7.19004 52.453 7.26117C52.3844 7.3323 52.29 7.37648 52.1699 7.39371L49.0043 7.84794ZM49.3921 10.5503C49.272 10.5675 49.169 10.5516 49.0832 10.5026C49.0059 10.4524 48.9587 10.3673 48.9415 10.2472C48.9255 10.1357 48.9524 10.0486 49.0222 9.98607C49.0908 9.91494 49.1808 9.87138 49.2924 9.85538L52.458 9.40116C52.5695 9.38515 52.6682 9.40164 52.754 9.45061C52.8472 9.48977 52.9017 9.56512 52.9177 9.67664C52.935 9.79675 52.9093 9.89236 52.8407 9.96349C52.7721 10.0346 52.6778 10.0788 52.5577 10.096L49.3921 10.5503Z" fill="#CF1616"/>
<path d="M69.4068 7.38551C69.4585 7.39151 69.4995 7.41373 69.53 7.45217C69.5604 7.4906 69.5726 7.53564 69.5666 7.5873L69.3041 9.84711C69.2981 9.89876 69.2759 9.9398 69.2375 9.97024C69.1991 10.0007 69.154 10.0129 69.1024 10.0069L68.5987 9.9484C68.5557 9.9434 68.5107 9.95562 68.4636 9.98505C68.4252 10.0155 68.403 10.0565 68.397 10.1082L68.0805 12.8329C68.0745 12.8845 68.0523 12.9256 68.0138 12.956C67.9754 12.9864 67.9347 12.9992 67.8916 12.9942L65.4381 12.7092C65.3865 12.7032 65.3454 12.681 65.315 12.6425C65.2845 12.6041 65.2723 12.5591 65.2783 12.5074L65.5948 9.78272C65.6008 9.73107 65.5843 9.68552 65.5452 9.64609C65.5148 9.60765 65.4781 9.58594 65.435 9.58094L60.7217 9.03349C60.67 9.02749 60.629 9.00528 60.5986 8.96684C60.5681 8.92841 60.5559 8.88336 60.5619 8.83171L60.8244 6.5719C60.8304 6.52025 60.8526 6.4792 60.891 6.44877C60.9295 6.41833 60.9745 6.40611 61.0262 6.41211L65.7395 6.95956C65.7825 6.96456 65.8233 6.95184 65.8617 6.9214C65.9087 6.89197 65.9353 6.85142 65.9413 6.79977L65.9593 6.64481C65.9653 6.59316 65.9487 6.54762 65.9097 6.50818C65.8793 6.46975 65.8425 6.44803 65.7995 6.44303L60.221 5.7951C60.1693 5.7891 60.1283 5.76688 60.0978 5.72845C60.0684 5.6814 60.0562 5.63636 60.0612 5.59331L60.3462 3.13981C60.3522 3.08816 60.3744 3.04711 60.4128 3.01668C60.4512 2.98624 60.4963 2.97402 60.5479 2.98002L66.2556 3.64295C66.6344 3.68695 66.9874 3.80212 67.3148 3.98847C67.6517 4.1672 67.9425 4.406 68.1869 4.70487C68.4228 5.00274 68.5891 5.33616 68.6859 5.70512C68.7912 6.07508 68.8219 6.44945 68.7779 6.82823L68.7434 7.12524C68.7374 7.17689 68.7496 7.22194 68.7801 7.26037C68.8191 7.2998 68.8602 7.32202 68.9032 7.32702L69.4068 7.38551Z" fill="#CF1616"/>
<path d="M73.2679 14.0711C72.8403 13.9033 72.4878 13.6393 72.2102 13.279C71.9358 12.9106 71.7625 12.4981 71.6903 12.0415C71.6293 11.58 71.6859 11.1274 71.8601 10.6837L73.2515 7.13796C73.4288 6.68617 73.6952 6.31588 74.0506 6.02708C74.4172 5.73338 74.8248 5.54885 75.2733 5.47349C75.725 5.39007 76.1646 5.43225 76.5922 5.60005L81.7596 7.62788C82.1952 7.79884 82.5503 8.06851 82.8246 8.43687C83.1022 8.79717 83.2715 9.20807 83.3324 9.66956C83.3966 10.123 83.34 10.5756 83.1627 11.0274L81.7712 14.5731C81.5971 15.0169 81.3307 15.3872 80.9722 15.684C80.6168 15.9728 80.2132 16.1589 79.7615 16.2424C79.313 16.3177 78.8709 16.2699 78.4353 16.0989L73.2679 14.0711ZM78.6558 12.9037C78.7687 12.948 78.8814 12.9456 78.9937 12.8966C79.1092 12.8395 79.1923 12.7465 79.2429 12.6174L79.998 10.6932C80.0487 10.5641 80.0511 10.4394 80.0052 10.319C79.9594 10.1986 79.88 10.1162 79.767 10.0719L76.4149 8.75643C76.302 8.71211 76.1837 8.7169 76.0601 8.77082C75.9446 8.82791 75.8616 8.92099 75.8109 9.05007L75.0558 10.9742C75.0052 11.1033 75.0027 11.228 75.0486 11.3484C75.1057 11.464 75.1907 11.5439 75.3036 11.5882L78.6558 12.9037Z" fill="#CF1616"/>
<path d="M84.982 19.2512C84.6145 18.9756 84.345 18.6272 84.1734 18.206C84.007 17.7779 83.9498 17.3341 84.0018 16.8748C84.0659 16.4137 84.241 15.9925 84.527 15.6112L86.8124 12.564C87.1036 12.1757 87.4589 11.8897 87.8784 11.706C88.31 11.5205 88.752 11.4512 89.2044 11.498C89.662 11.5378 90.0745 11.6956 90.442 11.9712L94.8828 15.3017C95.2572 15.5825 95.5276 15.937 95.694 16.3651C95.8656 16.7863 95.9193 17.2275 95.8552 17.6885C95.7963 18.1427 95.6212 18.5639 95.33 18.9521L93.0446 21.9994C92.7586 22.3807 92.4033 22.6667 91.9786 22.8574C91.5592 23.0411 91.1206 23.113 90.663 23.0732C90.2106 23.0264 89.7972 22.8626 89.4228 22.5818L84.982 19.2512ZM90.4862 19.5606C90.5833 19.6334 90.6925 19.6611 90.8138 19.6438C90.9403 19.6195 91.0452 19.5519 91.1284 19.441L92.3686 17.7874C92.4518 17.6764 92.4873 17.5568 92.4752 17.4286C92.4631 17.3003 92.4085 17.1998 92.3114 17.127L89.4306 14.9664C89.3335 14.8936 89.2183 14.8667 89.0848 14.8858C88.9583 14.91 88.8534 14.9776 88.7702 15.0886L87.53 16.7422C87.4468 16.8531 87.4113 16.9727 87.4234 17.101C87.4477 17.2275 87.5083 17.3272 87.6054 17.4L90.4862 19.5606Z" fill="#CF1616"/>
<path d="M98.3712 27.0388L102.357 29.517L101.449 24.817L102.682 23.9268L103.822 30.8804L103.084 31.413L97.1379 27.929L98.3712 27.0388Z" fill="white"/>
</svg>
