<svg width="229" height="55" viewBox="0 0 229 55" fill="none" xmlns="http://www.w3.org/2000/svg">
<path d="M37.55 21.27H38.55V20.569L37.891 20.3299L37.55 21.27ZM37.55 33.73L37.891 34.6701L38.55 34.431V33.73H37.55ZM1.85 46.68H0.85V48.1065L2.191 47.6201L1.85 46.68ZM1.85 34.78L1.52536 33.8342L0.85 34.066V34.78H1.85ZM23.06 27.5L23.3846 28.4458L26.1403 27.5L23.3846 26.5542L23.06 27.5ZM1.85 20.22H0.85V20.934L1.52536 21.1658L1.85 20.22ZM1.85 8.32L2.191 7.37994L0.85 6.8935V8.32H1.85ZM36.55 21.27V33.73H38.55V21.27H36.55ZM37.209 32.7899L1.509 45.7399L2.191 47.6201L37.891 34.6701L37.209 32.7899ZM2.85 46.68V34.78H0.85V46.68H2.85ZM2.17464 35.7258L23.3846 28.4458L22.7354 26.5542L1.52536 33.8342L2.17464 35.7258ZM23.3846 26.5542L2.17464 19.2742L1.52536 21.1658L22.7354 28.4458L23.3846 26.5542ZM2.85 20.22V8.32H0.85V20.22H2.85ZM1.509 9.26006L37.209 22.2101L37.891 20.3299L2.191 7.37994L1.509 9.26006ZM80.5382 26.17L79.9149 25.388L78.8074 26.2708L80.0099 27.0191L80.5382 26.17ZM85.3682 31L84.5052 31.5052L84.5125 31.5177L84.5202 31.53L85.3682 31ZM84.3182 45.7L83.5313 45.0828L83.5238 45.0926L84.3182 45.7ZM76.5482 51.23L76.9037 52.1647L76.9107 52.162L76.5482 51.23ZM53.6582 51.23L53.2913 52.1603L53.2992 52.1634L53.3071 52.1663L53.6582 51.23ZM45.8882 45.7L45.0938 46.3075L45.1013 46.3171L45.8882 45.7ZM44.8382 31L43.9844 30.4794L43.9807 30.4855L44.8382 31ZM49.7382 26.17L50.2665 27.0191L51.469 26.2708L50.3615 25.388L49.7382 26.17ZM47.4282 8.81L46.6424 8.19138L46.6343 8.20192L47.4282 8.81ZM54.5682 3.7L54.2017 2.76958L54.1968 2.77152L54.5682 3.7ZM75.6382 3.7L75.2668 4.62848L75.2717 4.6304L75.6382 3.7ZM82.7782 8.81L81.9843 9.41813L81.9925 9.42856L82.7782 8.81ZM62.2682 14.13L61.5611 13.4229L61.5497 13.4343L61.5387 13.4461L62.2682 14.13ZM62.2682 20.29L61.5387 20.9739L61.5497 20.9857L61.5611 20.9971L62.2682 20.29ZM67.9382 20.29L67.2311 19.5829L67.2197 19.5943L67.2087 19.6061L67.9382 20.29ZM67.9382 14.13L67.2087 14.8139L67.2197 14.8257L67.2311 14.8371L67.9382 14.13ZM68.9882 40.59L68.3155 39.8501L68.3069 39.8579L68.2985 39.8659L68.9882 40.59ZM68.9882 33.17L68.2986 33.8941L68.3069 33.9021L68.3155 33.9099L68.9882 33.17ZM61.2182 33.17L60.5455 32.4301L60.5369 32.4379L60.5285 32.4459L61.2182 33.17ZM61.2182 40.59L60.5285 41.3141L60.5369 41.3221L60.5455 41.3299L61.2182 40.59ZM80.0099 27.0191C81.9883 28.25 83.4763 29.7475 84.5052 31.5052L86.2312 30.4948C85.0201 28.4258 83.2882 26.7033 81.0665 25.3209L80.0099 27.0191ZM84.5202 31.53C85.5775 33.2217 86.1182 35.1809 86.1182 37.44H88.1182C88.1182 34.8458 87.4922 32.5116 86.2162 30.47L84.5202 31.53ZM86.1182 37.44C86.1182 40.351 85.255 42.8852 83.5313 45.0829L85.1051 46.3171C87.1148 43.7548 88.1182 40.7823 88.1182 37.44H86.1182ZM83.5238 45.0926C81.8361 47.2996 79.4097 49.0443 76.1858 50.298L76.9107 52.162C80.4067 50.8024 83.1603 48.8604 85.1126 46.3074L83.5238 45.0926ZM76.1928 50.2953C73.0141 51.5041 69.335 52.12 65.1382 52.12V54.12C69.5281 54.12 73.4556 53.4759 76.9037 52.1647L76.1928 50.2953ZM65.1382 52.12C60.9418 52.12 57.2374 51.5042 54.0093 50.2937L53.3071 52.1663C56.799 53.4758 60.7479 54.12 65.1382 54.12V52.12ZM54.0251 50.2997C50.8475 49.0466 48.4139 47.2999 46.6751 45.0829L45.1013 46.3171C47.0958 48.8601 49.8423 50.8001 53.2913 52.1603L54.0251 50.2997ZM46.6826 45.0926C45.002 42.895 44.1582 40.3574 44.1582 37.44H42.1582C42.1582 40.776 43.1344 43.745 45.0938 46.3074L46.6826 45.0926ZM44.1582 37.44C44.1582 35.1732 44.6794 33.2084 45.6957 31.5145L43.9807 30.4855C42.7571 32.5249 42.1582 34.8534 42.1582 37.44H44.1582ZM45.692 31.5206C46.7692 29.754 48.2852 28.2519 50.2665 27.0191L49.2099 25.3209C46.9912 26.7015 45.2406 28.4193 43.9844 30.4794L45.692 31.5206ZM50.3615 25.388C47.3622 22.9973 45.9082 20.0575 45.9082 16.51H43.9082C43.9082 20.7092 45.6742 24.2094 49.1149 26.952L50.3615 25.388ZM45.9082 16.51C45.9082 13.7748 46.6846 11.4253 48.2221 9.41807L46.6343 8.20192C44.8118 10.5814 43.9082 13.3652 43.9082 16.51H45.9082ZM48.2139 9.42856C49.8148 7.39499 52.0412 5.78784 54.9396 4.62847L54.1968 2.77152C51.0286 4.03882 48.4949 5.83833 46.6425 8.19144L48.2139 9.42856ZM54.9347 4.63041C57.8774 3.47119 61.2727 2.88 65.1382 2.88V0.879999C61.0704 0.879999 57.4191 1.50214 54.2017 2.76959L54.9347 4.63041ZM65.1382 2.88C69.0042 2.88 72.3739 3.47133 75.2668 4.62847L76.0096 2.77152C72.8358 1.502 69.2056 0.879999 65.1382 0.879999V2.88ZM75.2717 4.6304C78.2163 5.7904 80.435 7.39529 81.9843 9.41807L83.5721 8.20192C81.7615 5.83804 79.2201 4.03626 76.0047 2.76959L75.2717 4.6304ZM81.9925 9.42856C83.5726 11.4358 84.3682 13.7815 84.3682 16.51H86.3682C86.3682 13.3584 85.4371 10.5709 83.5639 8.19144L81.9925 9.42856ZM84.3682 16.51C84.3682 20.0575 82.9142 22.9973 79.9149 25.388L81.1615 26.952C84.6022 24.2094 86.3682 20.7092 86.3682 16.51H84.3682ZM65.1382 12.01C63.7368 12.01 62.5158 12.4682 61.5611 13.4229L62.9753 14.8371C63.5139 14.2985 64.2062 14.01 65.1382 14.01V12.01ZM61.5387 13.4461C60.6207 14.4252 60.2182 15.7223 60.2182 17.21H62.2182C62.2182 16.0844 62.5157 15.3281 62.9977 14.8139L61.5387 13.4461ZM60.2182 17.21C60.2182 18.6977 60.6207 19.9948 61.5387 20.9739L62.9977 19.6061C62.5157 19.0919 62.2182 18.3356 62.2182 17.21H60.2182ZM61.5611 20.9971C62.5158 21.9518 63.7368 22.41 65.1382 22.41V20.41C64.2062 20.41 63.5139 20.1215 62.9753 19.5829L61.5611 20.9971ZM65.1382 22.41C66.5388 22.41 67.7515 21.9513 68.6677 20.9739L67.2087 19.6061C66.7249 20.122 66.0709 20.41 65.1382 20.41V22.41ZM68.6453 20.9971C69.6219 20.0205 70.0582 18.7151 70.0582 17.21H68.0582C68.0582 18.3182 67.7478 19.0662 67.2311 19.5829L68.6453 20.9971ZM70.0582 17.21C70.0582 15.7049 69.6219 14.3995 68.6453 13.4229L67.2311 14.8371C67.7478 15.3538 68.0582 16.1018 68.0582 17.21H70.0582ZM68.6677 13.4461C67.7515 12.4687 66.5388 12.01 65.1382 12.01V14.01C66.0709 14.01 66.7249 14.298 67.2087 14.8139L68.6677 13.4461ZM65.1382 42.99C66.9343 42.99 68.4802 42.4547 69.6779 41.3141L68.2985 39.8659C67.5362 40.5919 66.5155 40.99 65.1382 40.99V42.99ZM69.6609 41.3299C70.9202 40.1851 71.5282 38.6673 71.5282 36.88H69.5282C69.5282 38.1727 69.1095 39.1283 68.3155 39.8501L69.6609 41.3299ZM71.5282 36.88C71.5282 35.0927 70.9202 33.5749 69.6609 32.4301L68.3155 33.9099C69.1095 34.6317 69.5282 35.5873 69.5282 36.88H71.5282ZM69.6779 32.4459C68.4802 31.3053 66.9343 30.77 65.1382 30.77V32.77C66.5155 32.77 67.5362 33.1681 68.2986 33.8941L69.6779 32.4459ZM65.1382 30.77C63.341 30.77 61.7827 31.3053 60.5455 32.4301L61.8909 33.9099C62.707 33.168 63.7621 32.77 65.1382 32.77V30.77ZM60.5285 32.4459C59.3223 33.5947 58.7482 35.1077 58.7482 36.88H60.7482C60.7482 35.5723 61.1541 34.612 61.9079 33.8941L60.5285 32.4459ZM58.7482 36.88C58.7482 38.6523 59.3223 40.1653 60.5285 41.3141L61.9079 39.8659C61.1541 39.148 60.7482 38.1877 60.7482 36.88H58.7482ZM60.5455 41.3299C61.7827 42.4547 63.341 42.99 65.1382 42.99V40.99C63.7621 40.99 62.707 40.592 61.8909 39.8501L60.5455 41.3299ZM132.25 3H133.25V2H132.25V3ZM132.25 13.15L133.172 13.5371L133.25 13.3514V13.15H132.25ZM115.94 52V53H116.604L116.862 52.3871L115.94 52ZM97.8796 52L96.9607 51.6054L96.3619 53H97.8796V52ZM113.42 15.81L114.338 16.2046L114.937 14.81H113.42V15.81ZM103.97 15.81V14.81H102.97V15.81H103.97ZM103.97 22.95V23.95H104.97V22.95H103.97ZM90.3196 22.95H89.3196V23.95H90.3196V22.95ZM90.3196 3V2H89.3196V3H90.3196ZM131.25 3V13.15H133.25V3H131.25ZM131.328 12.7629L115.018 51.6129L116.862 52.3871L133.172 13.5371L131.328 12.7629ZM115.94 51H97.8796V53H115.94V51ZM98.7985 52.3946L114.338 16.2046L112.501 15.4154L96.9607 51.6054L98.7985 52.3946ZM113.42 14.81H103.97V16.81H113.42V14.81ZM102.97 15.81V22.95H104.97V15.81H102.97ZM103.97 21.95H90.3196V23.95H103.97V21.95ZM91.3196 22.95V3H89.3196V22.95H91.3196ZM90.3196 4H132.25V2H90.3196V4ZM145.27 50.11L144.743 50.96L144.75 50.9643L144.757 50.9685L145.27 50.11ZM137.43 41.29L136.529 41.7241L136.532 41.7307L136.535 41.7372L137.43 41.29ZM137.43 13.78L136.533 13.3371L136.531 13.3416L137.43 13.78ZM145.27 4.96L145.788 5.81536L145.791 5.81328L145.27 4.96ZM168.3 4.96L167.773 5.81001L167.78 5.81433L167.787 5.81854L168.3 4.96ZM176.14 13.78L175.239 14.2141L175.242 14.2207L175.245 14.2272L176.14 13.78ZM176.14 41.29L175.243 40.8471L175.241 40.8516L176.14 41.29ZM168.3 50.11L168.818 50.9654L168.821 50.9633L168.3 50.11ZM156.82 52.12C152.64 52.12 148.971 51.1557 145.782 49.2515L144.757 50.9685C148.288 53.0776 152.319 54.12 156.82 54.12V52.12ZM145.796 49.26C142.656 47.3137 140.163 44.5204 138.324 40.8428L136.535 41.7372C138.523 45.7129 141.257 48.7997 144.743 50.96L145.796 49.26ZM138.33 40.8559C136.543 37.1462 135.63 32.7046 135.63 27.5H133.63C133.63 32.9354 134.583 37.6871 136.529 41.7241L138.33 40.8559ZM135.63 27.5C135.63 22.295 136.543 17.8788 138.328 14.2184L136.531 13.3416C134.583 17.3345 133.63 22.065 133.63 27.5H135.63ZM138.326 14.2229C140.165 10.5 142.656 7.71226 145.788 5.81536L144.752 4.10464C141.257 6.22107 138.521 9.31337 136.533 13.3371L138.326 14.2229ZM145.791 5.81328C148.978 3.86553 152.644 2.88 156.82 2.88V0.879999C152.315 0.879999 148.281 1.9478 144.748 4.10671L145.791 5.81328ZM156.82 2.88C160.995 2.88 164.635 3.86558 167.773 5.81001L168.826 4.10999C165.337 1.94775 161.324 0.879999 156.82 0.879999V2.88ZM167.787 5.81854C170.962 7.71496 173.448 10.4991 175.239 14.2141L177.04 13.3459C175.098 9.31422 172.357 6.21837 168.812 4.10145L167.787 5.81854ZM175.245 14.2272C177.074 17.8853 178.01 22.2983 178.01 27.5H180.01C180.01 22.0617 179.032 17.328 177.034 13.3328L175.245 14.2272ZM178.01 27.5C178.01 32.7013 177.074 37.1397 175.243 40.8471L177.036 41.7329C179.031 37.6936 180.01 32.9387 180.01 27.5H178.01ZM175.241 40.8516C173.451 44.5213 170.962 47.311 167.778 49.2567L168.821 50.9633C172.357 48.8024 175.095 45.712 177.038 41.7284L175.241 40.8516ZM167.782 49.2546C164.643 51.1556 161 52.12 156.82 52.12V54.12C161.32 54.12 165.33 53.0777 168.818 50.9654L167.782 49.2546ZM156.82 40.89C157.95 40.89 158.978 40.573 159.863 39.9204C160.736 39.2763 161.414 38.347 161.931 37.2044C162.953 34.9434 163.42 31.6741 163.42 27.5H161.42C161.42 31.5859 160.953 34.5116 160.108 36.3806C159.691 37.303 159.203 37.9224 158.676 38.3108C158.161 38.6908 157.556 38.89 156.82 38.89V40.89ZM163.42 27.5C163.42 23.3259 162.953 20.0566 161.931 17.7956C161.414 16.653 160.736 15.7237 159.863 15.0796C158.978 14.427 157.95 14.11 156.82 14.11V16.11C157.556 16.11 158.161 16.3092 158.676 16.6892C159.203 17.0776 159.691 17.697 160.108 18.6194C160.953 20.4884 161.42 23.4141 161.42 27.5H163.42ZM156.82 14.11C155.689 14.11 154.661 14.427 153.776 15.0796C152.903 15.7237 152.225 16.653 151.708 17.7956C150.686 20.0566 150.22 23.3259 150.22 27.5H152.22C152.22 23.4141 152.686 20.4884 153.531 18.6194C153.948 17.697 154.436 17.0776 154.963 16.6892C155.478 16.3092 156.083 16.11 156.82 16.11V14.11ZM150.22 27.5C150.22 31.6741 150.686 34.9434 151.708 37.2044C152.225 38.347 152.903 39.2763 153.776 39.9204C154.661 40.573 155.689 40.89 156.82 40.89V38.89C156.083 38.89 155.478 38.6908 154.963 38.3108C154.436 37.9224 153.948 37.303 153.531 36.3806C152.686 34.5116 152.22 31.5859 152.22 27.5H150.22ZM193.736 50.11L193.21 50.96L193.217 50.9643L193.224 50.9685L193.736 50.11ZM185.896 41.29L184.996 41.7241L184.999 41.7307L185.002 41.7372L185.896 41.29ZM185.896 13.78L185 13.3371L184.998 13.3416L185.896 13.78ZM193.736 4.96L194.254 5.81536L194.258 5.81328L193.736 4.96ZM216.766 4.96L216.24 5.81001L216.247 5.81433L216.254 5.81854L216.766 4.96ZM224.606 13.78L223.706 14.2141L223.709 14.2207L223.712 14.2272L224.606 13.78ZM224.606 41.29L223.71 40.8471L223.708 40.8516L224.606 41.29ZM216.766 50.11L217.284 50.9654L217.288 50.9633L216.766 50.11ZM205.286 52.12C201.107 52.12 197.438 51.1557 194.249 49.2515L193.224 50.9685C196.755 53.0776 200.786 54.12 205.286 54.12V52.12ZM194.263 49.26C191.123 47.3137 188.63 44.5204 186.791 40.8428L185.002 41.7372C186.99 45.7129 189.724 48.7997 193.21 50.96L194.263 49.26ZM186.797 40.8559C185.009 37.1462 184.096 32.7046 184.096 27.5H182.096C182.096 32.9354 183.05 37.6871 184.996 41.7241L186.797 40.8559ZM184.096 27.5C184.096 22.295 185.01 17.8788 186.795 14.2184L184.998 13.3416C183.05 17.3345 182.096 22.065 182.096 27.5H184.096ZM186.793 14.2229C188.632 10.5 191.122 7.71226 194.254 5.81536L193.218 4.10464C189.724 6.22107 186.987 9.31337 185 13.3371L186.793 14.2229ZM194.258 5.81328C197.445 3.86553 201.111 2.88 205.286 2.88V0.879999C200.782 0.879999 196.748 1.9478 193.215 4.10671L194.258 5.81328ZM205.286 2.88C209.462 2.88 213.102 3.86558 216.24 5.81001L217.293 4.10999C213.804 1.94775 209.791 0.879999 205.286 0.879999V2.88ZM216.254 5.81854C219.429 7.71496 221.915 10.4991 223.706 14.2141L225.507 13.3459C223.564 9.31422 220.824 6.21837 217.279 4.10145L216.254 5.81854ZM223.712 14.2272C225.541 17.8853 226.476 22.2983 226.476 27.5H228.476C228.476 22.0617 227.498 17.328 225.501 13.3328L223.712 14.2272ZM226.476 27.5C226.476 32.7013 225.541 37.1397 223.71 40.8471L225.503 41.7329C227.498 37.6936 228.476 32.9387 228.476 27.5H226.476ZM223.708 40.8516C221.918 44.5213 219.429 47.311 216.245 49.2567L217.288 50.9633C220.824 48.8024 223.562 45.712 225.505 41.7284L223.708 40.8516ZM216.248 49.2546C213.11 51.1556 209.466 52.12 205.286 52.12V54.12C209.786 54.12 213.797 53.0777 217.284 50.9654L216.248 49.2546ZM205.286 40.89C206.417 40.89 207.445 40.573 208.33 39.9204C209.203 39.2763 209.881 38.347 210.398 37.2044C211.42 34.9434 211.886 31.6741 211.886 27.5H209.886C209.886 31.5859 209.42 34.5116 208.575 36.3806C208.158 37.303 207.67 37.9224 207.143 38.3108C206.628 38.6908 206.023 38.89 205.286 38.89V40.89ZM211.886 27.5C211.886 23.3259 211.42 20.0566 210.398 17.7956C209.881 16.653 209.203 15.7237 208.33 15.0796C207.445 14.427 206.417 14.11 205.286 14.11V16.11C206.023 16.11 206.628 16.3092 207.143 16.6892C207.67 17.0776 208.158 17.697 208.575 18.6194C209.42 20.4884 209.886 23.4141 209.886 27.5H211.886ZM205.286 14.11C204.156 14.11 203.128 14.427 202.243 15.0796C201.37 15.7237 200.692 16.653 200.175 17.7956C199.153 20.0566 198.686 23.3259 198.686 27.5H200.686C200.686 23.4141 201.153 20.4884 201.998 18.6194C202.415 17.697 202.903 17.0776 203.43 16.6892C203.945 16.3092 204.55 16.11 205.286 16.11V14.11ZM198.686 27.5C198.686 31.6741 199.153 34.9434 200.175 37.2044C200.692 38.347 201.37 39.2763 202.243 39.9204C203.128 40.573 204.156 40.89 205.286 40.89V38.89C204.55 38.89 203.945 38.6908 203.43 38.3108C202.903 37.9224 202.415 37.303 201.998 36.3806C201.153 34.5116 200.686 31.5859 200.686 27.5H198.686Z" fill="white"/>
</svg>
