<svg width="126" height="50" viewBox="0 0 126 50" fill="none" xmlns="http://www.w3.org/2000/svg">
<g clip-path="url(#clip0_19:398)">
<path d="M59.9904 43.8235V38.6801C60.8724 39.8679 61.8265 40.4617 62.852 40.4617C63.2394 40.4617 63.5548 40.361 63.7986 40.1596C64.0425 39.9581 64.1641 39.7053 64.1641 39.4013C64.1641 38.9631 63.8989 38.5355 63.3679 38.1178L62.6364 37.5554C62.1487 37.1951 61.7325 36.8361 61.3883 36.4789C61.0442 36.1217 60.7646 35.754 60.5489 35.3758C60.3339 34.9976 60.1759 34.607 60.0756 34.2041C59.9753 33.8012 59.9252 33.3766 59.9252 32.9317C59.9252 32.1679 60.1045 31.3694 60.4631 30.5352C60.6423 30.1465 60.8505 29.7911 61.0868 29.4692C61.3237 29.1478 61.5958 28.8629 61.9042 28.6157C62.7505 27.9088 63.7723 27.5553 64.9702 27.5553C66.039 27.5553 67.1147 27.8346 68.1973 28.3933V33.3989C67.8319 32.8402 67.4156 32.4002 66.9492 32.0783C66.4828 31.7569 66.024 31.5956 65.572 31.5956C65.2279 31.5956 64.9445 31.6945 64.722 31.8922C64.4925 32.0832 64.3778 32.3131 64.3778 32.5819C64.3778 33.0201 64.6825 33.4551 65.2924 33.8865L66.0027 34.4062C66.9492 35.0779 67.6269 35.7676 68.0362 36.4746C68.4518 37.1815 68.66 38.009 68.66 38.9564C68.66 40.5687 68.1616 41.8979 67.1649 42.9442C66.1682 43.9904 64.9057 44.5138 63.378 44.5138C62.3248 44.5126 61.1952 44.2827 59.9904 43.8235Z" fill="black"/>
<path d="M80.4839 44.2264H76.1698V38.1604C76.1698 37.637 76.1178 37.273 76.0137 37.0678C75.9097 36.8626 75.7285 36.76 75.4702 36.76C74.8678 36.76 74.5663 37.3224 74.5663 38.4465V44.2264H70.2522V26.3138H74.5663V32.7191C74.5663 33.0658 74.5644 33.3556 74.5607 33.5886C74.5569 33.8222 74.5519 33.9989 74.5444 34.1188C74.5368 34.2393 74.5262 34.3666 74.5124 34.5007C74.498 34.6348 74.4835 34.7838 74.4691 34.9463C75.1649 33.3272 76.183 32.5176 77.5245 32.5176C78.4566 32.5176 79.1813 32.8606 79.6978 33.5466C80.2213 34.2325 80.4833 35.1867 80.4833 36.4103V44.2264H80.4839Z" fill="black"/>
<path d="M88.4238 40.345L92.6408 40.4296C92.3399 41.7657 91.7531 42.7717 90.8818 43.4466C90.0104 44.122 88.8714 44.4594 87.466 44.4594C85.8023 44.4594 84.4965 43.9502 83.5499 42.9324C82.6103 41.9004 82.1407 40.4896 82.1407 38.7011C82.1407 36.8843 82.6466 35.403 83.6578 34.2573C84.6689 33.1047 85.974 32.5288 87.5738 32.5288C89.166 32.5288 90.4354 33.0837 91.382 34.1936C92.3286 35.3109 92.8019 36.7922 92.8019 38.6375L92.7805 39.3908H86.4548C86.505 40.5643 86.8422 41.1514 87.466 41.1514C87.9537 41.1508 88.2728 40.882 88.4238 40.345ZM88.5204 37.0993C88.5204 36.8874 88.4953 36.6927 88.4451 36.516C88.395 36.3392 88.3248 36.1872 88.2351 36.0599C88.1455 35.9326 88.0396 35.8319 87.9179 35.7577C87.7957 35.6836 87.6634 35.6465 87.5199 35.6465C87.2184 35.6465 86.9745 35.7824 86.7883 36.055C86.6015 36.3275 86.5088 36.6754 86.5088 37.0993H88.5204Z" fill="black"/>
<path d="M100.419 40.345L104.636 40.4296C104.335 41.7657 103.748 42.7717 102.877 43.4466C102.005 44.122 100.866 44.4594 99.461 44.4594C97.7973 44.4594 96.4915 43.9502 95.545 42.9324C94.6053 41.9004 94.1358 40.4896 94.1358 38.7011C94.1358 36.8843 94.6417 35.403 95.6528 34.2573C96.6639 33.1047 97.9691 32.5288 99.5688 32.5288C101.161 32.5288 102.43 33.0837 103.377 34.1936C104.324 35.3109 104.797 36.7922 104.797 38.6375L104.776 39.3908H98.4499C98.5 40.5643 98.8373 41.1514 99.461 41.1514C99.9487 41.1508 100.268 40.882 100.419 40.345ZM100.515 37.0993C100.515 36.8874 100.49 36.6927 100.44 36.516C100.39 36.3392 100.32 36.1872 100.23 36.0599C100.141 35.9326 100.035 35.8319 99.913 35.7577C99.7907 35.6836 99.6585 35.6465 99.5149 35.6465C99.2134 35.6465 98.9695 35.7824 98.7834 36.055C98.5966 36.3275 98.5038 36.6754 98.5038 37.0993H100.515Z" fill="black"/>
<path d="M110.778 49.3384H106.464V32.7617H110.778L110.682 34.3845C110.861 34.0453 111.044 33.7573 111.23 33.52C111.417 33.2833 111.618 33.0905 111.833 32.9422C112.048 32.7939 112.279 32.6857 112.527 32.619C112.774 32.5516 113.048 32.5182 113.35 32.5182C114.469 32.5182 115.38 33.0695 116.082 34.1726C116.778 35.2615 117.126 36.7075 117.126 38.5102C117.126 40.3412 116.793 41.791 116.126 42.8582C115.473 43.9261 114.573 44.4594 113.425 44.4594C112.378 44.4594 111.464 43.8618 110.682 42.6673C110.718 43.0282 110.739 43.339 110.747 43.6004C110.768 43.8693 110.778 44.1906 110.778 44.5657V49.3384ZM112.662 38.3829C112.662 37.6333 112.574 37.0517 112.398 36.6383C112.223 36.2249 111.973 36.0179 111.65 36.0179C110.983 36.0179 110.65 36.8206 110.65 38.4255C110.65 40.0656 110.973 40.8857 111.618 40.8857C111.941 40.8857 112.196 40.6669 112.382 40.2281C112.568 39.79 112.662 39.1745 112.662 38.3829Z" fill="black"/>
<path d="M65.253 26.6549H60.7671V10.2797H68.6957V14.1297H65.253V16.5157H68.4588V20.2168H65.253V26.6549Z" fill="black"/>
<path d="M74.5694 26.6549H70.2553V15.1902H74.5694L74.3437 17.4279C74.9963 15.7519 76.0758 14.9146 77.5821 14.9146V19.6872C77.1088 19.4326 76.707 19.3053 76.3773 19.3053C75.7962 19.3053 75.3499 19.5123 75.0377 19.9257C74.7255 20.3392 74.57 20.9423 74.57 21.7339V26.6549H74.5694Z" fill="black"/>
<path d="M83.1869 26.6549H78.8622V15.1902H83.1869V26.6549Z" fill="black"/>
<path d="M91.1369 22.7734L95.3538 22.858C95.0529 24.1941 94.4662 25.2002 93.5948 25.875C92.7235 26.5505 91.5844 26.8879 90.179 26.8879C88.5153 26.8879 87.2096 26.3787 86.263 25.3608C85.3233 24.3288 84.8538 22.918 84.8538 21.1296C84.8538 19.3127 85.3597 17.8314 86.3708 16.6857C87.3819 15.5332 88.6871 14.9572 90.2868 14.9572C91.8791 14.9572 93.1485 15.5121 94.0951 16.622C95.0416 17.7393 95.5149 19.2206 95.5149 21.0659L95.4936 21.8186H89.1679C89.218 22.9921 89.5553 23.5792 90.179 23.5792C90.6673 23.5792 90.9864 23.3104 91.1369 22.7734ZM91.2334 19.5278C91.2334 19.3158 91.2083 19.1211 91.1582 18.9444C91.108 18.7676 91.0378 18.6156 90.9482 18.4883C90.8585 18.361 90.7526 18.2603 90.631 18.1861C90.5088 18.112 90.3765 18.0749 90.2329 18.0749C89.9314 18.0749 89.6876 18.2109 89.5014 18.4834C89.3146 18.7559 89.2218 19.1038 89.2218 19.5278H91.2334Z" fill="black"/>
<path d="M107.413 26.6549H103.099V20.5882C103.099 20.0648 103.047 19.7008 102.943 19.4956C102.839 19.2904 102.658 19.1879 102.4 19.1879C101.797 19.1879 101.496 19.7502 101.496 20.8743V26.6543H97.1817V15.1902H101.496C101.488 15.4732 101.481 15.7346 101.474 15.975C101.467 16.2154 101.456 16.4379 101.443 16.643L101.399 17.3747C102.095 15.7556 103.113 14.9461 104.455 14.9461C105.387 14.9461 106.111 15.289 106.628 15.975C107.151 16.6609 107.413 17.6151 107.413 18.8387V26.6549Z" fill="black"/>
<path d="M115.375 26.6549C115.381 26.535 115.389 26.3972 115.396 26.2415C115.403 26.0857 115.413 25.9059 115.428 25.7007C115.442 25.5734 115.453 25.3788 115.46 25.1174C115.044 25.7823 114.639 26.2452 114.244 26.5066C113.857 26.7612 113.38 26.8885 112.814 26.8885C111.645 26.8885 110.727 26.3725 110.06 25.3398C109.4 24.3078 109.07 22.8723 109.07 21.0338C109.07 19.1038 109.393 17.6083 110.039 16.5479C110.684 15.4806 111.595 14.9467 112.771 14.9467C113.417 14.9467 113.937 15.0882 114.331 15.3706C114.746 15.6537 115.148 16.1449 115.536 16.8445C115.514 16.4768 115.503 16.2543 115.503 16.1765L115.46 15.0202V8.74158H119.785V26.6543H115.375V26.6549ZM113.535 20.875C113.535 22.4446 113.89 23.2294 114.6 23.2294C115.267 23.2294 115.6 22.4199 115.6 20.8008C115.6 19.2521 115.277 18.4784 114.632 18.4784C113.901 18.4778 113.535 19.2769 113.535 20.875Z" fill="black"/>
<path fill-rule="evenodd" clip-rule="evenodd" d="M57.2341 21.0696C57.2341 18.0502 55.2776 15.4819 52.5457 14.5283C52.7858 13.8294 52.9162 13.0804 52.9162 12.3011C52.9162 8.46968 49.765 5.36311 45.8784 5.36311C45.0171 5.36311 44.1915 5.51637 43.4286 5.79569C42.9302 2.44564 40.0034 -0.127625 36.466 -0.127625C34.482 -0.127625 32.6904 0.681929 31.411 1.98401C30.1315 0.681929 28.3393 -0.127625 26.3559 -0.127625C22.8191 -0.127625 19.8917 2.44502 19.3933 5.79569C18.6304 5.51637 17.8048 5.36311 16.9435 5.36311C13.057 5.36311 9.90571 8.46968 9.90571 12.3011C9.90571 13.0798 10.0361 13.8294 10.2762 14.5283C7.54493 15.4819 5.58786 18.0502 5.58786 21.0696C5.58786 23.392 6.74505 25.4468 8.52159 26.7062C7.68159 27.8495 7.18511 29.2541 7.18511 30.7743C7.18511 34.5384 10.226 37.6018 14.018 37.7093C14.0111 37.8372 14.0067 37.9664 14.0067 38.0955C14.0067 41.7892 16.9354 44.8086 20.6276 45.0212V50.0237H23.7544V44.4996C24.0647 44.3717 24.3637 44.2228 24.6502 44.0541C25.892 46.0217 28.1055 47.3318 30.6293 47.3318C30.8932 47.3318 31.1539 47.3176 31.4103 47.2892C31.6667 47.317 31.9275 47.3318 32.1914 47.3318C34.7152 47.3318 36.9286 46.0217 38.1705 44.0541C38.4563 44.2228 38.7553 44.3717 39.0662 44.4996V50.0237H42.1931V45.0212C45.8859 44.8086 48.814 41.7898 48.814 38.0955C48.814 37.9658 48.8102 37.8372 48.8027 37.7093C52.5946 37.6024 55.6356 34.5391 55.6356 30.7743C55.6356 29.2547 55.1391 27.8495 54.2991 26.7062C56.0769 25.4468 57.2341 23.3914 57.2341 21.0696ZM26.6424 40.4791C28.9104 43.0727 33.9109 43.0727 36.1789 40.4791C33.0665 45.2332 29.7554 45.2332 26.6424 40.4791ZM41.007 30.1261L42.8268 29.9049L41.2816 29.4785L43.2832 29.1392C43.322 29.1324 41.748 28.9352 41.4258 28.7529C42.8287 27.6585 45.3324 27.2927 45.3324 27.2927C39.6229 26.2983 38.3253 31.5888 37.6878 35.9413C37.1794 34.6614 36.7412 33.5552 36.5839 30.791C36.4039 32.7092 36.4428 32.5436 36.6491 34.2604C37.064 37.7056 37.3486 40.8029 31.8429 41.6384V39.5095C32.8923 39.0818 35.0342 38.5318 33.8977 37.3669C33.3398 36.7953 32.5939 37.9602 32.0015 38.6499C31.5401 39.1869 31.3871 39.2833 30.8957 38.7358C30.292 38.0634 29.5053 36.7712 28.9236 37.3669C27.7871 38.5318 29.9291 39.0818 30.9784 39.5095V41.6384C25.4727 40.8023 25.7573 37.7056 26.1722 34.2604C26.3785 32.5436 26.4174 32.7099 26.2374 30.791C26.0801 33.5552 25.6419 34.6614 25.1335 35.9413C24.496 31.5888 23.1984 26.2983 17.4889 27.2927C17.4889 27.2927 19.9926 27.6585 21.3955 28.7529C21.0733 28.9352 19.4993 29.133 19.5381 29.1392L21.5397 29.4785L19.9945 29.9049L21.8143 30.1261C20.8502 30.652 15.0905 33.4607 10.4812 28.2783C13.0388 23.879 17.3272 23.4896 21.3247 25.5234C20.4941 17.2215 31.3288 20.4288 31.4103 20.4022C31.4918 20.4288 42.3266 17.2209 41.496 25.5234C45.4935 23.489 49.7819 23.8783 52.3395 28.2783C47.7308 33.4607 41.9711 30.652 41.007 30.1261Z" fill="black"/>
<path d="M83.5417 11.5812C83.5417 12.2529 83.2941 12.8326 82.7995 13.3208C82.2905 13.8016 81.6988 14.042 81.0242 14.042C80.3284 14.042 79.7335 13.7979 79.2383 13.3103C78.7506 12.8085 78.5067 12.2214 78.5067 11.5497C78.5067 10.8637 78.7506 10.2803 79.2383 9.79955C79.7473 9.31876 80.3391 9.07837 81.0136 9.07837C81.7238 9.07837 82.3225 9.32247 82.8102 9.81005C83.2979 10.2908 83.5417 10.881 83.5417 11.5812Z" fill="#CF1616"/>
<path d="M19.1018 25.5475V31.1915H20.0095V32.0863H20.9172V32.9811H29.3661V32.0863H30.2738V31.1915H31.8109V32.0863H32.7186V32.9811H41.1675V32.0863H42.0752V31.1915H42.9829V25.5475H19.1018Z" fill="white"/>
<path d="M20.1487 26.5795V27.4743H21.057V28.3692H20.1487V30.1588H21.057V31.0543H21.9647V31.9491H28.3193V31.0543H29.227V30.1588H30.1347V28.3692H29.227V27.4743H32.8578V28.3692H31.9501V30.1588H32.8578V31.0543H33.7655V31.9491H40.12V31.0543H41.0277V30.1588H41.936V28.3692H41.0277V27.4743H41.936V26.5795H20.1487Z" fill="#121212"/>
<path d="M35.5815 28.3692H34.6738V27.4743H35.5815V28.3692ZM22.8725 28.3692H21.9648V29.264H22.8725V28.3692ZM24.6879 28.3692H23.7802V29.264H24.6879V28.3692ZM34.6738 28.3692H33.7661V29.264H34.6738V28.3692ZM36.4892 28.3692H35.5815V29.264H36.4892V28.3692ZM25.5956 29.264H24.6879V30.1588H25.5956V29.264ZM35.5815 29.264H34.6738V30.1588H35.5815V29.264ZM37.3969 29.264H36.4892V30.1588H37.3969V29.264ZM24.6879 30.1588H23.7802V31.0537H24.6879V30.1588ZM26.5033 30.1588H25.5956V31.0537H26.5033V30.1588ZM36.4892 30.1588H35.5815V31.0537H36.4892V30.1588ZM38.3046 30.1588H37.3969V31.0537H38.3046V30.1588ZM23.7802 27.4743H22.8725V28.3692H23.7802V27.4743ZM23.7802 29.264H22.8725V30.1588H23.7802V29.264Z" fill="#F1F1F1"/>
</g>
<defs>
<clipPath id="clip0_19:398">
<rect width="125.373" height="50" fill="white"/>
</clipPath>
</defs>
</svg>
